{
	"patcher" : 	{
		"fileversion" : 1,
		"appversion" : 		{
			"major" : 8,
			"minor" : 5,
			"revision" : 2,
			"architecture" : "x64",
			"modernui" : 1
		}
,
		"classnamespace" : "box",
		"rect" : [ 34.0, 89.0, 1723.0, 998.0 ],
		"bglocked" : 0,
		"openinpresentation" : 0,
		"default_fontsize" : 12.0,
		"default_fontface" : 0,
		"default_fontname" : "Arial",
		"gridonopen" : 1,
		"gridsize" : [ 15.0, 15.0 ],
		"gridsnaponopen" : 1,
		"objectsnaponopen" : 1,
		"statusbarvisible" : 2,
		"toolbarvisible" : 1,
		"lefttoolbarpinned" : 0,
		"toptoolbarpinned" : 0,
		"righttoolbarpinned" : 0,
		"bottomtoolbarpinned" : 0,
		"toolbars_unpinned_last_save" : 0,
		"tallnewobj" : 0,
		"boxanimatetime" : 200,
		"enablehscroll" : 1,
		"enablevscroll" : 1,
		"devicewidth" : 0.0,
		"description" : "",
		"digest" : "",
		"tags" : "",
		"style" : "",
		"subpatcher_template" : "",
		"assistshowspatchername" : 0,
		"boxes" : [ 			{
				"box" : 				{
					"id" : "obj-4",
					"maxclass" : "live.line",
					"numinlets" : 1,
					"numoutlets" : 0,
					"patching_rect" : [ 65.5, 377.0, 1539.652349162608516, 5.0 ]
				}

			}
, 			{
				"box" : 				{
					"id" : "obj-1",
					"linecount" : 2,
					"maxclass" : "comment",
					"numinlets" : 1,
					"numoutlets" : 0,
					"patching_rect" : [ 330.0, 454.507763238418534, 186.0, 33.0 ],
					"text" : "one guiding input controlling two different memories",
					"textjustification" : 1
				}

			}
, 			{
				"box" : 				{
					"basictuning" : 440,
					"clipheight" : 32.306877493858337,
					"data" : 					{
						"clips" : [ 							{
								"absolutepath" : "Fox_Sax_3.aif",
								"filename" : "Fox_Sax_3.aif",
								"filekind" : "audiofile",
								"id" : "u556007609",
								"loop" : 1,
								"content_state" : 								{
									"loop" : 1
								}

							}
 ]
					}
,
					"followglobaltempo" : 0,
					"formantcorrection" : 0,
					"id" : "obj-124",
					"maxclass" : "playlist~",
					"mode" : "basic",
					"numinlets" : 1,
					"numoutlets" : 5,
					"originallength" : [ 0.0, "ticks" ],
					"originaltempo" : 120.0,
					"outlettype" : [ "signal", "signal", "signal", "", "dictionary" ],
					"parameter_enable" : 0,
					"patching_rect" : [ 65.5, 448.693122506141663, 239.0, 33.306877493858337 ],
					"pitchcorrection" : 0,
					"quality" : "basic",
					"timestretch" : [ 0 ]
				}

			}
, 			{
				"box" : 				{
					"bgcolor" : [ 1.0, 1.0, 1.0, 1.0 ],
					"fontsize" : 14.0,
					"id" : "obj-120",
					"linecount" : 3,
					"maxclass" : "comment",
					"numinlets" : 1,
					"numoutlets" : 0,
					"patching_rect" : [ 284.5, 180.666673541069031, 219.0, 53.0 ],
					"text" : "Initialize server, agent, and DSP. make sure no other windows with servers are open!",
					"textjustification" : 1
				}

			}
, 			{
				"box" : 				{
					"bgcolor" : [ 1.0, 1.0, 1.0, 1.0 ],
					"fontsize" : 14.0,
					"id" : "obj-119",
					"maxclass" : "comment",
					"numinlets" : 1,
					"numoutlets" : 0,
					"patching_rect" : [ 1345.152349162608516, 329.707397043179753, 260.0, 22.0 ],
					"text" : "Check out the different settings for each."
				}

			}
, 			{
				"box" : 				{
					"bgcolor" : [ 1.0, 1.0, 1.0, 1.0 ],
					"fontsize" : 14.0,
					"id" : "obj-118",
					"maxclass" : "comment",
					"numinlets" : 1,
					"numoutlets" : 0,
					"patching_rect" : [ 103.0, 419.749998807907104, 118.0, 22.0 ],
					"text" : "Start guide audio."
				}

			}
, 			{
				"box" : 				{
					"bgcolor" : [ 1.0, 1.0, 1.0, 1.0 ],
					"fontsize" : 14.0,
					"id" : "obj-117",
					"linecount" : 3,
					"maxclass" : "comment",
					"numinlets" : 1,
					"numoutlets" : 0,
					"patching_rect" : [ 1164.0, 418.250001192092896, 94.0, 53.0 ],
					"text" : "All of it together gets a bit chaotic."
				}

			}
, 			{
				"box" : 				{
					"bgcolor" : [ 1.0, 1.0, 1.0, 1.0 ],
					"fontsize" : 14.0,
					"id" : "obj-116",
					"maxclass" : "comment",
					"numinlets" : 1,
					"numoutlets" : 0,
					"patching_rect" : [ 866.0, 419.749998807907104, 93.0, 22.0 ],
					"text" : "Start another."
				}

			}
, 			{
				"box" : 				{
					"bgcolor" : [ 1.0, 1.0, 1.0, 1.0 ],
					"fontsize" : 14.0,
					"id" : "obj-115",
					"maxclass" : "comment",
					"numinlets" : 1,
					"numoutlets" : 0,
					"patching_rect" : [ 658.0, 151.5, 149.0, 22.0 ],
					"text" : "Load three memories. "
				}

			}
, 			{
				"box" : 				{
					"id" : "obj-113",
					"maxclass" : "button",
					"numinlets" : 1,
					"numoutlets" : 1,
					"outlettype" : [ "bang" ],
					"parameter_enable" : 0,
					"patching_rect" : [ 574.356622497326953, 144.0, 37.0, 37.0 ]
				}

			}
, 			{
				"box" : 				{
					"fontname" : "Arial",
					"fontsize" : 12.0,
					"id" : "obj-108",
					"lastchannelcount" : 1,
					"maxclass" : "mc.live.gain~",
					"numinlets" : 1,
					"numoutlets" : 4,
					"outlettype" : [ "multichannelsignal", "", "float", "list" ],
					"parameter_enable" : 1,
					"parameter_mappable" : 0,
					"patching_rect" : [ 698.5, 772.007756859064102, 68.0, 88.0 ],
					"saved_attribute_attributes" : 					{
						"valueof" : 						{
							"parameter_initial" : [ -11.22842456114887 ],
							"parameter_initial_enable" : 1,
							"parameter_linknames" : 1,
							"parameter_longname" : "output[5]",
							"parameter_mmax" : 6.0,
							"parameter_mmin" : -70.0,
							"parameter_shortname" : "Vox_guide",
							"parameter_type" : 0,
							"parameter_unitstyle" : 4
						}

					}
,
					"varname" : "output[5]"
				}

			}
, 			{
				"box" : 				{
					"fontname" : "Arial",
					"fontsize" : 12.0,
					"id" : "obj-107",
					"lastchannelcount" : 1,
					"maxclass" : "mc.live.gain~",
					"numinlets" : 1,
					"numoutlets" : 4,
					"outlettype" : [ "multichannelsignal", "", "float", "list" ],
					"parameter_enable" : 1,
					"parameter_mappable" : 0,
					"patching_rect" : [ 1088.143377502673047, 774.007756859064102, 89.0, 85.0 ],
					"saved_attribute_attributes" : 					{
						"valueof" : 						{
							"parameter_initial" : [ 0.0 ],
							"parameter_initial_enable" : 1,
							"parameter_linknames" : 1,
							"parameter_longname" : "output[4]",
							"parameter_mmax" : 6.0,
							"parameter_mmin" : -70.0,
							"parameter_shortname" : "vox low",
							"parameter_type" : 0,
							"parameter_unitstyle" : 4
						}

					}
,
					"varname" : "output[4]"
				}

			}
, 			{
				"box" : 				{
					"fontname" : "Arial",
					"fontsize" : 12.0,
					"id" : "obj-106",
					"lastchannelcount" : 1,
					"maxclass" : "mc.live.gain~",
					"numinlets" : 1,
					"numoutlets" : 4,
					"outlettype" : [ "multichannelsignal", "", "float", "list" ],
					"parameter_enable" : 1,
					"parameter_mappable" : 0,
					"patching_rect" : [ 828.5, 772.007756859064102, 68.0, 84.0 ],
					"saved_attribute_attributes" : 					{
						"valueof" : 						{
							"parameter_initial" : [ 0.0 ],
							"parameter_initial_enable" : 1,
							"parameter_linknames" : 1,
							"parameter_longname" : "output[3]",
							"parameter_mmax" : 6.0,
							"parameter_mmin" : -70.0,
							"parameter_shortname" : "vox reverse",
							"parameter_type" : 0,
							"parameter_unitstyle" : 4
						}

					}
,
					"varname" : "output[3]"
				}

			}
, 			{
				"box" : 				{
					"fontname" : "Arial",
					"fontsize" : 12.0,
					"id" : "obj-105",
					"lastchannelcount" : 1,
					"maxclass" : "mc.live.gain~",
					"numinlets" : 1,
					"numoutlets" : 4,
					"outlettype" : [ "multichannelsignal", "", "float", "list" ],
					"parameter_enable" : 1,
					"parameter_mappable" : 0,
					"patching_rect" : [ 452.5, 768.007756859064102, 68.0, 84.0 ],
					"saved_attribute_attributes" : 					{
						"valueof" : 						{
							"parameter_initial" : [ 3.065538693444296 ],
							"parameter_initial_enable" : 1,
							"parameter_linknames" : 1,
							"parameter_longname" : "output[1]",
							"parameter_mmax" : 6.0,
							"parameter_mmin" : -70.0,
							"parameter_shortname" : "guitar",
							"parameter_type" : 0,
							"parameter_unitstyle" : 4
						}

					}
,
					"varname" : "output[1]"
				}

			}
, 			{
				"box" : 				{
					"id" : "obj-95",
					"linecount" : 2,
					"maxclass" : "comment",
					"numinlets" : 1,
					"numoutlets" : 0,
					"patching_rect" : [ 975.0, 512.507763238418534, 271.0, 33.0 ],
					"text" : "one analysis for two different scenario-makers with different settings",
					"textjustification" : 1
				}

			}
, 			{
				"box" : 				{
					"basictuning" : 440,
					"clipheight" : 32.306877493858337,
					"data" : 					{
						"clips" : [ 							{
								"absolutepath" : "Nox3_LucidDreams.wav",
								"filename" : "Nox3_LucidDreams.wav",
								"filekind" : "audiofile",
								"id" : "u145007060",
								"loop" : 1,
								"content_state" : 								{
									"loop" : 1
								}

							}
 ]
					}
,
					"followglobaltempo" : 0,
					"formantcorrection" : 0,
					"id" : "obj-93",
					"maxclass" : "playlist~",
					"mode" : "basic",
					"numinlets" : 1,
					"numoutlets" : 5,
					"originallength" : [ 0.0, "ticks" ],
					"originaltempo" : 120.0,
					"outlettype" : [ "signal", "signal", "signal", "", "dictionary" ],
					"parameter_enable" : 0,
					"patching_rect" : [ 828.5, 448.693122506141663, 196.0, 33.306877493858337 ],
					"pitchcorrection" : 0,
					"quality" : "basic",
					"timestretch" : [ 0 ]
				}

			}
, 			{
				"box" : 				{
					"id" : "obj-90",
					"maxclass" : "comment",
					"numinlets" : 1,
					"numoutlets" : 0,
					"patching_rect" : [ 1235.356622497326953, 167.869401893307753, 190.0, 20.0 ],
					"text" : "This memry is sent to two agents"
				}

			}
, 			{
				"box" : 				{
					"id" : "obj-84",
					"maxclass" : "newobj",
					"numinlets" : 1,
					"numoutlets" : 2,
					"outlettype" : [ "bang", "" ],
					"patching_rect" : [ 1210.5, 233.506990133306772, 55.0, 22.0 ],
					"text" : "t b l"
				}

			}
, 			{
				"box" : 				{
					"id" : "obj-85",
					"maxclass" : "newobj",
					"numinlets" : 1,
					"numoutlets" : 0,
					"patcher" : 					{
						"fileversion" : 1,
						"appversion" : 						{
							"major" : 8,
							"minor" : 5,
							"revision" : 2,
							"architecture" : "x64",
							"modernui" : 1
						}
,
						"classnamespace" : "box",
						"rect" : [ 417.0, 278.0, 563.0, 493.0 ],
						"bglocked" : 0,
						"openinpresentation" : 0,
						"default_fontsize" : 12.0,
						"default_fontface" : 0,
						"default_fontname" : "Arial",
						"gridonopen" : 1,
						"gridsize" : [ 15.0, 15.0 ],
						"gridsnaponopen" : 1,
						"objectsnaponopen" : 1,
						"statusbarvisible" : 2,
						"toolbarvisible" : 1,
						"lefttoolbarpinned" : 0,
						"toptoolbarpinned" : 0,
						"righttoolbarpinned" : 0,
						"bottomtoolbarpinned" : 0,
						"toolbars_unpinned_last_save" : 0,
						"tallnewobj" : 0,
						"boxanimatetime" : 200,
						"enablehscroll" : 1,
						"enablevscroll" : 1,
						"devicewidth" : 0.0,
						"description" : "",
						"digest" : "",
						"tags" : "",
						"style" : "",
						"subpatcher_template" : "",
						"assistshowspatchername" : 0,
						"boxes" : [ 							{
								"box" : 								{
									"id" : "obj-5",
									"linecount" : 2,
									"maxclass" : "comment",
									"numinlets" : 1,
									"numoutlets" : 0,
									"patching_rect" : [ 331.0, 394.71122227112437, 150.0, 33.0 ],
									"text" : "segments transposed down 600 cents"
								}

							}
, 							{
								"box" : 								{
									"id" : "obj-4",
									"linecount" : 2,
									"maxclass" : "comment",
									"numinlets" : 1,
									"numoutlets" : 0,
									"patching_rect" : [ 368.0, 252.71122227112437, 150.0, 33.0 ],
									"text" : "segments played backwards"
								}

							}
, 							{
								"box" : 								{
									"fontface" : 1,
									"id" : "obj-8",
									"maxclass" : "message",
									"numinlets" : 2,
									"numoutlets" : 1,
									"outlettype" : [ "" ],
									"patching_rect" : [ 44.0, 335.368084530035503, 323.0, 22.0 ],
									"text" : "mode 1, query_fill 50, query_chance 10, query_length 8",
									"textcolor" : [ 0.968896150588989, 0.489898085594177, 0.06115048378706, 1.0 ]
								}

							}
, 							{
								"box" : 								{
									"id" : "obj-9",
									"maxclass" : "newobj",
									"numinlets" : 1,
									"numoutlets" : 0,
									"patching_rect" : [ 44.0, 367.333333911674458, 116.0, 22.0 ],
									"text" : "s scenario_3a"
								}

							}
, 							{
								"box" : 								{
									"fontface" : 1,
									"id" : "obj-6",
									"linecount" : 2,
									"maxclass" : "message",
									"numinlets" : 2,
									"numoutlets" : 1,
									"outlettype" : [ "" ],
									"patching_rect" : [ 22.666666666666686, 394.71122227112437, 276.0, 35.0 ],
									"text" : "crossfade 300, fade_in 20, fade_out 100, mode 0, resampling -600",
									"textcolor" : [ 0.34311780333519, 0.751492381095886, 0.998448610305786, 1.0 ]
								}

							}
, 							{
								"box" : 								{
									"id" : "obj-7",
									"maxclass" : "newobj",
									"numinlets" : 1,
									"numoutlets" : 0,
									"patching_rect" : [ 22.666666666666686, 437.98573468128825, 94.0, 22.0 ],
									"text" : "s sequencer_3a"
								}

							}
, 							{
								"box" : 								{
									"id" : "obj-3",
									"maxclass" : "button",
									"numinlets" : 1,
									"numoutlets" : 1,
									"outlettype" : [ "bang" ],
									"parameter_enable" : 0,
									"patching_rect" : [ 117.0, 26.0, 24.0, 24.0 ]
								}

							}
, 							{
								"box" : 								{
									"fontface" : 1,
									"id" : "obj-2",
									"maxclass" : "message",
									"numinlets" : 2,
									"numoutlets" : 1,
									"outlettype" : [ "" ],
									"patching_rect" : [ 88.0, 182.368084530035503, 330.0, 22.0 ],
									"text" : "mode 1, query_fill 80, query_chance 90, query_length 4",
									"textcolor" : [ 0.968896150588989, 0.489898085594177, 0.06115048378706, 1.0 ]
								}

							}
, 							{
								"box" : 								{
									"id" : "obj-51",
									"maxclass" : "newobj",
									"numinlets" : 1,
									"numoutlets" : 0,
									"patching_rect" : [ 88.0, 214.333333911674458, 77.0, 22.0 ],
									"text" : "s scenario_3"
								}

							}
, 							{
								"box" : 								{
									"id" : "obj-116",
									"maxclass" : "newobj",
									"numinlets" : 1,
									"numoutlets" : 0,
									"patching_rect" : [ 108.0, 148.868081192175396, 88.0, 22.0 ],
									"text" : "s identifier_3"
								}

							}
, 							{
								"box" : 								{
									"bgcolor" : [ 0.301961, 0.301961, 0.301961, 0.08 ],
									"bgcolor2" : [ 0.301961, 0.301961, 0.301961, 0.08 ],
									"bgfillcolor_angle" : 270.0,
									"bgfillcolor_autogradient" : 0.0,
									"bgfillcolor_color" : [ 0.2, 0.2, 0.2, 1.0 ],
									"bgfillcolor_color1" : [ 0.301961, 0.301961, 0.301961, 0.08 ],
									"bgfillcolor_color2" : [ 0.2, 0.2, 0.2, 1.0 ],
									"bgfillcolor_proportion" : 0.5,
									"bgfillcolor_type" : "color",
									"fontface" : 1,
									"gradient" : 1,
									"id" : "obj-36",
									"maxclass" : "message",
									"numinlets" : 2,
									"numoutlets" : 1,
									"outlettype" : [ "" ],
									"patching_rect" : [ 108.0, 118.186129100751941, 285.0, 22.0 ],
									"text" : "seg_descriptor Loudness, threshold -15, mode 1",
									"textcolor" : [ 0.34311780333519, 0.751492381095886, 0.998448610305786, 1.0 ]
								}

							}
, 							{
								"box" : 								{
									"id" : "obj-72",
									"maxclass" : "newobj",
									"numinlets" : 1,
									"numoutlets" : 5,
									"outlettype" : [ "bang", "bang", "bang", "bang", "bang" ],
									"patching_rect" : [ 22.666666666666686, 73.0, 104.5, 22.0 ],
									"text" : "b 5"
								}

							}
, 							{
								"box" : 								{
									"fontface" : 1,
									"id" : "obj-21",
									"linecount" : 2,
									"maxclass" : "message",
									"numinlets" : 2,
									"numoutlets" : 1,
									"outlettype" : [ "" ],
									"patching_rect" : [ 65.416666666666686, 252.71122227112437, 276.0, 35.0 ],
									"text" : "crossfade 40, fade_in 20, fade_out 100, mode 0, reverse 1",
									"textcolor" : [ 0.34311780333519, 0.751492381095886, 0.998448610305786, 1.0 ]
								}

							}
, 							{
								"box" : 								{
									"id" : "obj-76",
									"maxclass" : "newobj",
									"numinlets" : 1,
									"numoutlets" : 0,
									"patching_rect" : [ 65.416666666666686, 295.98573468128825, 87.0, 22.0 ],
									"text" : "s sequencer_3"
								}

							}
, 							{
								"box" : 								{
									"comment" : "",
									"id" : "obj-32",
									"index" : 1,
									"maxclass" : "inlet",
									"numinlets" : 0,
									"numoutlets" : 1,
									"outlettype" : [ "bang" ],
									"patching_rect" : [ 59.0, 21.000001551611433, 31.166666666666657, 31.166666666666657 ]
								}

							}
 ],
						"lines" : [ 							{
								"patchline" : 								{
									"destination" : [ "obj-51", 0 ],
									"source" : [ "obj-2", 0 ]
								}

							}
, 							{
								"patchline" : 								{
									"destination" : [ "obj-76", 0 ],
									"source" : [ "obj-21", 0 ]
								}

							}
, 							{
								"patchline" : 								{
									"destination" : [ "obj-72", 0 ],
									"source" : [ "obj-3", 0 ]
								}

							}
, 							{
								"patchline" : 								{
									"destination" : [ "obj-72", 0 ],
									"source" : [ "obj-32", 0 ]
								}

							}
, 							{
								"patchline" : 								{
									"destination" : [ "obj-116", 0 ],
									"source" : [ "obj-36", 0 ]
								}

							}
, 							{
								"patchline" : 								{
									"destination" : [ "obj-7", 0 ],
									"source" : [ "obj-6", 0 ]
								}

							}
, 							{
								"patchline" : 								{
									"destination" : [ "obj-2", 0 ],
									"source" : [ "obj-72", 3 ]
								}

							}
, 							{
								"patchline" : 								{
									"destination" : [ "obj-21", 0 ],
									"source" : [ "obj-72", 2 ]
								}

							}
, 							{
								"patchline" : 								{
									"destination" : [ "obj-36", 0 ],
									"source" : [ "obj-72", 4 ]
								}

							}
, 							{
								"patchline" : 								{
									"destination" : [ "obj-6", 0 ],
									"source" : [ "obj-72", 0 ]
								}

							}
, 							{
								"patchline" : 								{
									"destination" : [ "obj-8", 0 ],
									"source" : [ "obj-72", 1 ]
								}

							}
, 							{
								"patchline" : 								{
									"destination" : [ "obj-9", 0 ],
									"source" : [ "obj-8", 0 ]
								}

							}
 ]
					}
,
					"patching_rect" : [ 1210.5, 328.957398235272649, 120.0, 22.0 ],
					"saved_object_attributes" : 					{
						"description" : "",
						"digest" : "",
						"globalpatchername" : "",
						"tags" : ""
					}
,
					"text" : "p load_settings_3-3a"
				}

			}
, 			{
				"box" : 				{
					"id" : "obj-86",
					"maxclass" : "message",
					"numinlets" : 2,
					"numoutlets" : 1,
					"outlettype" : [ "" ],
					"patching_rect" : [ 1210.5, 205.0, 189.0, 22.0 ],
					"text" : "load Voice_Daumergue_Fox.wav"
				}

			}
, 			{
				"box" : 				{
					"id" : "obj-80",
					"maxclass" : "newobj",
					"numinlets" : 1,
					"numoutlets" : 2,
					"outlettype" : [ "bang", "" ],
					"patching_rect" : [ 913.5, 233.506990133306743, 55.0, 22.0 ],
					"text" : "t b l"
				}

			}
, 			{
				"box" : 				{
					"id" : "obj-81",
					"maxclass" : "newobj",
					"numinlets" : 1,
					"numoutlets" : 0,
					"patcher" : 					{
						"fileversion" : 1,
						"appversion" : 						{
							"major" : 8,
							"minor" : 5,
							"revision" : 2,
							"architecture" : "x64",
							"modernui" : 1
						}
,
						"classnamespace" : "box",
						"rect" : [ 904.0, 443.0, 570.0, 311.0 ],
						"bglocked" : 0,
						"openinpresentation" : 0,
						"default_fontsize" : 12.0,
						"default_fontface" : 0,
						"default_fontname" : "Arial",
						"gridonopen" : 1,
						"gridsize" : [ 15.0, 15.0 ],
						"gridsnaponopen" : 1,
						"objectsnaponopen" : 1,
						"statusbarvisible" : 2,
						"toolbarvisible" : 1,
						"lefttoolbarpinned" : 0,
						"toptoolbarpinned" : 0,
						"righttoolbarpinned" : 0,
						"bottomtoolbarpinned" : 0,
						"toolbars_unpinned_last_save" : 0,
						"tallnewobj" : 0,
						"boxanimatetime" : 200,
						"enablehscroll" : 1,
						"enablevscroll" : 1,
						"devicewidth" : 0.0,
						"description" : "",
						"digest" : "",
						"tags" : "",
						"style" : "",
						"subpatcher_template" : "",
						"assistshowspatchername" : 0,
						"boxes" : [ 							{
								"box" : 								{
									"id" : "obj-6",
									"maxclass" : "button",
									"numinlets" : 1,
									"numoutlets" : 1,
									"outlettype" : [ "bang" ],
									"parameter_enable" : 0,
									"patching_rect" : [ 93.0, 31.0, 24.0, 24.0 ]
								}

							}
, 							{
								"box" : 								{
									"id" : "obj-4",
									"maxclass" : "comment",
									"numinlets" : 1,
									"numoutlets" : 0,
									"patching_rect" : [ 403.0, 168.368084530035503, 151.0, 20.0 ],
									"text" : "rare but long repeats"
								}

							}
, 							{
								"box" : 								{
									"id" : "obj-3",
									"linecount" : 3,
									"maxclass" : "comment",
									"numinlets" : 1,
									"numoutlets" : 0,
									"patching_rect" : [ 399.0, 96.686129100751941, 151.0, 47.0 ],
									"text" : "same as identifier 1, since they are using the same guiding input"
								}

							}
, 							{
								"box" : 								{
									"fontface" : 1,
									"id" : "obj-2",
									"maxclass" : "message",
									"numinlets" : 2,
									"numoutlets" : 1,
									"outlettype" : [ "" ],
									"patching_rect" : [ 59.666666666666671, 168.368084530035503, 330.0, 22.0 ],
									"text" : "mode 0, query_fill 50, query_chance 5, query_length 20",
									"textcolor" : [ 0.968896150588989, 0.489898085594177, 0.06115048378706, 1.0 ]
								}

							}
, 							{
								"box" : 								{
									"id" : "obj-51",
									"maxclass" : "newobj",
									"numinlets" : 1,
									"numoutlets" : 0,
									"patching_rect" : [ 59.666666666666671, 200.333333911674458, 116.0, 22.0 ],
									"text" : "s scenario_2"
								}

							}
, 							{
								"box" : 								{
									"id" : "obj-116",
									"maxclass" : "newobj",
									"numinlets" : 1,
									"numoutlets" : 0,
									"patching_rect" : [ 81.5, 139.868081192175396, 88.0, 22.0 ],
									"text" : "s identifier_2"
								}

							}
, 							{
								"box" : 								{
									"bgcolor" : [ 0.301961, 0.301961, 0.301961, 0.08 ],
									"bgcolor2" : [ 0.301961, 0.301961, 0.301961, 0.08 ],
									"bgfillcolor_angle" : 270.0,
									"bgfillcolor_autogradient" : 0.0,
									"bgfillcolor_color" : [ 0.2, 0.2, 0.2, 1.0 ],
									"bgfillcolor_color1" : [ 0.301961, 0.301961, 0.301961, 0.08 ],
									"bgfillcolor_color2" : [ 0.2, 0.2, 0.2, 1.0 ],
									"bgfillcolor_proportion" : 0.5,
									"bgfillcolor_type" : "color",
									"fontface" : 1,
									"gradient" : 1,
									"id" : "obj-36",
									"maxclass" : "message",
									"numinlets" : 2,
									"numoutlets" : 1,
									"outlettype" : [ "" ],
									"patching_rect" : [ 81.5, 109.186129100751941, 285.0, 22.0 ],
									"text" : "seg_descriptor Loudness, threshold -45, mode 0",
									"textcolor" : [ 0.34311780333519, 0.751492381095886, 0.998448610305786, 1.0 ]
								}

							}
, 							{
								"box" : 								{
									"id" : "obj-72",
									"maxclass" : "newobj",
									"numinlets" : 1,
									"numoutlets" : 3,
									"outlettype" : [ "bang", "bang", "bang" ],
									"patching_rect" : [ 39.0, 72.0, 61.5, 22.0 ],
									"text" : "b 3"
								}

							}
, 							{
								"box" : 								{
									"fontface" : 1,
									"id" : "obj-21",
									"maxclass" : "message",
									"numinlets" : 2,
									"numoutlets" : 1,
									"outlettype" : [ "" ],
									"patching_rect" : [ 39.0, 240.71122227112437, 276.0, 22.0 ],
									"text" : "crossfade 40, fade_in 20, fade_out 100, mode 0",
									"textcolor" : [ 0.34311780333519, 0.751492381095886, 0.998448610305786, 1.0 ]
								}

							}
, 							{
								"box" : 								{
									"id" : "obj-76",
									"maxclass" : "newobj",
									"numinlets" : 1,
									"numoutlets" : 0,
									"patching_rect" : [ 39.0, 269.98573468128825, 87.0, 22.0 ],
									"text" : "s sequencer_2"
								}

							}
, 							{
								"box" : 								{
									"comment" : "",
									"id" : "obj-32",
									"index" : 1,
									"maxclass" : "inlet",
									"numinlets" : 0,
									"numoutlets" : 1,
									"outlettype" : [ "bang" ],
									"patching_rect" : [ 39.0, 23.000001551611433, 31.166666666666657, 31.166666666666657 ]
								}

							}
 ],
						"lines" : [ 							{
								"patchline" : 								{
									"destination" : [ "obj-51", 0 ],
									"source" : [ "obj-2", 0 ]
								}

							}
, 							{
								"patchline" : 								{
									"destination" : [ "obj-76", 0 ],
									"source" : [ "obj-21", 0 ]
								}

							}
, 							{
								"patchline" : 								{
									"destination" : [ "obj-72", 0 ],
									"source" : [ "obj-32", 0 ]
								}

							}
, 							{
								"patchline" : 								{
									"destination" : [ "obj-116", 0 ],
									"source" : [ "obj-36", 0 ]
								}

							}
, 							{
								"patchline" : 								{
									"destination" : [ "obj-72", 0 ],
									"source" : [ "obj-6", 0 ]
								}

							}
, 							{
								"patchline" : 								{
									"destination" : [ "obj-2", 0 ],
									"source" : [ "obj-72", 1 ]
								}

							}
, 							{
								"patchline" : 								{
									"destination" : [ "obj-21", 0 ],
									"source" : [ "obj-72", 0 ]
								}

							}
, 							{
								"patchline" : 								{
									"destination" : [ "obj-36", 0 ],
									"source" : [ "obj-72", 2 ]
								}

							}
 ]
					}
,
					"patching_rect" : [ 913.5, 328.957398235272649, 103.0, 22.0 ],
					"saved_object_attributes" : 					{
						"description" : "",
						"digest" : "",
						"globalpatchername" : "",
						"tags" : ""
					}
,
					"text" : "p load_settings_2"
				}

			}
, 			{
				"box" : 				{
					"id" : "obj-82",
					"maxclass" : "message",
					"numinlets" : 2,
					"numoutlets" : 1,
					"outlettype" : [ "" ],
					"patching_rect" : [ 913.5, 205.0, 189.0, 22.0 ],
					"text" : "load Guitar_Caillou_Fox.wav"
				}

			}
, 			{
				"box" : 				{
					"id" : "obj-79",
					"maxclass" : "newobj",
					"numinlets" : 1,
					"numoutlets" : 2,
					"outlettype" : [ "bang", "" ],
					"patching_rect" : [ 573.5, 237.506990133306743, 55.0, 22.0 ],
					"text" : "t b l"
				}

			}
, 			{
				"box" : 				{
					"id" : "obj-78",
					"maxclass" : "newobj",
					"numinlets" : 0,
					"numoutlets" : 1,
					"outlettype" : [ "" ],
					"patching_rect" : [ 1203.5, 695.591096222400665, 113.0, 22.0 ],
					"text" : "r sequencer_3a"
				}

			}
, 			{
				"box" : 				{
					"id" : "obj-77",
					"maxclass" : "newobj",
					"numinlets" : 0,
					"numoutlets" : 1,
					"outlettype" : [ "" ],
					"patching_rect" : [ 854.5, 695.591096222400665, 85.0, 22.0 ],
					"text" : "r sequencer_3"
				}

			}
, 			{
				"box" : 				{
					"id" : "obj-76",
					"maxclass" : "newobj",
					"numinlets" : 0,
					"numoutlets" : 1,
					"outlettype" : [ "" ],
					"patching_rect" : [ 484.5, 693.0, 85.0, 22.0 ],
					"text" : "r sequencer_2"
				}

			}
, 			{
				"box" : 				{
					"id" : "obj-73",
					"maxclass" : "newobj",
					"numinlets" : 0,
					"numoutlets" : 1,
					"outlettype" : [ "" ],
					"patching_rect" : [ 177.5, 688.0, 85.0, 22.0 ],
					"text" : "r sequencer_1"
				}

			}
, 			{
				"box" : 				{
					"color" : [ 0.992156862745098, 0.635294117647059, 0.043137254901961, 1.0 ],
					"id" : "obj-68",
					"maxclass" : "newobj",
					"numinlets" : 1,
					"numoutlets" : 0,
					"patching_rect" : [ 1354.856622497326953, 297.957398235272649, 106.0, 22.0 ],
					"text" : "s Memory3aAgent"
				}

			}
, 			{
				"box" : 				{
					"id" : "obj-67",
					"maxclass" : "newobj",
					"numinlets" : 1,
					"numoutlets" : 0,
					"patcher" : 					{
						"fileversion" : 1,
						"appversion" : 						{
							"major" : 8,
							"minor" : 5,
							"revision" : 2,
							"architecture" : "x64",
							"modernui" : 1
						}
,
						"classnamespace" : "box",
						"rect" : [ 904.0, 443.0, 425.0, 315.0 ],
						"bglocked" : 0,
						"openinpresentation" : 0,
						"default_fontsize" : 12.0,
						"default_fontface" : 0,
						"default_fontname" : "Arial",
						"gridonopen" : 1,
						"gridsize" : [ 15.0, 15.0 ],
						"gridsnaponopen" : 1,
						"objectsnaponopen" : 1,
						"statusbarvisible" : 2,
						"toolbarvisible" : 1,
						"lefttoolbarpinned" : 0,
						"toptoolbarpinned" : 0,
						"righttoolbarpinned" : 0,
						"bottomtoolbarpinned" : 0,
						"toolbars_unpinned_last_save" : 0,
						"tallnewobj" : 0,
						"boxanimatetime" : 200,
						"enablehscroll" : 1,
						"enablevscroll" : 1,
						"devicewidth" : 0.0,
						"description" : "",
						"digest" : "",
						"tags" : "",
						"style" : "",
						"subpatcher_template" : "",
						"assistshowspatchername" : 0,
						"boxes" : [ 							{
								"box" : 								{
									"fontface" : 1,
									"id" : "obj-2",
									"maxclass" : "message",
									"numinlets" : 2,
									"numoutlets" : 1,
									"outlettype" : [ "" ],
									"patching_rect" : [ 59.666666666666671, 168.368084530035503, 330.0, 22.0 ],
									"text" : "mode 1, query_fill 50, query_chance 80, query_length 4",
									"textcolor" : [ 0.968896150588989, 0.489898085594177, 0.06115048378706, 1.0 ]
								}

							}
, 							{
								"box" : 								{
									"id" : "obj-51",
									"maxclass" : "newobj",
									"numinlets" : 1,
									"numoutlets" : 0,
									"patching_rect" : [ 59.666666666666671, 200.333333911674458, 116.0, 22.0 ],
									"text" : "s scenario_1"
								}

							}
, 							{
								"box" : 								{
									"id" : "obj-116",
									"maxclass" : "newobj",
									"numinlets" : 1,
									"numoutlets" : 0,
									"patching_rect" : [ 81.5, 139.868081192175396, 88.0, 22.0 ],
									"text" : "s identifier_1"
								}

							}
, 							{
								"box" : 								{
									"bgcolor" : [ 0.301961, 0.301961, 0.301961, 0.08 ],
									"bgcolor2" : [ 0.301961, 0.301961, 0.301961, 0.08 ],
									"bgfillcolor_angle" : 270.0,
									"bgfillcolor_autogradient" : 0.0,
									"bgfillcolor_color" : [ 0.2, 0.2, 0.2, 1.0 ],
									"bgfillcolor_color1" : [ 0.301961, 0.301961, 0.301961, 0.08 ],
									"bgfillcolor_color2" : [ 0.2, 0.2, 0.2, 1.0 ],
									"bgfillcolor_proportion" : 0.5,
									"bgfillcolor_type" : "color",
									"fontface" : 1,
									"gradient" : 1,
									"id" : "obj-36",
									"maxclass" : "message",
									"numinlets" : 2,
									"numoutlets" : 1,
									"outlettype" : [ "" ],
									"patching_rect" : [ 81.5, 109.186129100751941, 285.0, 22.0 ],
									"text" : "seg_descriptor Loudness, threshold -45, mode 0",
									"textcolor" : [ 0.34311780333519, 0.751492381095886, 0.998448610305786, 1.0 ]
								}

							}
, 							{
								"box" : 								{
									"id" : "obj-72",
									"maxclass" : "newobj",
									"numinlets" : 1,
									"numoutlets" : 3,
									"outlettype" : [ "bang", "bang", "bang" ],
									"patching_rect" : [ 39.0, 72.0, 61.5, 22.0 ],
									"text" : "b 3"
								}

							}
, 							{
								"box" : 								{
									"fontface" : 1,
									"id" : "obj-21",
									"maxclass" : "message",
									"numinlets" : 2,
									"numoutlets" : 1,
									"outlettype" : [ "" ],
									"patching_rect" : [ 39.0, 240.71122227112437, 276.0, 22.0 ],
									"text" : "crossfade 40, fade_in 20, fade_out 100, mode 0",
									"textcolor" : [ 0.34311780333519, 0.751492381095886, 0.998448610305786, 1.0 ]
								}

							}
, 							{
								"box" : 								{
									"id" : "obj-76",
									"maxclass" : "newobj",
									"numinlets" : 1,
									"numoutlets" : 0,
									"patching_rect" : [ 39.0, 269.98573468128825, 87.0, 22.0 ],
									"text" : "s sequencer_1"
								}

							}
, 							{
								"box" : 								{
									"comment" : "",
									"id" : "obj-32",
									"index" : 1,
									"maxclass" : "inlet",
									"numinlets" : 0,
									"numoutlets" : 1,
									"outlettype" : [ "bang" ],
									"patching_rect" : [ 39.0, 23.000001551611433, 31.166666666666657, 31.166666666666657 ]
								}

							}
 ],
						"lines" : [ 							{
								"patchline" : 								{
									"destination" : [ "obj-51", 0 ],
									"source" : [ "obj-2", 0 ]
								}

							}
, 							{
								"patchline" : 								{
									"destination" : [ "obj-76", 0 ],
									"source" : [ "obj-21", 0 ]
								}

							}
, 							{
								"patchline" : 								{
									"destination" : [ "obj-72", 0 ],
									"source" : [ "obj-32", 0 ]
								}

							}
, 							{
								"patchline" : 								{
									"destination" : [ "obj-116", 0 ],
									"source" : [ "obj-36", 0 ]
								}

							}
, 							{
								"patchline" : 								{
									"destination" : [ "obj-2", 0 ],
									"source" : [ "obj-72", 1 ]
								}

							}
, 							{
								"patchline" : 								{
									"destination" : [ "obj-21", 0 ],
									"source" : [ "obj-72", 0 ]
								}

							}
, 							{
								"patchline" : 								{
									"destination" : [ "obj-36", 0 ],
									"source" : [ "obj-72", 2 ]
								}

							}
 ]
					}
,
					"patching_rect" : [ 573.5, 328.957398235272649, 103.0, 22.0 ],
					"saved_object_attributes" : 					{
						"description" : "",
						"digest" : "",
						"globalpatchername" : "",
						"tags" : ""
					}
,
					"text" : "p load_settings_1"
				}

			}
, 			{
				"box" : 				{
					"id" : "obj-66",
					"maxclass" : "message",
					"numinlets" : 2,
					"numoutlets" : 1,
					"outlettype" : [ "" ],
					"patching_rect" : [ 573.5, 209.0, 189.0, 22.0 ],
					"text" : "load Doublebass_Perrot_Fox.wav"
				}

			}
, 			{
				"box" : 				{
					"id" : "obj-57",
					"maxclass" : "newobj",
					"numinlets" : 0,
					"numoutlets" : 1,
					"outlettype" : [ "" ],
					"patching_rect" : [ 1228.5, 586.333333911674458, 75.0, 22.0 ],
					"text" : "r scenario_4"
				}

			}
, 			{
				"box" : 				{
					"color" : [ 0.4, 0.8, 1.0, 1.0 ],
					"id" : "obj-58",
					"maxclass" : "newobj",
					"numinlets" : 2,
					"numoutlets" : 3,
					"outlettype" : [ "multichannelsignal", "", "" ],
					"patching_rect" : [ 1173.5, 728.007756859064102, 246.0, 22.0 ],
					"text" : "dicy2.easy_sequencer-renderer Memory3",
					"varname" : "dicy2.easy_sequencer-renderer[3]"
				}

			}
, 			{
				"box" : 				{
					"id" : "obj-59",
					"maxclass" : "newobj",
					"numinlets" : 1,
					"numoutlets" : 1,
					"outlettype" : [ "" ],
					"patching_rect" : [ 1173.5, 622.000002057441634, 179.0, 22.0 ],
					"text" : "dicy2.easy_scenario-maker",
					"varname" : "dicy2.easy_querygenerator[3]"
				}

			}
, 			{
				"box" : 				{
					"color" : [ 0.992156862745098, 0.635294117647059, 0.043137254901961, 1.0 ],
					"id" : "obj-61",
					"maxclass" : "newobj",
					"numinlets" : 1,
					"numoutlets" : 5,
					"outlettype" : [ "", "int", "", "", "" ],
					"patching_rect" : [ 1173.5, 660.591096222400665, 161.0, 22.0 ],
					"text" : "dicy2.agent Memory3aAgent"
				}

			}
, 			{
				"box" : 				{
					"color" : [ 0.992156862745098, 0.635294117647059, 0.043137254901961, 1.0 ],
					"id" : "obj-29",
					"maxclass" : "newobj",
					"numinlets" : 1,
					"numoutlets" : 0,
					"patching_rect" : [ 1246.856622497326953, 297.957398235272649, 99.0, 22.0 ],
					"text" : "s Memory3Agent"
				}

			}
, 			{
				"box" : 				{
					"id" : "obj-32",
					"maxclass" : "newobj",
					"numinlets" : 0,
					"numoutlets" : 1,
					"outlettype" : [ "" ],
					"patching_rect" : [ 854.5, 518.007763238418534, 75.0, 22.0 ],
					"text" : "r identifier_3"
				}

			}
, 			{
				"box" : 				{
					"id" : "obj-33",
					"maxclass" : "newobj",
					"numinlets" : 0,
					"numoutlets" : 1,
					"outlettype" : [ "" ],
					"patching_rect" : [ 880.5, 586.333333911674458, 75.0, 22.0 ],
					"text" : "r scenario_3"
				}

			}
, 			{
				"box" : 				{
					"color" : [ 0.4, 0.8, 1.0, 1.0 ],
					"id" : "obj-34",
					"maxclass" : "newobj",
					"numinlets" : 2,
					"numoutlets" : 3,
					"outlettype" : [ "multichannelsignal", "", "" ],
					"patching_rect" : [ 828.5, 728.007756859064102, 246.0, 22.0 ],
					"text" : "dicy2.easy_sequencer-renderer Memory3",
					"varname" : "dicy2.easy_sequencer-renderer[2]"
				}

			}
, 			{
				"box" : 				{
					"id" : "obj-35",
					"maxclass" : "newobj",
					"numinlets" : 1,
					"numoutlets" : 1,
					"outlettype" : [ "" ],
					"patching_rect" : [ 828.5, 622.000002057441634, 179.0, 22.0 ],
					"text" : "dicy2.easy_scenario-maker",
					"varname" : "dicy2.easy_querygenerator[2]"
				}

			}
, 			{
				"box" : 				{
					"color" : [ 0.4, 0.8, 1.0, 1.0 ],
					"fontname" : "Arial",
					"fontsize" : 12.0,
					"id" : "obj-36",
					"maxclass" : "newobj",
					"numinlets" : 1,
					"numoutlets" : 3,
					"outlettype" : [ "", "", "" ],
					"patching_rect" : [ 828.5, 553.0, 220.0, 22.0 ],
					"text" : "dicy2.easy_analyzer-identifier Memory3",
					"varname" : "dicy2.easy_analyzer-identifier[2]"
				}

			}
, 			{
				"box" : 				{
					"color" : [ 0.992156862745098, 0.635294117647059, 0.043137254901961, 1.0 ],
					"id" : "obj-37",
					"maxclass" : "newobj",
					"numinlets" : 1,
					"numoutlets" : 5,
					"outlettype" : [ "", "int", "", "", "" ],
					"patching_rect" : [ 828.5, 660.591096222400665, 159.0, 22.0 ],
					"text" : "dicy2.agent Memory3Agent"
				}

			}
, 			{
				"box" : 				{
					"color" : [ 0.4, 0.8, 1.0, 1.0 ],
					"id" : "obj-38",
					"maxclass" : "newobj",
					"numinlets" : 1,
					"numoutlets" : 2,
					"outlettype" : [ "clear", "int" ],
					"patching_rect" : [ 1246.856622497326953, 258.957398235272649, 159.0, 22.0 ],
					"text" : "dicy2.easy_loader Memory3"
				}

			}
, 			{
				"box" : 				{
					"color" : [ 0.992156862745098, 0.635294117647059, 0.043137254901961, 1.0 ],
					"id" : "obj-11",
					"maxclass" : "newobj",
					"numinlets" : 1,
					"numoutlets" : 0,
					"patching_rect" : [ 950.356622497326953, 293.0, 99.0, 22.0 ],
					"text" : "s Memory2Agent"
				}

			}
, 			{
				"box" : 				{
					"id" : "obj-15",
					"maxclass" : "newobj",
					"numinlets" : 0,
					"numoutlets" : 1,
					"outlettype" : [ "" ],
					"patching_rect" : [ 507.0, 518.007763238418534, 75.0, 22.0 ],
					"text" : "r identifier_2"
				}

			}
, 			{
				"box" : 				{
					"id" : "obj-18",
					"maxclass" : "newobj",
					"numinlets" : 0,
					"numoutlets" : 1,
					"outlettype" : [ "" ],
					"patching_rect" : [ 481.0, 586.333333911674458, 75.0, 22.0 ],
					"text" : "r scenario_2"
				}

			}
, 			{
				"box" : 				{
					"color" : [ 0.4, 0.8, 1.0, 1.0 ],
					"id" : "obj-19",
					"maxclass" : "newobj",
					"numinlets" : 2,
					"numoutlets" : 3,
					"outlettype" : [ "multichannelsignal", "", "" ],
					"patching_rect" : [ 452.5, 724.416660636663437, 246.0, 22.0 ],
					"text" : "dicy2.easy_sequencer-renderer Memory2",
					"varname" : "dicy2.easy_sequencer-renderer[1]"
				}

			}
, 			{
				"box" : 				{
					"id" : "obj-22",
					"maxclass" : "newobj",
					"numinlets" : 1,
					"numoutlets" : 1,
					"outlettype" : [ "" ],
					"patching_rect" : [ 455.0, 622.000002057441634, 179.0, 22.0 ],
					"text" : "dicy2.easy_scenario-maker",
					"varname" : "dicy2.easy_querygenerator[1]"
				}

			}
, 			{
				"box" : 				{
					"color" : [ 0.4, 0.8, 1.0, 1.0 ],
					"fontname" : "Arial",
					"fontsize" : 12.0,
					"id" : "obj-23",
					"maxclass" : "newobj",
					"numinlets" : 1,
					"numoutlets" : 3,
					"outlettype" : [ "", "", "" ],
					"patching_rect" : [ 455.0, 553.0, 220.0, 22.0 ],
					"text" : "dicy2.easy_analyzer-identifier Memory2",
					"varname" : "dicy2.easy_analyzer-identifier[1]"
				}

			}
, 			{
				"box" : 				{
					"color" : [ 0.992156862745098, 0.635294117647059, 0.043137254901961, 1.0 ],
					"id" : "obj-25",
					"maxclass" : "newobj",
					"numinlets" : 1,
					"numoutlets" : 5,
					"outlettype" : [ "", "int", "", "", "" ],
					"patching_rect" : [ 452.5, 662.0, 159.0, 22.0 ],
					"text" : "dicy2.agent Memory2Agent"
				}

			}
, 			{
				"box" : 				{
					"color" : [ 0.4, 0.8, 1.0, 1.0 ],
					"id" : "obj-26",
					"maxclass" : "newobj",
					"numinlets" : 1,
					"numoutlets" : 2,
					"outlettype" : [ "clear", "int" ],
					"patching_rect" : [ 949.5, 265.0, 159.0, 22.0 ],
					"text" : "dicy2.easy_loader Memory2"
				}

			}
, 			{
				"box" : 				{
					"color" : [ 0.992156862745098, 0.635294117647059, 0.043137254901961, 1.0 ],
					"id" : "obj-8",
					"maxclass" : "newobj",
					"numinlets" : 1,
					"numoutlets" : 0,
					"patching_rect" : [ 611.856622497326953, 299.0, 99.0, 22.0 ],
					"text" : "s Memory1Agent"
				}

			}
, 			{
				"box" : 				{
					"id" : "obj-62",
					"maxclass" : "newobj",
					"numinlets" : 0,
					"numoutlets" : 1,
					"outlettype" : [ "" ],
					"patching_rect" : [ 193.5, 518.007763238418534, 75.0, 22.0 ],
					"text" : "r identifier_1"
				}

			}
, 			{
				"box" : 				{
					"id" : "obj-51",
					"maxclass" : "newobj",
					"numinlets" : 0,
					"numoutlets" : 1,
					"outlettype" : [ "" ],
					"patching_rect" : [ 190.5, 586.333333911674458, 75.0, 22.0 ],
					"text" : "r scenario_1"
				}

			}
, 			{
				"box" : 				{
					"id" : "obj-31",
					"maxclass" : "newobj",
					"numinlets" : 2,
					"numoutlets" : 1,
					"outlettype" : [ "multichannelsignal" ],
					"patching_rect" : [ 65.5, 908.16666316986084, 154.0, 22.0 ],
					"text" : "mc.mixdown~ @autogain 1"
				}

			}
, 			{
				"box" : 				{
					"fontname" : "Arial",
					"fontsize" : 12.0,
					"id" : "obj-30",
					"maxclass" : "newobj",
					"numinlets" : 1,
					"numoutlets" : 0,
					"patching_rect" : [ 65.5, 933.29849678567507, 54.0, 22.0 ],
					"text" : "mc.dac~"
				}

			}
, 			{
				"box" : 				{
					"fontname" : "Arial",
					"fontsize" : 12.0,
					"id" : "obj-24",
					"lastchannelcount" : 1,
					"maxclass" : "mc.live.gain~",
					"numinlets" : 1,
					"numoutlets" : 4,
					"outlettype" : [ "multichannelsignal", "", "float", "list" ],
					"parameter_enable" : 1,
					"parameter_mappable" : 0,
					"patching_rect" : [ 65.5, 768.007756859064102, 68.0, 88.0 ],
					"saved_attribute_attributes" : 					{
						"valueof" : 						{
							"parameter_initial" : [ -11.356262733669311 ],
							"parameter_initial_enable" : 1,
							"parameter_linknames" : 1,
							"parameter_longname" : "output[2]",
							"parameter_mmax" : 6.0,
							"parameter_mmin" : -70.0,
							"parameter_shortname" : "Sax_guide",
							"parameter_type" : 0,
							"parameter_unitstyle" : 4
						}

					}
,
					"varname" : "output[2]"
				}

			}
, 			{
				"box" : 				{
					"color" : [ 0.4, 0.8, 1.0, 1.0 ],
					"id" : "obj-49",
					"maxclass" : "newobj",
					"numinlets" : 2,
					"numoutlets" : 3,
					"outlettype" : [ "multichannelsignal", "", "" ],
					"patching_rect" : [ 142.0, 716.416660636663437, 246.0, 22.0 ],
					"text" : "dicy2.easy_sequencer-renderer Memory1",
					"varname" : "dicy2.easy_sequencer-renderer"
				}

			}
, 			{
				"box" : 				{
					"id" : "obj-43",
					"maxclass" : "newobj",
					"numinlets" : 1,
					"numoutlets" : 1,
					"outlettype" : [ "" ],
					"patching_rect" : [ 141.5, 622.000002057441634, 179.0, 22.0 ],
					"text" : "dicy2.easy_scenario-maker",
					"varname" : "dicy2.easy_querygenerator"
				}

			}
, 			{
				"box" : 				{
					"color" : [ 0.4, 0.8, 1.0, 1.0 ],
					"fontname" : "Arial",
					"fontsize" : 12.0,
					"id" : "obj-42",
					"maxclass" : "newobj",
					"numinlets" : 1,
					"numoutlets" : 3,
					"outlettype" : [ "", "", "" ],
					"patching_rect" : [ 141.5, 553.0, 220.0, 22.0 ],
					"text" : "dicy2.easy_analyzer-identifier Memory1",
					"varname" : "dicy2.easy_analyzer-identifier"
				}

			}
, 			{
				"box" : 				{
					"id" : "obj-14",
					"maxclass" : "newobj",
					"numinlets" : 6,
					"numoutlets" : 1,
					"outlettype" : [ "multichannelsignal" ],
					"patching_rect" : [ 65.5, 876.16666316986084, 975.0, 22.0 ],
					"text" : "mc.combine~ 6"
				}

			}
, 			{
				"box" : 				{
					"fontname" : "Arial",
					"fontsize" : 12.0,
					"id" : "obj-7",
					"lastchannelcount" : 1,
					"maxclass" : "mc.live.gain~",
					"numinlets" : 1,
					"numoutlets" : 4,
					"outlettype" : [ "multichannelsignal", "", "float", "list" ],
					"parameter_enable" : 1,
					"parameter_mappable" : 0,
					"patching_rect" : [ 212.5, 772.007756859064102, 68.0, 84.0 ],
					"saved_attribute_attributes" : 					{
						"valueof" : 						{
							"parameter_initial" : [ -6 ],
							"parameter_initial_enable" : 1,
							"parameter_linknames" : 1,
							"parameter_longname" : "output",
							"parameter_mmax" : 6.0,
							"parameter_mmin" : -70.0,
							"parameter_shortname" : "bass",
							"parameter_type" : 0,
							"parameter_unitstyle" : 4
						}

					}
,
					"varname" : "output"
				}

			}
, 			{
				"box" : 				{
					"color" : [ 0.992156862745098, 0.635294117647059, 0.043137254901961, 1.0 ],
					"id" : "obj-5",
					"maxclass" : "newobj",
					"numinlets" : 1,
					"numoutlets" : 5,
					"outlettype" : [ "", "int", "", "", "" ],
					"patching_rect" : [ 141.5, 662.0, 159.0, 22.0 ],
					"text" : "dicy2.agent Memory1Agent"
				}

			}
, 			{
				"box" : 				{
					"color" : [ 0.4, 0.8, 1.0, 1.0 ],
					"id" : "obj-3",
					"maxclass" : "newobj",
					"numinlets" : 1,
					"numoutlets" : 2,
					"outlettype" : [ "clear", "int" ],
					"patching_rect" : [ 611.856622497326953, 265.0, 159.0, 22.0 ],
					"text" : "dicy2.easy_loader Memory1"
				}

			}
, 			{
				"box" : 				{
					"id" : "obj-47",
					"maxclass" : "newobj",
					"numinlets" : 1,
					"numoutlets" : 1,
					"outlettype" : [ "bang" ],
					"patching_rect" : [ 206.999999666666781, 150.750001192092896, 56.0, 22.0 ],
					"text" : "freebang"
				}

			}
, 			{
				"box" : 				{
					"id" : "obj-44",
					"maxclass" : "message",
					"numinlets" : 2,
					"numoutlets" : 1,
					"outlettype" : [ "" ],
					"patching_rect" : [ 206.999999666666781, 180.666673541069031, 29.5, 22.0 ],
					"text" : "exit"
				}

			}
, 			{
				"box" : 				{
					"id" : "obj-20",
					"local" : 1,
					"maxclass" : "ezdac~",
					"numinlets" : 2,
					"numoutlets" : 0,
					"patching_rect" : [ 63.629483527074399, 180.666673541069031, 58.66665995121005, 58.666659951210022 ]
				}

			}
, 			{
				"box" : 				{
					"id" : "obj-17",
					"maxclass" : "toggle",
					"numinlets" : 1,
					"numoutlets" : 1,
					"outlettype" : [ "int" ],
					"parameter_enable" : 0,
					"patching_rect" : [ 165.58772799999997, 244.499999284744263, 24.0, 24.0 ]
				}

			}
, 			{
				"box" : 				{
					"fontface" : 0,
					"id" : "obj-69",
					"maxclass" : "newobj",
					"numinlets" : 1,
					"numoutlets" : 0,
					"patcher" : 					{
						"fileversion" : 1,
						"appversion" : 						{
							"major" : 8,
							"minor" : 5,
							"revision" : 2,
							"architecture" : "x64",
							"modernui" : 1
						}
,
						"classnamespace" : "box",
						"rect" : [ 58.0, 106.0, 386.0, 238.0 ],
						"bglocked" : 0,
						"openinpresentation" : 0,
						"default_fontsize" : 12.0,
						"default_fontface" : 0,
						"default_fontname" : "Arial",
						"gridonopen" : 1,
						"gridsize" : [ 15.0, 15.0 ],
						"gridsnaponopen" : 1,
						"objectsnaponopen" : 1,
						"statusbarvisible" : 2,
						"toolbarvisible" : 1,
						"lefttoolbarpinned" : 0,
						"toptoolbarpinned" : 0,
						"righttoolbarpinned" : 0,
						"bottomtoolbarpinned" : 0,
						"toolbars_unpinned_last_save" : 0,
						"tallnewobj" : 0,
						"boxanimatetime" : 200,
						"enablehscroll" : 1,
						"enablevscroll" : 1,
						"devicewidth" : 0.0,
						"description" : "",
						"digest" : "",
						"tags" : "",
						"style" : "",
						"subpatcher_template" : "",
						"assistshowspatchername" : 0,
						"boxes" : [ 							{
								"box" : 								{
									"color" : [ 0.992156862745098, 0.635294117647059, 0.043137254901961, 1.0 ],
									"id" : "obj-2",
									"maxclass" : "newobj",
									"numinlets" : 1,
									"numoutlets" : 0,
									"patching_rect" : [ 90.5, 118.0, 106.0, 22.0 ],
									"text" : "s Memory3aAgent"
								}

							}
, 							{
								"box" : 								{
									"color" : [ 0.992156862745098, 0.635294117647059, 0.043137254901961, 1.0 ],
									"id" : "obj-1",
									"maxclass" : "newobj",
									"numinlets" : 1,
									"numoutlets" : 0,
									"patching_rect" : [ 67.5, 145.0, 99.0, 22.0 ],
									"text" : "s Memory3Agent"
								}

							}
, 							{
								"box" : 								{
									"color" : [ 0.992156862745098, 0.635294117647059, 0.043137254901961, 1.0 ],
									"id" : "obj-11",
									"maxclass" : "newobj",
									"numinlets" : 1,
									"numoutlets" : 0,
									"patching_rect" : [ 50.5, 171.0, 99.0, 22.0 ],
									"text" : "s Memory2Agent"
								}

							}
, 							{
								"box" : 								{
									"color" : [ 0.992156862745098, 0.635294117647059, 0.043137254901961, 1.0 ],
									"id" : "obj-29",
									"maxclass" : "newobj",
									"numinlets" : 1,
									"numoutlets" : 0,
									"patching_rect" : [ 20.0, 195.0, 99.0, 22.0 ],
									"text" : "s Memory1Agent"
								}

							}
, 							{
								"box" : 								{
									"id" : "obj-16",
									"maxclass" : "message",
									"numinlets" : 2,
									"numoutlets" : 1,
									"outlettype" : [ "" ],
									"patching_rect" : [ 20.0, 80.825570791959763, 51.0, 22.0 ],
									"text" : "initialize"
								}

							}
, 							{
								"box" : 								{
									"id" : "obj-9",
									"maxclass" : "newobj",
									"numinlets" : 1,
									"numoutlets" : 2,
									"outlettype" : [ "bang", "bang" ],
									"patching_rect" : [ 20.0, 47.5, 52.0, 22.0 ],
									"text" : "togedge"
								}

							}
, 							{
								"box" : 								{
									"comment" : "",
									"id" : "obj-68",
									"index" : 1,
									"maxclass" : "inlet",
									"numinlets" : 0,
									"numoutlets" : 1,
									"outlettype" : [ "int" ],
									"patching_rect" : [ 20.0, 10.999987584424957, 30.0, 30.0 ]
								}

							}
 ],
						"lines" : [ 							{
								"patchline" : 								{
									"destination" : [ "obj-1", 0 ],
									"order" : 1,
									"source" : [ "obj-16", 0 ]
								}

							}
, 							{
								"patchline" : 								{
									"destination" : [ "obj-11", 0 ],
									"order" : 2,
									"source" : [ "obj-16", 0 ]
								}

							}
, 							{
								"patchline" : 								{
									"destination" : [ "obj-2", 0 ],
									"order" : 0,
									"source" : [ "obj-16", 0 ]
								}

							}
, 							{
								"patchline" : 								{
									"destination" : [ "obj-29", 0 ],
									"order" : 3,
									"source" : [ "obj-16", 0 ]
								}

							}
, 							{
								"patchline" : 								{
									"destination" : [ "obj-9", 0 ],
									"source" : [ "obj-68", 0 ]
								}

							}
, 							{
								"patchline" : 								{
									"destination" : [ "obj-16", 0 ],
									"source" : [ "obj-9", 0 ]
								}

							}
 ]
					}
,
					"patching_rect" : [ 165.5, 273.999999284744263, 97.0, 22.0 ],
					"saved_object_attributes" : 					{
						"description" : "",
						"digest" : "",
						"globalpatchername" : "",
						"tags" : ""
					}
,
					"text" : "p launch_agents"
				}

			}
, 			{
				"box" : 				{
					"fontface" : 0,
					"id" : "obj-39",
					"maxclass" : "message",
					"numinlets" : 2,
					"numoutlets" : 1,
					"outlettype" : [ "" ],
					"patching_rect" : [ 139.499999666666781, 180.666673541069031, 51.0, 22.0 ],
					"text" : "initialize",
					"textcolor" : [ 0.992156862745098, 0.635294117647059, 0.043137254901961, 1.0 ]
				}

			}
, 			{
				"box" : 				{
					"color" : [ 1.0, 0.694117647058824, 0.0, 1.0 ],
					"fontsize" : 12.0,
					"id" : "obj-2",
					"maxclass" : "newobj",
					"numinlets" : 1,
					"numoutlets" : 4,
					"outlettype" : [ "", "int", "", "" ],
					"patching_rect" : [ 139.499999666666781, 217.333333492279053, 97.0, 22.0 ],
					"text" : "dicy2.server"
				}

			}
, 			{
				"box" : 				{
					"fontsize" : 16.0,
					"id" : "obj-48",
					"linecount" : 3,
					"maxclass" : "comment",
					"numinlets" : 1,
					"numoutlets" : 0,
					"patching_rect" : [ 16.0, 62.333333492279053, 1098.0, 60.0 ],
					"text" : "Dicy2 can support multiple simultaneous Agents. Each agent can be linked to its own memory, or multiple agents can be trained on the same one. In this example, we are using one guide source (sax) to drive both a double bass sequence and a guitar with very different scenario settings. The other pair of agents are both referencing the same Memory (a voice sequence), which is in turn driven by a different voice sequence.  "
				}

			}
, 			{
				"box" : 				{
					"background" : 1,
					"bgcolor" : [ 0.990445077419281, 0.502227902412415, 0.032891403883696, 1.0 ],
					"fontface" : 1,
					"hint" : "",
					"id" : "obj-27",
					"ignoreclick" : 1,
					"legacytextcolor" : 1,
					"maxclass" : "textbutton",
					"numinlets" : 1,
					"numoutlets" : 3,
					"outlettype" : [ "", "", "int" ],
					"parameter_enable" : 0,
					"patching_rect" : [ 288.999999666666781, 150.750001192092896, 21.0, 23.499997615814209 ],
					"rounded" : 60.0,
					"text" : "0",
					"textcolor" : [ 1.0, 0.988235294117647, 0.988235294117647, 1.0 ]
				}

			}
, 			{
				"box" : 				{
					"background" : 1,
					"bgcolor" : [ 0.990445077419281, 0.502227902412415, 0.032891403883696, 1.0 ],
					"fontface" : 1,
					"hint" : "",
					"id" : "obj-16",
					"ignoreclick" : 1,
					"legacytextcolor" : 1,
					"maxclass" : "textbutton",
					"numinlets" : 1,
					"numoutlets" : 3,
					"outlettype" : [ "", "", "int" ],
					"parameter_enable" : 0,
					"patching_rect" : [ 65.5, 419.0, 21.0, 23.499997615814209 ],
					"rounded" : 60.0,
					"text" : "2",
					"textcolor" : [ 1.0, 0.988235294117647, 0.988235294117647, 1.0 ]
				}

			}
, 			{
				"box" : 				{
					"background" : 1,
					"bgcolor" : [ 0.990445077419281, 0.502227902412415, 0.032891403883696, 1.0 ],
					"fontface" : 1,
					"hint" : "",
					"id" : "obj-91",
					"ignoreclick" : 1,
					"legacytextcolor" : 1,
					"maxclass" : "textbutton",
					"numinlets" : 1,
					"numoutlets" : 3,
					"outlettype" : [ "", "", "int" ],
					"parameter_enable" : 0,
					"patching_rect" : [ 1127.0, 418.250001192092896, 21.0, 23.499997615814209 ],
					"rounded" : 60.0,
					"text" : "4",
					"textcolor" : [ 1.0, 0.988235294117647, 0.988235294117647, 1.0 ]
				}

			}
, 			{
				"box" : 				{
					"background" : 1,
					"bgcolor" : [ 0.990445077419281, 0.502227902412415, 0.032891403883696, 1.0 ],
					"fontface" : 1,
					"hint" : "",
					"id" : "obj-12",
					"ignoreclick" : 1,
					"legacytextcolor" : 1,
					"maxclass" : "textbutton",
					"numinlets" : 1,
					"numoutlets" : 3,
					"outlettype" : [ "", "", "int" ],
					"parameter_enable" : 0,
					"patching_rect" : [ 624.356622497326953, 150.750001192092896, 21.0, 23.499997615814209 ],
					"rounded" : 60.0,
					"text" : "1",
					"textcolor" : [ 1.0, 0.988235294117647, 0.988235294117647, 1.0 ]
				}

			}
, 			{
				"box" : 				{
					"background" : 1,
					"bgcolor" : [ 0.990445077419281, 0.502227902412415, 0.032891403883696, 1.0 ],
					"fontface" : 1,
					"hint" : "",
					"id" : "obj-6",
					"ignoreclick" : 1,
					"legacytextcolor" : 1,
					"maxclass" : "textbutton",
					"numinlets" : 1,
					"numoutlets" : 3,
					"outlettype" : [ "", "", "int" ],
					"parameter_enable" : 0,
					"patching_rect" : [ 828.5, 419.0, 21.0, 23.499997615814209 ],
					"rounded" : 60.0,
					"text" : "3",
					"textcolor" : [ 1.0, 0.988235294117647, 0.988235294117647, 1.0 ]
				}

			}
, 			{
				"box" : 				{
					"background" : 1,
					"fontface" : 3,
					"fontname" : "Arial",
					"fontsize" : 36.0,
					"id" : "obj-21",
					"maxclass" : "comment",
					"numinlets" : 1,
					"numoutlets" : 0,
					"patching_rect" : [ 16.0, 12.0, 508.0, 47.0 ],
					"text" : "Working with multiple agents",
					"varname" : "HelpTitle"
				}

			}
 ],
		"lines" : [ 			{
				"patchline" : 				{
					"destination" : [ "obj-14", 2 ],
					"source" : [ "obj-105", 0 ]
				}

			}
, 			{
				"patchline" : 				{
					"destination" : [ "obj-14", 4 ],
					"source" : [ "obj-106", 0 ]
				}

			}
, 			{
				"patchline" : 				{
					"destination" : [ "obj-14", 5 ],
					"source" : [ "obj-107", 0 ]
				}

			}
, 			{
				"patchline" : 				{
					"destination" : [ "obj-14", 3 ],
					"source" : [ "obj-108", 0 ]
				}

			}
, 			{
				"patchline" : 				{
					"destination" : [ "obj-66", 0 ],
					"midpoints" : [ 583.856622497326953, 196.0, 583.0, 196.0 ],
					"order" : 2,
					"source" : [ "obj-113", 0 ]
				}

			}
, 			{
				"patchline" : 				{
					"destination" : [ "obj-82", 0 ],
					"midpoints" : [ 583.856622497326953, 190.0, 923.0, 190.0 ],
					"order" : 1,
					"source" : [ "obj-113", 0 ]
				}

			}
, 			{
				"patchline" : 				{
					"destination" : [ "obj-86", 0 ],
					"midpoints" : [ 583.856622497326953, 190.0, 1220.0, 190.0 ],
					"order" : 0,
					"source" : [ "obj-113", 0 ]
				}

			}
, 			{
				"patchline" : 				{
					"destination" : [ "obj-23", 0 ],
					"midpoints" : [ 75.0, 504.0, 464.5, 504.0 ],
					"order" : 0,
					"source" : [ "obj-124", 0 ]
				}

			}
, 			{
				"patchline" : 				{
					"destination" : [ "obj-24", 0 ],
					"order" : 2,
					"source" : [ "obj-124", 0 ]
				}

			}
, 			{
				"patchline" : 				{
					"destination" : [ "obj-42", 0 ],
					"order" : 1,
					"source" : [ "obj-124", 0 ]
				}

			}
, 			{
				"patchline" : 				{
					"destination" : [ "obj-31", 0 ],
					"source" : [ "obj-14", 0 ]
				}

			}
, 			{
				"patchline" : 				{
					"destination" : [ "obj-23", 0 ],
					"source" : [ "obj-15", 0 ]
				}

			}
, 			{
				"patchline" : 				{
					"destination" : [ "obj-69", 0 ],
					"source" : [ "obj-17", 0 ]
				}

			}
, 			{
				"patchline" : 				{
					"destination" : [ "obj-22", 0 ],
					"source" : [ "obj-18", 0 ]
				}

			}
, 			{
				"patchline" : 				{
					"destination" : [ "obj-105", 0 ],
					"source" : [ "obj-19", 0 ]
				}

			}
, 			{
				"patchline" : 				{
					"destination" : [ "obj-25", 0 ],
					"midpoints" : [ 689.0, 755.0, 709.5, 755.0, 709.5, 654.0, 462.0, 654.0 ],
					"source" : [ "obj-19", 2 ]
				}

			}
, 			{
				"patchline" : 				{
					"destination" : [ "obj-17", 0 ],
					"source" : [ "obj-2", 1 ]
				}

			}
, 			{
				"patchline" : 				{
					"destination" : [ "obj-25", 0 ],
					"source" : [ "obj-22", 0 ]
				}

			}
, 			{
				"patchline" : 				{
					"destination" : [ "obj-22", 0 ],
					"source" : [ "obj-23", 0 ]
				}

			}
, 			{
				"patchline" : 				{
					"destination" : [ "obj-14", 0 ],
					"source" : [ "obj-24", 0 ]
				}

			}
, 			{
				"patchline" : 				{
					"destination" : [ "obj-19", 0 ],
					"source" : [ "obj-25", 0 ]
				}

			}
, 			{
				"patchline" : 				{
					"destination" : [ "obj-11", 0 ],
					"source" : [ "obj-26", 0 ]
				}

			}
, 			{
				"patchline" : 				{
					"destination" : [ "obj-8", 0 ],
					"source" : [ "obj-3", 0 ]
				}

			}
, 			{
				"patchline" : 				{
					"destination" : [ "obj-30", 0 ],
					"source" : [ "obj-31", 0 ]
				}

			}
, 			{
				"patchline" : 				{
					"destination" : [ "obj-36", 0 ],
					"source" : [ "obj-32", 0 ]
				}

			}
, 			{
				"patchline" : 				{
					"destination" : [ "obj-35", 0 ],
					"source" : [ "obj-33", 0 ]
				}

			}
, 			{
				"patchline" : 				{
					"destination" : [ "obj-106", 0 ],
					"source" : [ "obj-34", 0 ]
				}

			}
, 			{
				"patchline" : 				{
					"destination" : [ "obj-37", 0 ],
					"midpoints" : [ 1065.0, 758.591096222400665, 1085.5, 758.591096222400665, 1085.5, 659.591096222400665, 838.0, 659.591096222400665 ],
					"source" : [ "obj-34", 2 ]
				}

			}
, 			{
				"patchline" : 				{
					"destination" : [ "obj-37", 0 ],
					"source" : [ "obj-35", 0 ]
				}

			}
, 			{
				"patchline" : 				{
					"destination" : [ "obj-35", 0 ],
					"order" : 1,
					"source" : [ "obj-36", 0 ]
				}

			}
, 			{
				"patchline" : 				{
					"destination" : [ "obj-59", 0 ],
					"midpoints" : [ 838.0, 581.091097251121482, 1183.0, 581.091097251121482 ],
					"order" : 0,
					"source" : [ "obj-36", 0 ]
				}

			}
, 			{
				"patchline" : 				{
					"destination" : [ "obj-34", 0 ],
					"source" : [ "obj-37", 0 ]
				}

			}
, 			{
				"patchline" : 				{
					"destination" : [ "obj-29", 0 ],
					"order" : 1,
					"source" : [ "obj-38", 0 ]
				}

			}
, 			{
				"patchline" : 				{
					"destination" : [ "obj-68", 0 ],
					"order" : 0,
					"source" : [ "obj-38", 0 ]
				}

			}
, 			{
				"patchline" : 				{
					"destination" : [ "obj-2", 0 ],
					"source" : [ "obj-39", 0 ]
				}

			}
, 			{
				"patchline" : 				{
					"destination" : [ "obj-43", 0 ],
					"source" : [ "obj-42", 0 ]
				}

			}
, 			{
				"patchline" : 				{
					"destination" : [ "obj-5", 0 ],
					"source" : [ "obj-43", 0 ]
				}

			}
, 			{
				"patchline" : 				{
					"destination" : [ "obj-2", 0 ],
					"source" : [ "obj-44", 0 ]
				}

			}
, 			{
				"patchline" : 				{
					"destination" : [ "obj-44", 0 ],
					"source" : [ "obj-47", 0 ]
				}

			}
, 			{
				"patchline" : 				{
					"destination" : [ "obj-5", 0 ],
					"midpoints" : [ 378.5, 728.0, 399.0, 728.0, 399.0, 650.0, 151.0, 650.0 ],
					"source" : [ "obj-49", 2 ]
				}

			}
, 			{
				"patchline" : 				{
					"destination" : [ "obj-7", 0 ],
					"source" : [ "obj-49", 0 ]
				}

			}
, 			{
				"patchline" : 				{
					"destination" : [ "obj-49", 0 ],
					"source" : [ "obj-5", 0 ]
				}

			}
, 			{
				"patchline" : 				{
					"destination" : [ "obj-43", 0 ],
					"source" : [ "obj-51", 0 ]
				}

			}
, 			{
				"patchline" : 				{
					"destination" : [ "obj-59", 0 ],
					"source" : [ "obj-57", 0 ]
				}

			}
, 			{
				"patchline" : 				{
					"destination" : [ "obj-107", 0 ],
					"source" : [ "obj-58", 0 ]
				}

			}
, 			{
				"patchline" : 				{
					"destination" : [ "obj-61", 0 ],
					"midpoints" : [ 1410.0, 758.591096222400665, 1436.5, 758.591096222400665, 1436.5, 657.591096222400665, 1183.0, 657.591096222400665 ],
					"source" : [ "obj-58", 2 ]
				}

			}
, 			{
				"patchline" : 				{
					"destination" : [ "obj-61", 0 ],
					"source" : [ "obj-59", 0 ]
				}

			}
, 			{
				"patchline" : 				{
					"destination" : [ "obj-58", 0 ],
					"source" : [ "obj-61", 0 ]
				}

			}
, 			{
				"patchline" : 				{
					"destination" : [ "obj-42", 0 ],
					"source" : [ "obj-62", 0 ]
				}

			}
, 			{
				"patchline" : 				{
					"destination" : [ "obj-79", 0 ],
					"source" : [ "obj-66", 0 ]
				}

			}
, 			{
				"patchline" : 				{
					"destination" : [ "obj-14", 1 ],
					"source" : [ "obj-7", 0 ]
				}

			}
, 			{
				"patchline" : 				{
					"destination" : [ "obj-49", 0 ],
					"source" : [ "obj-73", 0 ]
				}

			}
, 			{
				"patchline" : 				{
					"destination" : [ "obj-19", 0 ],
					"source" : [ "obj-76", 0 ]
				}

			}
, 			{
				"patchline" : 				{
					"destination" : [ "obj-34", 0 ],
					"source" : [ "obj-77", 0 ]
				}

			}
, 			{
				"patchline" : 				{
					"destination" : [ "obj-58", 0 ],
					"source" : [ "obj-78", 0 ]
				}

			}
, 			{
				"patchline" : 				{
					"destination" : [ "obj-3", 0 ],
					"source" : [ "obj-79", 1 ]
				}

			}
, 			{
				"patchline" : 				{
					"destination" : [ "obj-67", 0 ],
					"source" : [ "obj-79", 0 ]
				}

			}
, 			{
				"patchline" : 				{
					"destination" : [ "obj-26", 0 ],
					"source" : [ "obj-80", 1 ]
				}

			}
, 			{
				"patchline" : 				{
					"destination" : [ "obj-81", 0 ],
					"source" : [ "obj-80", 0 ]
				}

			}
, 			{
				"patchline" : 				{
					"destination" : [ "obj-80", 0 ],
					"source" : [ "obj-82", 0 ]
				}

			}
, 			{
				"patchline" : 				{
					"destination" : [ "obj-38", 0 ],
					"source" : [ "obj-84", 1 ]
				}

			}
, 			{
				"patchline" : 				{
					"destination" : [ "obj-85", 0 ],
					"source" : [ "obj-84", 0 ]
				}

			}
, 			{
				"patchline" : 				{
					"destination" : [ "obj-84", 0 ],
					"source" : [ "obj-86", 0 ]
				}

			}
, 			{
				"patchline" : 				{
					"destination" : [ "obj-108", 0 ],
					"midpoints" : [ 838.0, 517.0, 709.0, 517.0, 709.0, 757.0, 708.0, 757.0 ],
					"order" : 1,
					"source" : [ "obj-93", 0 ]
				}

			}
, 			{
				"patchline" : 				{
					"destination" : [ "obj-36", 0 ],
					"order" : 0,
					"source" : [ "obj-93", 0 ]
				}

			}
 ],
		"parameters" : 		{
			"obj-105" : [ "output[1]", "guitar", 0 ],
			"obj-106" : [ "output[3]", "vox reverse", 0 ],
			"obj-107" : [ "output[4]", "vox low", 0 ],
			"obj-108" : [ "output[5]", "Vox_guide", 0 ],
			"obj-24" : [ "output[2]", "Sax_guide", 0 ],
			"obj-7" : [ "output", "bass", 0 ],
			"parameterbanks" : 			{
				"0" : 				{
					"index" : 0,
					"name" : "",
					"parameters" : [ "-", "-", "-", "-", "-", "-", "-", "-" ]
				}

			}
,
			"inherited_shortname" : 1
		}
,
		"dependency_cache" : [ 			{
				"name" : "Fox_Sax_3.aif",
				"bootpath" : "~/Documents/Max 8/clients/IRCAM documentation/fork repository/dyci2_upi/media",
				"patcherrelativepath" : "../../media",
				"type" : "AIFF",
				"implicit" : 1
			}
, 			{
				"name" : "Nox3_LucidDreams.wav",
				"bootpath" : "~/Documents/Max 8/clients/IRCAM documentation/fork repository/dyci2_upi/media",
				"patcherrelativepath" : "../../media",
				"type" : "WAVE",
				"implicit" : 1
			}
, 			{
				"name" : "dicy2.agent.maxpat",
				"bootpath" : "~/Documents/Max 8/clients/IRCAM documentation/fork repository/dyci2_upi/patchers",
				"patcherrelativepath" : "../../patchers",
				"type" : "JSON",
				"implicit" : 1
			}
, 			{
				"name" : "dicy2.easy_analyzer-identifier.maxpat",
				"bootpath" : "~/Documents/Max 8/clients/IRCAM documentation/fork repository/dyci2_upi/patchers",
				"patcherrelativepath" : "../../patchers",
				"type" : "JSON",
				"implicit" : 1
			}
, 			{
				"name" : "dicy2.easy_loader.maxpat",
				"bootpath" : "~/Documents/Max 8/clients/IRCAM documentation/fork repository/dyci2_upi/patchers",
				"patcherrelativepath" : "../../patchers",
				"type" : "JSON",
				"implicit" : 1
			}
, 			{
				"name" : "dicy2.easy_scenario-maker.maxpat",
				"bootpath" : "~/Documents/Max 8/clients/IRCAM documentation/fork repository/dyci2_upi/patchers",
				"patcherrelativepath" : "../../patchers",
				"type" : "JSON",
				"implicit" : 1
			}
, 			{
				"name" : "dicy2.easy_sequencer-renderer.maxpat",
				"bootpath" : "~/Documents/Max 8/clients/IRCAM documentation/fork repository/dyci2_upi/patchers",
				"patcherrelativepath" : "../../patchers",
				"type" : "JSON",
				"implicit" : 1
			}
, 			{
				"name" : "dicy2.server.maxpat",
				"bootpath" : "~/Documents/Max 8/clients/IRCAM documentation/fork repository/dyci2_upi/patchers",
				"patcherrelativepath" : "../../patchers",
				"type" : "JSON",
				"implicit" : 1
			}
, 			{
				"name" : "mc.mubu.concat~.mxo",
				"type" : "iLaX"
			}
, 			{
				"name" : "mubu.gmm.mxo",
				"type" : "iLaX"
			}
, 			{
				"name" : "mubu.mxo",
				"type" : "iLaX"
			}
, 			{
				"name" : "mubu.track.mxo",
				"type" : "iLaX"
			}
, 			{
				"name" : "pipo.mxo",
				"type" : "iLaX"
			}
, 			{
				"name" : "pipo~.mxo",
				"type" : "iLaX"
			}
, 			{
				"name" : "spat5.file.infos.mxo",
				"type" : "iLaX"
			}
, 			{
				"name" : "thru.maxpat",
				"bootpath" : "C74:/patchers/m4l/Pluggo for Live resources/patches",
				"type" : "JSON",
				"implicit" : 1
			}
 ],
		"autosave" : 0
	}

}
