{
	"patcher" : 	{
		"fileversion" : 1,
		"appversion" : 		{
			"major" : 8,
			"minor" : 1,
			"revision" : 7,
			"architecture" : "x64",
			"modernui" : 1
		}
,
		"classnamespace" : "box",
		"rect" : [ -970.0, 93.0, 509.0, 196.0 ],
		"bglocked" : 0,
		"openinpresentation" : 0,
		"default_fontsize" : 12.0,
		"default_fontface" : 0,
		"default_fontname" : "Arial",
		"gridonopen" : 1,
		"gridsize" : [ 15.0, 15.0 ],
		"gridsnaponopen" : 1,
		"objectsnaponopen" : 1,
		"statusbarvisible" : 2,
		"toolbarvisible" : 1,
		"lefttoolbarpinned" : 0,
		"toptoolbarpinned" : 0,
		"righttoolbarpinned" : 0,
		"bottomtoolbarpinned" : 0,
		"toolbars_unpinned_last_save" : 0,
		"tallnewobj" : 0,
		"boxanimatetime" : 200,
		"enablehscroll" : 1,
		"enablevscroll" : 1,
		"devicewidth" : 0.0,
		"description" : "",
		"digest" : "",
		"tags" : "",
		"style" : "",
		"subpatcher_template" : "",
		"assistshowspatchername" : 0,
		"boxes" : [ 			{
				"box" : 				{
					"id" : "obj-13",
					"maxclass" : "newobj",
					"numinlets" : 0,
					"numoutlets" : 0,
					"patching_rect" : [ 350.000893000000019, 117.700622000000067, 129.0, 22.0 ],
					"text" : "DYCI2_agent.maxhelp"
				}

			}
, 			{
				"box" : 				{
					"fontsize" : 12.0,
					"id" : "obj-12",
					"maxclass" : "comment",
					"numinlets" : 1,
					"numoutlets" : 0,
					"patching_rect" : [ 313.000191000000029, 118.700622000000067, 35.00070199999999, 20.0 ],
					"text" : "See:",
					"textcolor" : [ 0.030047, 0.249895, 0.411943, 1.0 ]
				}

			}
, 			{
				"box" : 				{
					"fontsize" : 12.0,
					"id" : "obj-22",
					"maxclass" : "comment",
					"numinlets" : 1,
					"numoutlets" : 0,
					"patching_rect" : [ 2.000191000000044, 53.683777000000077, 453.00070199999999, 20.0 ],
					"text" : "Arguments = Name_of_the_time_management_preset",
					"textcolor" : [ 0.030047, 0.249895, 0.411943, 1.0 ]
				}

			}
, 			{
				"box" : 				{
					"args" : [ "Memory_from_input" ],
					"bgmode" : 0,
					"border" : 0,
					"clickthrough" : 0,
					"embed" : 1,
					"enablehscroll" : 0,
					"enablevscroll" : 0,
					"id" : "obj-11",
					"lockeddragscroll" : 0,
					"maxclass" : "bpatcher",
					"name" : "DYCI2_agent_preset.maxpat",
					"numinlets" : 1,
					"numoutlets" : 2,
					"offset" : [ 0.0, 0.0 ],
					"outlettype" : [ "", "bang" ],
					"patcher" : 					{
						"fileversion" : 1,
						"appversion" : 						{
							"major" : 8,
							"minor" : 1,
							"revision" : 7,
							"architecture" : "x64",
							"modernui" : 1
						}
,
						"classnamespace" : "box",
						"rect" : [ -1268.0, 164.0, 968.0, 815.0 ],
						"bglocked" : 0,
						"openinpresentation" : 1,
						"default_fontsize" : 12.0,
						"default_fontface" : 0,
						"default_fontname" : "Arial",
						"gridonopen" : 1,
						"gridsize" : [ 15.0, 15.0 ],
						"gridsnaponopen" : 1,
						"objectsnaponopen" : 1,
						"statusbarvisible" : 2,
						"toolbarvisible" : 1,
						"lefttoolbarpinned" : 0,
						"toptoolbarpinned" : 0,
						"righttoolbarpinned" : 0,
						"bottomtoolbarpinned" : 0,
						"toolbars_unpinned_last_save" : 0,
						"tallnewobj" : 0,
						"boxanimatetime" : 200,
						"enablehscroll" : 1,
						"enablevscroll" : 1,
						"devicewidth" : 0.0,
						"description" : "",
						"digest" : "",
						"tags" : "",
						"style" : "",
						"subpatcher_template" : "",
						"assistshowspatchername" : 0,
						"boxes" : [ 							{
								"box" : 								{
									"annotation" : "Bang when loaded",
									"comment" : "Bang when loaded",
									"hint" : "Bang when loaded",
									"id" : "obj-3",
									"index" : 2,
									"maxclass" : "outlet",
									"numinlets" : 1,
									"numoutlets" : 0,
									"patching_rect" : [ 135.5, 255.0, 30.0, 30.0 ]
								}

							}
, 							{
								"box" : 								{
									"id" : "obj-5",
									"maxclass" : "message",
									"numinlets" : 2,
									"numoutlets" : 1,
									"outlettype" : [ "" ],
									"patching_rect" : [ 222.0, 154.0, 43.0, 22.0 ],
									"text" : "set $1"
								}

							}
, 							{
								"box" : 								{
									"fontface" : 2,
									"id" : "obj-4",
									"maxclass" : "comment",
									"numinlets" : 1,
									"numoutlets" : 0,
									"patching_rect" : [ 222.0, 186.0, 150.0, 20.0 ],
									"presentation" : 1,
									"presentation_rect" : [ -1.0, 17.0, 146.0, 20.0 ],
									"text" : "Memory_from_input"
								}

							}
, 							{
								"box" : 								{
									"id" : "obj-1",
									"linecount" : 3,
									"maxclass" : "newobj",
									"numinlets" : 1,
									"numoutlets" : 1,
									"outlettype" : [ "" ],
									"patching_rect" : [ 222.0, 122.0, 92.0, 49.0 ],
									"text" : "loadmess #1"
								}

							}
, 							{
								"box" : 								{
									"annotation" : "Bang to load preset",
									"comment" : "Bang to load preset",
									"hint" : "Bang to load preset",
									"id" : "obj-118",
									"index" : 1,
									"maxclass" : "inlet",
									"numinlets" : 0,
									"numoutlets" : 1,
									"outlettype" : [ "" ],
									"patching_rect" : [ 12.5, 78.0, 30.0, 30.0 ]
								}

							}
, 							{
								"box" : 								{
									"id" : "obj-117",
									"maxclass" : "comment",
									"numinlets" : 1,
									"numoutlets" : 0,
									"patching_rect" : [ 10.0, 49.0, 310.0, 20.0 ],
									"presentation" : 1,
									"presentation_rect" : [ 121.0, 66.0, 222.0, 20.0 ],
									"text" : "(Must be embedded in the pacher)"
								}

							}
, 							{
								"box" : 								{
									"bgcolor" : [ 0.890246, 0.66949, 0.2834, 1.0 ],
									"id" : "obj-116",
									"maxclass" : "button",
									"numinlets" : 1,
									"numoutlets" : 1,
									"outlettype" : [ "bang" ],
									"parameter_enable" : 0,
									"patching_rect" : [ 12.5, 120.0, 24.0, 24.0 ],
									"presentation" : 1,
									"presentation_rect" : [ 7.0, 53.0, 24.0, 24.0 ]
								}

							}
, 							{
								"box" : 								{
									"id" : "obj-24",
									"maxclass" : "comment",
									"numinlets" : 1,
									"numoutlets" : 0,
									"patching_rect" : [ 45.349730999999998, 122.0, 38.0, 20.0 ],
									"presentation" : 1,
									"presentation_rect" : [ 35.0, 55.0, 73.0, 20.0 ],
									"text" : "Load"
								}

							}
, 							{
								"box" : 								{
									"id" : "obj-114",
									"maxclass" : "newobj",
									"numinlets" : 1,
									"numoutlets" : 2,
									"outlettype" : [ "", "bang" ],
									"patcher" : 									{
										"fileversion" : 1,
										"appversion" : 										{
											"major" : 8,
											"minor" : 1,
											"revision" : 7,
											"architecture" : "x64",
											"modernui" : 1
										}
,
										"classnamespace" : "box",
										"rect" : [ 200.0, 133.0, 210.0, 198.0 ],
										"bglocked" : 0,
										"openinpresentation" : 1,
										"default_fontsize" : 12.0,
										"default_fontface" : 0,
										"default_fontname" : "Arial",
										"gridonopen" : 1,
										"gridsize" : [ 15.0, 15.0 ],
										"gridsnaponopen" : 1,
										"objectsnaponopen" : 1,
										"statusbarvisible" : 2,
										"toolbarvisible" : 1,
										"lefttoolbarpinned" : 0,
										"toptoolbarpinned" : 0,
										"righttoolbarpinned" : 0,
										"bottomtoolbarpinned" : 0,
										"toolbars_unpinned_last_save" : 0,
										"tallnewobj" : 0,
										"boxanimatetime" : 200,
										"enablehscroll" : 1,
										"enablevscroll" : 1,
										"devicewidth" : 0.0,
										"description" : "",
										"digest" : "",
										"tags" : "",
										"style" : "",
										"subpatcher_template" : "",
										"assistshowspatchername" : 0,
										"boxes" : [ 											{
												"box" : 												{
													"id" : "obj-10",
													"maxclass" : "newobj",
													"numinlets" : 2,
													"numoutlets" : 1,
													"outlettype" : [ "bang" ],
													"patching_rect" : [ 128.0, 353.0, 63.0, 22.0 ],
													"text" : "delay 200"
												}

											}
, 											{
												"box" : 												{
													"comment" : "",
													"id" : "obj-2",
													"index" : 2,
													"maxclass" : "outlet",
													"numinlets" : 1,
													"numoutlets" : 0,
													"patching_rect" : [ 128.0, 387.0, 30.0, 30.0 ]
												}

											}
, 											{
												"box" : 												{
													"id" : "obj-9",
													"maxclass" : "message",
													"numinlets" : 2,
													"numoutlets" : 1,
													"outlettype" : [ "" ],
													"patching_rect" : [ 354.75, 224.0, 48.5, 22.0 ],
													"presentation" : 1,
													"presentation_rect" : [ 151.0, 152.0, 29.5, 22.0 ],
													"text" : "-1"
												}

											}
, 											{
												"box" : 												{
													"id" : "obj-8",
													"maxclass" : "message",
													"numinlets" : 2,
													"numoutlets" : 1,
													"outlettype" : [ "" ],
													"patching_rect" : [ 297.75, 224.0, 48.5, 22.0 ],
													"presentation" : 1,
													"presentation_rect" : [ 151.0, 128.0, 29.5, 22.0 ],
													"text" : "-1"
												}

											}
, 											{
												"box" : 												{
													"id" : "obj-7",
													"maxclass" : "message",
													"numinlets" : 2,
													"numoutlets" : 1,
													"outlettype" : [ "" ],
													"patching_rect" : [ 239.75, 224.0, 48.5, 22.0 ],
													"presentation" : 1,
													"presentation_rect" : [ 151.0, 104.0, 29.5, 22.0 ],
													"text" : "-1"
												}

											}
, 											{
												"box" : 												{
													"id" : "obj-6",
													"maxclass" : "message",
													"numinlets" : 2,
													"numoutlets" : 1,
													"outlettype" : [ "" ],
													"patching_rect" : [ 179.75, 224.0, 48.5, 22.0 ],
													"presentation" : 1,
													"presentation_rect" : [ 151.0, 80.0, 31.0, 22.0 ],
													"text" : "100"
												}

											}
, 											{
												"box" : 												{
													"id" : "obj-5",
													"maxclass" : "message",
													"numinlets" : 2,
													"numoutlets" : 1,
													"outlettype" : [ "" ],
													"patching_rect" : [ 118.75, 224.0, 48.5, 22.0 ],
													"presentation" : 1,
													"presentation_rect" : [ 151.0, 56.0, 29.5, 22.0 ],
													"text" : "0"
												}

											}
, 											{
												"box" : 												{
													"id" : "obj-4",
													"maxclass" : "message",
													"numinlets" : 2,
													"numoutlets" : 1,
													"outlettype" : [ "" ],
													"patching_rect" : [ 57.25, 224.0, 48.5, 22.0 ],
													"presentation" : 1,
													"presentation_rect" : [ 151.0, 31.0, 29.5, 22.0 ],
													"text" : "0"
												}

											}
, 											{
												"box" : 												{
													"id" : "obj-1",
													"maxclass" : "comment",
													"numinlets" : 1,
													"numoutlets" : 0,
													"patching_rect" : [ 417.5, 25.0, 136.0, 20.0 ],
													"presentation" : 1,
													"presentation_rect" : [ 6.5, 31.0, 140.0, 20.0 ],
													"text" : "delta transformation"
												}

											}
, 											{
												"box" : 												{
													"id" : "obj-3",
													"maxclass" : "comment",
													"numinlets" : 1,
													"numoutlets" : 0,
													"patching_rect" : [ 103.0, 6.0, 154.0, 20.0 ],
													"presentation" : 1,
													"presentation_rect" : [ 6.5, 5.0, 193.5, 20.0 ],
													"text" : "CONTROL PARAMETERS"
												}

											}
, 											{
												"box" : 												{
													"id" : "obj-117",
													"maxclass" : "comment",
													"numinlets" : 1,
													"numoutlets" : 0,
													"patching_rect" : [ 417.5, 152.0, 82.0, 20.0 ],
													"presentation" : 1,
													"presentation_rect" : [ 6.5, 152.0, 140.0, 20.0 ],
													"text" : "none"
												}

											}
, 											{
												"box" : 												{
													"id" : "obj-107",
													"maxclass" : "comment",
													"numinlets" : 1,
													"numoutlets" : 0,
													"patching_rect" : [ 417.5, 127.0, 82.0, 20.0 ],
													"presentation" : 1,
													"presentation_rect" : [ 6.5, 128.0, 140.0, 20.0 ],
													"text" : "none"
												}

											}
, 											{
												"box" : 												{
													"id" : "obj-95",
													"maxclass" : "comment",
													"numinlets" : 1,
													"numoutlets" : 0,
													"patching_rect" : [ 417.5, 102.0, 82.0, 20.0 ],
													"presentation" : 1,
													"presentation_rect" : [ 6.5, 104.0, 140.0, 20.0 ],
													"text" : "none"
												}

											}
, 											{
												"box" : 												{
													"id" : "obj-85",
													"maxclass" : "comment",
													"numinlets" : 1,
													"numoutlets" : 0,
													"patching_rect" : [ 417.5, 78.0, 90.0, 20.0 ],
													"presentation" : 1,
													"presentation_rect" : [ 6.5, 79.0, 140.0, 20.0 ],
													"text" : "max_continuity"
												}

											}
, 											{
												"box" : 												{
													"id" : "obj-58",
													"maxclass" : "comment",
													"numinlets" : 1,
													"numoutlets" : 0,
													"patching_rect" : [ 417.5, 50.0, 136.0, 20.0 ],
													"presentation" : 1,
													"presentation_rect" : [ 6.5, 56.0, 140.0, 20.0 ],
													"text" : "avoid_repetitions_mode"
												}

											}
, 											{
												"box" : 												{
													"id" : "obj-106",
													"maxclass" : "newobj",
													"numinlets" : 2,
													"numoutlets" : 1,
													"outlettype" : [ "bang" ],
													"patching_rect" : [ 50.0, 100.0, 69.0, 22.0 ],
													"text" : "delay 1000"
												}

											}
, 											{
												"box" : 												{
													"id" : "obj-104",
													"maxclass" : "newobj",
													"numinlets" : 1,
													"numoutlets" : 6,
													"outlettype" : [ "bang", "bang", "bang", "bang", "bang", "bang" ],
													"patching_rect" : [ 50.0, 138.0, 74.0, 22.0 ],
													"text" : "t b b b b b b"
												}

											}
, 											{
												"box" : 												{
													"id" : "obj-87",
													"maxclass" : "newobj",
													"numinlets" : 6,
													"numoutlets" : 1,
													"outlettype" : [ "" ],
													"patcher" : 													{
														"fileversion" : 1,
														"appversion" : 														{
															"major" : 8,
															"minor" : 1,
															"revision" : 7,
															"architecture" : "x64",
															"modernui" : 1
														}
,
														"classnamespace" : "box",
														"rect" : [ 737.0, 210.0, 640.0, 480.0 ],
														"bglocked" : 0,
														"openinpresentation" : 0,
														"default_fontsize" : 12.0,
														"default_fontface" : 0,
														"default_fontname" : "Arial",
														"gridonopen" : 1,
														"gridsize" : [ 15.0, 15.0 ],
														"gridsnaponopen" : 1,
														"objectsnaponopen" : 1,
														"statusbarvisible" : 2,
														"toolbarvisible" : 1,
														"lefttoolbarpinned" : 0,
														"toptoolbarpinned" : 0,
														"righttoolbarpinned" : 0,
														"bottomtoolbarpinned" : 0,
														"toolbars_unpinned_last_save" : 0,
														"tallnewobj" : 0,
														"boxanimatetime" : 200,
														"enablehscroll" : 1,
														"enablevscroll" : 1,
														"devicewidth" : 0.0,
														"description" : "",
														"digest" : "",
														"tags" : "",
														"style" : "",
														"subpatcher_template" : "",
														"assistshowspatchername" : 0,
														"boxes" : [ 															{
																"box" : 																{
																	"id" : "obj-2",
																	"maxclass" : "message",
																	"numinlets" : 2,
																	"numoutlets" : 1,
																	"outlettype" : [ "" ],
																	"patching_rect" : [ 240.0, 253.0, 50.0, 22.0 ],
																	"text" : "0 0"
																}

															}
, 															{
																"box" : 																{
																	"id" : "obj-75",
																	"maxclass" : "newobj",
																	"numinlets" : 6,
																	"numoutlets" : 1,
																	"outlettype" : [ "list" ],
																	"patching_rect" : [ 50.0, 100.0, 71.5, 22.0 ],
																	"text" : "funnel 6"
																}

															}
, 															{
																"box" : 																{
																	"id" : "obj-66",
																	"maxclass" : "newobj",
																	"numinlets" : 1,
																	"numoutlets" : 1,
																	"outlettype" : [ "" ],
																	"patching_rect" : [ 50.0, 141.0, 91.0, 22.0 ],
																	"text" : "prepend preset"
																}

															}
, 															{
																"box" : 																{
																	"id" : "obj-15",
																	"maxclass" : "newobj",
																	"numinlets" : 1,
																	"numoutlets" : 1,
																	"outlettype" : [ "" ],
																	"patching_rect" : [ 50.0, 195.0, 155.0, 22.0 ],
																	"text" : "prepend controlparameters"
																}

															}
, 															{
																"box" : 																{
																	"comment" : "",
																	"id" : "obj-79",
																	"index" : 1,
																	"maxclass" : "inlet",
																	"numinlets" : 0,
																	"numoutlets" : 1,
																	"outlettype" : [ "" ],
																	"patching_rect" : [ 50.0, 40.0, 30.0, 30.0 ]
																}

															}
, 															{
																"box" : 																{
																	"comment" : "",
																	"id" : "obj-80",
																	"index" : 2,
																	"maxclass" : "inlet",
																	"numinlets" : 0,
																	"numoutlets" : 1,
																	"outlettype" : [ "" ],
																	"patching_rect" : [ 85.0, 40.0, 30.0, 30.0 ]
																}

															}
, 															{
																"box" : 																{
																	"comment" : "",
																	"id" : "obj-81",
																	"index" : 3,
																	"maxclass" : "inlet",
																	"numinlets" : 0,
																	"numoutlets" : 1,
																	"outlettype" : [ "" ],
																	"patching_rect" : [ 120.0, 40.0, 30.0, 30.0 ]
																}

															}
, 															{
																"box" : 																{
																	"comment" : "",
																	"id" : "obj-82",
																	"index" : 4,
																	"maxclass" : "inlet",
																	"numinlets" : 0,
																	"numoutlets" : 1,
																	"outlettype" : [ "" ],
																	"patching_rect" : [ 155.0, 40.0, 30.0, 30.0 ]
																}

															}
, 															{
																"box" : 																{
																	"comment" : "",
																	"id" : "obj-83",
																	"index" : 5,
																	"maxclass" : "inlet",
																	"numinlets" : 0,
																	"numoutlets" : 1,
																	"outlettype" : [ "" ],
																	"patching_rect" : [ 190.0, 40.0, 30.0, 30.0 ]
																}

															}
, 															{
																"box" : 																{
																	"comment" : "",
																	"id" : "obj-84",
																	"index" : 6,
																	"maxclass" : "inlet",
																	"numinlets" : 0,
																	"numoutlets" : 1,
																	"outlettype" : [ "" ],
																	"patching_rect" : [ 225.0, 40.0, 30.0, 30.0 ]
																}

															}
, 															{
																"box" : 																{
																	"comment" : "",
																	"id" : "obj-85",
																	"index" : 1,
																	"maxclass" : "outlet",
																	"numinlets" : 1,
																	"numoutlets" : 0,
																	"patching_rect" : [ 50.0, 277.0, 30.0, 30.0 ]
																}

															}
 ],
														"lines" : [ 															{
																"patchline" : 																{
																	"destination" : [ "obj-85", 0 ],
																	"source" : [ "obj-15", 0 ]
																}

															}
, 															{
																"patchline" : 																{
																	"destination" : [ "obj-15", 0 ],
																	"source" : [ "obj-66", 0 ]
																}

															}
, 															{
																"patchline" : 																{
																	"destination" : [ "obj-2", 1 ],
																	"order" : 0,
																	"source" : [ "obj-75", 0 ]
																}

															}
, 															{
																"patchline" : 																{
																	"destination" : [ "obj-66", 0 ],
																	"order" : 1,
																	"source" : [ "obj-75", 0 ]
																}

															}
, 															{
																"patchline" : 																{
																	"destination" : [ "obj-75", 0 ],
																	"source" : [ "obj-79", 0 ]
																}

															}
, 															{
																"patchline" : 																{
																	"destination" : [ "obj-75", 1 ],
																	"source" : [ "obj-80", 0 ]
																}

															}
, 															{
																"patchline" : 																{
																	"destination" : [ "obj-75", 2 ],
																	"source" : [ "obj-81", 0 ]
																}

															}
, 															{
																"patchline" : 																{
																	"destination" : [ "obj-75", 3 ],
																	"source" : [ "obj-82", 0 ]
																}

															}
, 															{
																"patchline" : 																{
																	"destination" : [ "obj-75", 4 ],
																	"source" : [ "obj-83", 0 ]
																}

															}
, 															{
																"patchline" : 																{
																	"destination" : [ "obj-75", 5 ],
																	"source" : [ "obj-84", 0 ]
																}

															}
 ]
													}
,
													"patching_rect" : [ 57.25, 310.0, 164.0, 22.0 ],
													"saved_object_attributes" : 													{
														"description" : "",
														"digest" : "",
														"globalpatchername" : "",
														"tags" : ""
													}
,
													"text" : "p preset_control_parameters"
												}

											}
, 											{
												"box" : 												{
													"comment" : "",
													"id" : "obj-111",
													"index" : 1,
													"maxclass" : "inlet",
													"numinlets" : 0,
													"numoutlets" : 1,
													"outlettype" : [ "bang" ],
													"patching_rect" : [ 50.0, 40.0, 30.0, 30.0 ]
												}

											}
, 											{
												"box" : 												{
													"comment" : "",
													"id" : "obj-113",
													"index" : 1,
													"maxclass" : "outlet",
													"numinlets" : 1,
													"numoutlets" : 0,
													"patching_rect" : [ 57.25, 387.0, 30.0, 30.0 ]
												}

											}
 ],
										"lines" : [ 											{
												"patchline" : 												{
													"destination" : [ "obj-2", 0 ],
													"source" : [ "obj-10", 0 ]
												}

											}
, 											{
												"patchline" : 												{
													"destination" : [ "obj-10", 0 ],
													"order" : 0,
													"source" : [ "obj-104", 0 ]
												}

											}
, 											{
												"patchline" : 												{
													"destination" : [ "obj-4", 0 ],
													"order" : 1,
													"source" : [ "obj-104", 0 ]
												}

											}
, 											{
												"patchline" : 												{
													"destination" : [ "obj-5", 0 ],
													"source" : [ "obj-104", 1 ]
												}

											}
, 											{
												"patchline" : 												{
													"destination" : [ "obj-6", 0 ],
													"source" : [ "obj-104", 2 ]
												}

											}
, 											{
												"patchline" : 												{
													"destination" : [ "obj-7", 0 ],
													"source" : [ "obj-104", 3 ]
												}

											}
, 											{
												"patchline" : 												{
													"destination" : [ "obj-8", 0 ],
													"source" : [ "obj-104", 4 ]
												}

											}
, 											{
												"patchline" : 												{
													"destination" : [ "obj-9", 0 ],
													"source" : [ "obj-104", 5 ]
												}

											}
, 											{
												"patchline" : 												{
													"destination" : [ "obj-104", 0 ],
													"source" : [ "obj-106", 0 ]
												}

											}
, 											{
												"patchline" : 												{
													"destination" : [ "obj-106", 0 ],
													"source" : [ "obj-111", 0 ]
												}

											}
, 											{
												"patchline" : 												{
													"destination" : [ "obj-87", 0 ],
													"source" : [ "obj-4", 0 ]
												}

											}
, 											{
												"patchline" : 												{
													"destination" : [ "obj-87", 1 ],
													"source" : [ "obj-5", 0 ]
												}

											}
, 											{
												"patchline" : 												{
													"destination" : [ "obj-87", 2 ],
													"source" : [ "obj-6", 0 ]
												}

											}
, 											{
												"patchline" : 												{
													"destination" : [ "obj-87", 3 ],
													"source" : [ "obj-7", 0 ]
												}

											}
, 											{
												"patchline" : 												{
													"destination" : [ "obj-87", 4 ],
													"source" : [ "obj-8", 0 ]
												}

											}
, 											{
												"patchline" : 												{
													"destination" : [ "obj-113", 0 ],
													"source" : [ "obj-87", 0 ]
												}

											}
, 											{
												"patchline" : 												{
													"destination" : [ "obj-87", 5 ],
													"source" : [ "obj-9", 0 ]
												}

											}
 ]
									}
,
									"patching_rect" : [ 12.5, 205.0, 142.0, 22.0 ],
									"presentation" : 1,
									"presentation_rect" : [ 147.5, 41.0, 142.0, 22.0 ],
									"saved_object_attributes" : 									{
										"description" : "",
										"digest" : "",
										"globalpatchername" : "",
										"tags" : ""
									}
,
									"text" : "p edit-parameters-preset"
								}

							}
, 							{
								"box" : 								{
									"id" : "obj-110",
									"maxclass" : "newobj",
									"numinlets" : 1,
									"numoutlets" : 2,
									"outlettype" : [ "bang", "" ],
									"patcher" : 									{
										"fileversion" : 1,
										"appversion" : 										{
											"major" : 8,
											"minor" : 1,
											"revision" : 7,
											"architecture" : "x64",
											"modernui" : 1
										}
,
										"classnamespace" : "box",
										"rect" : [ 34.0, 79.0, 226.0, 267.0 ],
										"bglocked" : 0,
										"openinpresentation" : 1,
										"default_fontsize" : 12.0,
										"default_fontface" : 0,
										"default_fontname" : "Arial",
										"gridonopen" : 1,
										"gridsize" : [ 15.0, 15.0 ],
										"gridsnaponopen" : 1,
										"objectsnaponopen" : 1,
										"statusbarvisible" : 2,
										"toolbarvisible" : 1,
										"lefttoolbarpinned" : 0,
										"toptoolbarpinned" : 0,
										"righttoolbarpinned" : 0,
										"bottomtoolbarpinned" : 0,
										"toolbars_unpinned_last_save" : 0,
										"tallnewobj" : 0,
										"boxanimatetime" : 200,
										"enablehscroll" : 1,
										"enablevscroll" : 1,
										"devicewidth" : 0.0,
										"description" : "",
										"digest" : "",
										"tags" : "",
										"style" : "",
										"subpatcher_template" : "",
										"assistshowspatchername" : 0,
										"boxes" : [ 											{
												"box" : 												{
													"id" : "obj-2",
													"maxclass" : "newobj",
													"numinlets" : 1,
													"numoutlets" : 1,
													"outlettype" : [ "bang" ],
													"patching_rect" : [ 59.0, 136.0, 60.0, 22.0 ],
													"text" : "loadbang"
												}

											}
, 											{
												"box" : 												{
													"id" : "obj-9",
													"maxclass" : "message",
													"numinlets" : 2,
													"numoutlets" : 1,
													"outlettype" : [ "" ],
													"patching_rect" : [ 158.0, 131.0, 50.0, 22.0 ],
													"text" : "0"
												}

											}
, 											{
												"box" : 												{
													"id" : "obj-7",
													"maxclass" : "toggle",
													"numinlets" : 1,
													"numoutlets" : 1,
													"outlettype" : [ "int" ],
													"parameter_enable" : 0,
													"patching_rect" : [ 218.449463000000009, 210.0, 24.0, 24.0 ]
												}

											}
, 											{
												"box" : 												{
													"id" : "obj-3",
													"linecount" : 3,
													"maxclass" : "message",
													"numinlets" : 2,
													"numoutlets" : 1,
													"outlettype" : [ "" ],
													"patching_rect" : [ 496.0, 465.0, 50.0, 49.0 ],
													"text" : "/Volumes/notfound/"
												}

											}
, 											{
												"box" : 												{
													"disabled" : [ 0, 0 ],
													"id" : "obj-60",
													"itemtype" : 0,
													"maxclass" : "radiogroup",
													"numinlets" : 1,
													"numoutlets" : 1,
													"outlettype" : [ "" ],
													"parameter_enable" : 0,
													"patching_rect" : [ 218.449463000000009, 44.0, 18.0, 34.0 ],
													"presentation" : 1,
													"presentation_rect" : [ 4.0, 24.5, 18.0, 34.0 ],
													"size" : 2,
													"value" : 0
												}

											}
, 											{
												"box" : 												{
													"id" : "obj-26",
													"maxclass" : "message",
													"numinlets" : 2,
													"numoutlets" : 1,
													"outlettype" : [ "" ],
													"patching_rect" : [ 353.94946299999998, 160.0, 29.5, 22.0 ],
													"text" : "set"
												}

											}
, 											{
												"box" : 												{
													"id" : "obj-24",
													"maxclass" : "message",
													"numinlets" : 2,
													"numoutlets" : 1,
													"outlettype" : [ "" ],
													"patching_rect" : [ 335.94946299999998, 131.0, 115.0, 22.0 ],
													"text" : "_ExamplesCorpus_"
												}

											}
, 											{
												"box" : 												{
													"id" : "obj-16",
													"maxclass" : "message",
													"numinlets" : 2,
													"numoutlets" : 1,
													"outlettype" : [ "" ],
													"patching_rect" : [ 247.949463000000009, 131.0, 74.0, 22.0 ],
													"text" : "[from_input]"
												}

											}
, 											{
												"box" : 												{
													"id" : "obj-10",
													"maxclass" : "newobj",
													"numinlets" : 2,
													"numoutlets" : 2,
													"outlettype" : [ "", "" ],
													"patching_rect" : [ 247.949463000000009, 100.0, 48.0, 22.0 ],
													"text" : "route 0"
												}

											}
, 											{
												"box" : 												{
													"id" : "obj-6",
													"maxclass" : "comment",
													"numinlets" : 1,
													"numoutlets" : 0,
													"patching_rect" : [ 238.449463000000009, 43.0, 121.0, 20.0 ],
													"presentation" : 1,
													"presentation_rect" : [ 23.0, 23.5, 121.0, 20.0 ],
													"text" : "input"
												}

											}
, 											{
												"box" : 												{
													"id" : "obj-5",
													"linecount" : 2,
													"maxclass" : "comment",
													"numinlets" : 1,
													"numoutlets" : 0,
													"patching_rect" : [ 237.449463000000009, 61.0, 121.0, 33.0 ],
													"presentation" : 1,
													"presentation_rect" : [ 22.0, 40.5, 143.0, 20.0 ],
													"text" : "loaded annotation file"
												}

											}
, 											{
												"box" : 												{
													"id" : "obj-4",
													"maxclass" : "comment",
													"numinlets" : 1,
													"numoutlets" : 0,
													"patching_rect" : [ 218.449463000000009, 19.0, 121.0, 20.0 ],
													"presentation" : 1,
													"presentation_rect" : [ 4.0, 5.0, 121.0, 20.0 ],
													"text" : "Memory labels from"
												}

											}
, 											{
												"box" : 												{
													"id" : "obj-58",
													"maxclass" : "newobj",
													"numinlets" : 1,
													"numoutlets" : 2,
													"outlettype" : [ "", "int" ],
													"patching_rect" : [ 244.949463000000009, 333.600006000000008, 130.0, 22.0 ],
													"text" : "conformpath max boot"
												}

											}
, 											{
												"box" : 												{
													"id" : "obj-1",
													"maxclass" : "newobj",
													"numinlets" : 1,
													"numoutlets" : 1,
													"outlettype" : [ "" ],
													"patching_rect" : [ 244.949463000000009, 307.0, 79.0, 22.0 ],
													"text" : "absolutepath"
												}

											}
, 											{
												"box" : 												{
													"id" : "obj-105",
													"maxclass" : "newobj",
													"numinlets" : 2,
													"numoutlets" : 1,
													"outlettype" : [ "bang" ],
													"patching_rect" : [ 480.19946299999998, 120.0, 63.0, 22.0 ],
													"text" : "delay 100"
												}

											}
, 											{
												"box" : 												{
													"id" : "obj-91",
													"maxclass" : "newobj",
													"numinlets" : 1,
													"numoutlets" : 7,
													"outlettype" : [ "bang", "bang", "bang", "bang", "bang", "bang", "bang" ],
													"patching_rect" : [ 480.19946299999998, 153.0, 84.0, 22.0 ],
													"text" : "t b b b b b b b"
												}

											}
, 											{
												"box" : 												{
													"id" : "obj-70",
													"maxclass" : "comment",
													"numinlets" : 1,
													"numoutlets" : 0,
													"patching_rect" : [ 665.199463000000037, 245.0, 121.0, 20.0 ],
													"presentation" : 1,
													"presentation_rect" : [ 3.266674, 215.0, 121.0, 20.0 ],
													"text" : "Content key"
												}

											}
, 											{
												"box" : 												{
													"id" : "obj-69",
													"maxclass" : "comment",
													"numinlets" : 1,
													"numoutlets" : 0,
													"patching_rect" : [ 513.199463000000037, 245.0, 121.0, 20.0 ],
													"presentation" : 1,
													"presentation_rect" : [ 3.266674, 175.0, 121.0, 20.0 ],
													"text" : "Label key"
												}

											}
, 											{
												"box" : 												{
													"id" : "obj-68",
													"maxclass" : "comment",
													"numinlets" : 1,
													"numoutlets" : 0,
													"patching_rect" : [ 363.986938000000009, 245.0, 121.0, 20.0 ],
													"presentation" : 1,
													"presentation_rect" : [ 3.266674, 131.0, 121.0, 20.0 ],
													"text" : "Name file"
												}

											}
, 											{
												"box" : 												{
													"id" : "obj-67",
													"linecount" : 2,
													"maxclass" : "comment",
													"numinlets" : 1,
													"numoutlets" : 0,
													"patching_rect" : [ -2.550537, 263.5, 239.0, 33.0 ],
													"presentation" : 1,
													"presentation_linecount" : 2,
													"presentation_rect" : [ 1.533352, 63.0, 294.0, 33.0 ],
													"text" : "Path corpus \n(absolute path or \"_ExamplesCorpus_\")"
												}

											}
, 											{
												"box" : 												{
													"id" : "obj-55",
													"maxclass" : "newobj",
													"numinlets" : 6,
													"numoutlets" : 1,
													"outlettype" : [ "" ],
													"patcher" : 													{
														"fileversion" : 1,
														"appversion" : 														{
															"major" : 8,
															"minor" : 1,
															"revision" : 7,
															"architecture" : "x64",
															"modernui" : 1
														}
,
														"classnamespace" : "box",
														"rect" : [ 919.0, 163.0, 727.0, 601.0 ],
														"bglocked" : 0,
														"openinpresentation" : 0,
														"default_fontsize" : 12.0,
														"default_fontface" : 0,
														"default_fontname" : "Arial",
														"gridonopen" : 1,
														"gridsize" : [ 15.0, 15.0 ],
														"gridsnaponopen" : 1,
														"objectsnaponopen" : 1,
														"statusbarvisible" : 2,
														"toolbarvisible" : 1,
														"lefttoolbarpinned" : 0,
														"toptoolbarpinned" : 0,
														"righttoolbarpinned" : 0,
														"bottomtoolbarpinned" : 0,
														"toolbars_unpinned_last_save" : 0,
														"tallnewobj" : 0,
														"boxanimatetime" : 200,
														"enablehscroll" : 1,
														"enablevscroll" : 1,
														"devicewidth" : 0.0,
														"description" : "",
														"digest" : "",
														"tags" : "",
														"style" : "",
														"subpatcher_template" : "",
														"assistshowspatchername" : 0,
														"boxes" : [ 															{
																"box" : 																{
																	"id" : "obj-7",
																	"linecount" : 12,
																	"maxclass" : "message",
																	"numinlets" : 2,
																	"numoutlets" : 1,
																	"outlettype" : [ "" ],
																	"patching_rect" : [ 95.0, 244.0, 50.0, 169.0 ],
																	"text" : "/Users/nika/Documents/Git/DYCI2_library/Max_library/_Tutorials_/_ExamplesCorpus_"
																}

															}
, 															{
																"box" : 																{
																	"id" : "obj-9",
																	"maxclass" : "newobj",
																	"numinlets" : 1,
																	"numoutlets" : 1,
																	"outlettype" : [ "" ],
																	"patching_rect" : [ 10.0, 441.0, 115.0, 22.0 ],
																	"text" : "prepend from_input"
																}

															}
, 															{
																"box" : 																{
																	"id" : "obj-8",
																	"maxclass" : "toggle",
																	"numinlets" : 1,
																	"numoutlets" : 1,
																	"outlettype" : [ "int" ],
																	"parameter_enable" : 0,
																	"patching_rect" : [ 10.0, 357.0, 24.0, 24.0 ]
																}

															}
, 															{
																"box" : 																{
																	"id" : "obj-6",
																	"maxclass" : "gswitch2",
																	"numinlets" : 2,
																	"numoutlets" : 2,
																	"outlettype" : [ "", "" ],
																	"parameter_enable" : 0,
																	"patching_rect" : [ 10.0, 393.0, 39.0, 32.0 ]
																}

															}
, 															{
																"box" : 																{
																	"id" : "obj-5",
																	"maxclass" : "newobj",
																	"numinlets" : 1,
																	"numoutlets" : 1,
																	"outlettype" : [ "" ],
																	"patching_rect" : [ 68.5, 496.0, 128.0, 22.0 ],
																	"text" : "prepend loadmemory"
																}

															}
, 															{
																"box" : 																{
																	"id" : "obj-4",
																	"maxclass" : "newobj",
																	"numinlets" : 2,
																	"numoutlets" : 1,
																	"outlettype" : [ "" ],
																	"patching_rect" : [ 242.450011999999987, 53.0, 34.0, 22.0 ],
																	"text" : "gate"
																}

															}
, 															{
																"box" : 																{
																	"id" : "obj-3",
																	"maxclass" : "newobj",
																	"numinlets" : 2,
																	"numoutlets" : 1,
																	"outlettype" : [ "" ],
																	"patching_rect" : [ 148.5, 48.0, 34.0, 22.0 ],
																	"text" : "gate"
																}

															}
, 															{
																"box" : 																{
																	"comment" : "",
																	"id" : "obj-1",
																	"index" : 1,
																	"maxclass" : "inlet",
																	"numinlets" : 0,
																	"numoutlets" : 1,
																	"outlettype" : [ "int" ],
																	"patching_rect" : [ 4.0, 5.0, 30.0, 30.0 ]
																}

															}
, 															{
																"box" : 																{
																	"id" : "obj-48",
																	"maxclass" : "newobj",
																	"numinlets" : 1,
																	"numoutlets" : 1,
																	"outlettype" : [ "" ],
																	"patching_rect" : [ 318.150023999999974, 330.0, 97.0, 22.0 ],
																	"text" : "prepend pathfile"
																}

															}
, 															{
																"box" : 																{
																	"id" : "obj-44",
																	"maxclass" : "newobj",
																	"numinlets" : 1,
																	"numoutlets" : 2,
																	"outlettype" : [ "bang", "" ],
																	"patching_rect" : [ 313.75, 100.0, 33.0, 22.0 ],
																	"text" : "t b s"
																}

															}
, 															{
																"box" : 																{
																	"id" : "obj-43",
																	"linecount" : 3,
																	"maxclass" : "message",
																	"numinlets" : 2,
																	"numoutlets" : 1,
																	"outlettype" : [ "" ],
																	"patching_rect" : [ 318.150023999999974, 257.0, 220.0, 49.0 ],
																	"text" : "/Users/nika/Documents/Git/DYCI2_library/Max_library/_Tutorials_/_ExamplesCorpus_"
																}

															}
, 															{
																"box" : 																{
																	"id" : "obj-41",
																	"maxclass" : "newobj",
																	"numinlets" : 2,
																	"numoutlets" : 1,
																	"outlettype" : [ "" ],
																	"patching_rect" : [ 318.150023999999974, 298.0, 83.0, 22.0 ],
																	"text" : "sprintf %s/%s"
																}

															}
, 															{
																"box" : 																{
																	"id" : "obj-30",
																	"maxclass" : "newobj",
																	"numinlets" : 1,
																	"numoutlets" : 1,
																	"outlettype" : [ "" ],
																	"patching_rect" : [ 631.15002400000003, 53.0, 81.0, 22.0 ],
																	"text" : "prepend load"
																}

															}
, 															{
																"box" : 																{
																	"id" : "obj-27",
																	"maxclass" : "newobj",
																	"numinlets" : 1,
																	"numoutlets" : 1,
																	"outlettype" : [ "" ],
																	"patching_rect" : [ 502.150023999999974, 53.0, 116.0, 22.0 ],
																	"text" : "prepend contentkey"
																}

															}
, 															{
																"box" : 																{
																	"id" : "obj-26",
																	"maxclass" : "newobj",
																	"numinlets" : 1,
																	"numoutlets" : 1,
																	"outlettype" : [ "" ],
																	"patching_rect" : [ 371.150023999999974, 53.0, 114.0, 22.0 ],
																	"text" : "prepend labelkey"
																}

															}
, 															{
																"box" : 																{
																	"id" : "obj-24",
																	"maxclass" : "newobj",
																	"numinlets" : 1,
																	"numoutlets" : 1,
																	"outlettype" : [ "" ],
																	"patching_rect" : [ 187.150024000000002, 100.0, 103.0, 22.0 ],
																	"text" : "prepend namefile"
																}

															}
, 															{
																"box" : 																{
																	"id" : "obj-23",
																	"maxclass" : "newobj",
																	"numinlets" : 1,
																	"numoutlets" : 1,
																	"outlettype" : [ "" ],
																	"patching_rect" : [ 50.0, 100.0, 127.0, 22.0 ],
																	"text" : "prepend pathdirectory"
																}

															}
, 															{
																"box" : 																{
																	"comment" : "",
																	"id" : "obj-49",
																	"index" : 2,
																	"maxclass" : "inlet",
																	"numinlets" : 0,
																	"numoutlets" : 1,
																	"outlettype" : [ "" ],
																	"patching_rect" : [ 163.5, 5.0, 30.0, 30.0 ]
																}

															}
, 															{
																"box" : 																{
																	"comment" : "",
																	"id" : "obj-50",
																	"index" : 3,
																	"maxclass" : "inlet",
																	"numinlets" : 0,
																	"numoutlets" : 1,
																	"outlettype" : [ "" ],
																	"patching_rect" : [ 257.450012000000015, 11.0, 30.0, 30.0 ]
																}

															}
, 															{
																"box" : 																{
																	"comment" : "",
																	"id" : "obj-51",
																	"index" : 4,
																	"maxclass" : "inlet",
																	"numinlets" : 0,
																	"numoutlets" : 1,
																	"outlettype" : [ "" ],
																	"patching_rect" : [ 371.150023999999974, 9.0, 30.0, 30.0 ]
																}

															}
, 															{
																"box" : 																{
																	"comment" : "",
																	"id" : "obj-52",
																	"index" : 5,
																	"maxclass" : "inlet",
																	"numinlets" : 0,
																	"numoutlets" : 1,
																	"outlettype" : [ "" ],
																	"patching_rect" : [ 502.150023999999974, 13.0, 30.0, 30.0 ]
																}

															}
, 															{
																"box" : 																{
																	"comment" : "",
																	"id" : "obj-53",
																	"index" : 6,
																	"maxclass" : "inlet",
																	"numinlets" : 0,
																	"numoutlets" : 1,
																	"outlettype" : [ "bang" ],
																	"patching_rect" : [ 631.15002400000003, 5.0, 30.0, 30.0 ]
																}

															}
, 															{
																"box" : 																{
																	"comment" : "",
																	"id" : "obj-54",
																	"index" : 1,
																	"maxclass" : "outlet",
																	"numinlets" : 1,
																	"numoutlets" : 0,
																	"patching_rect" : [ 68.5, 541.0, 30.0, 30.0 ]
																}

															}
 ],
														"lines" : [ 															{
																"patchline" : 																{
																	"destination" : [ "obj-3", 0 ],
																	"order" : 1,
																	"source" : [ "obj-1", 0 ]
																}

															}
, 															{
																"patchline" : 																{
																	"destination" : [ "obj-4", 0 ],
																	"order" : 0,
																	"source" : [ "obj-1", 0 ]
																}

															}
, 															{
																"patchline" : 																{
																	"destination" : [ "obj-8", 0 ],
																	"order" : 2,
																	"source" : [ "obj-1", 0 ]
																}

															}
, 															{
																"patchline" : 																{
																	"destination" : [ "obj-6", 1 ],
																	"source" : [ "obj-23", 0 ]
																}

															}
, 															{
																"patchline" : 																{
																	"destination" : [ "obj-6", 1 ],
																	"source" : [ "obj-24", 0 ]
																}

															}
, 															{
																"patchline" : 																{
																	"destination" : [ "obj-6", 1 ],
																	"source" : [ "obj-26", 0 ]
																}

															}
, 															{
																"patchline" : 																{
																	"destination" : [ "obj-6", 1 ],
																	"source" : [ "obj-27", 0 ]
																}

															}
, 															{
																"patchline" : 																{
																	"destination" : [ "obj-23", 0 ],
																	"order" : 2,
																	"source" : [ "obj-3", 0 ]
																}

															}
, 															{
																"patchline" : 																{
																	"destination" : [ "obj-43", 1 ],
																	"order" : 0,
																	"source" : [ "obj-3", 0 ]
																}

															}
, 															{
																"patchline" : 																{
																	"destination" : [ "obj-7", 1 ],
																	"order" : 1,
																	"source" : [ "obj-3", 0 ]
																}

															}
, 															{
																"patchline" : 																{
																	"destination" : [ "obj-6", 1 ],
																	"source" : [ "obj-30", 0 ]
																}

															}
, 															{
																"patchline" : 																{
																	"destination" : [ "obj-24", 0 ],
																	"order" : 1,
																	"source" : [ "obj-4", 0 ]
																}

															}
, 															{
																"patchline" : 																{
																	"destination" : [ "obj-44", 0 ],
																	"order" : 0,
																	"source" : [ "obj-4", 0 ]
																}

															}
, 															{
																"patchline" : 																{
																	"destination" : [ "obj-48", 0 ],
																	"source" : [ "obj-41", 0 ]
																}

															}
, 															{
																"patchline" : 																{
																	"destination" : [ "obj-41", 0 ],
																	"source" : [ "obj-43", 0 ]
																}

															}
, 															{
																"patchline" : 																{
																	"destination" : [ "obj-41", 1 ],
																	"source" : [ "obj-44", 1 ]
																}

															}
, 															{
																"patchline" : 																{
																	"destination" : [ "obj-43", 0 ],
																	"source" : [ "obj-44", 0 ]
																}

															}
, 															{
																"patchline" : 																{
																	"destination" : [ "obj-6", 1 ],
																	"source" : [ "obj-48", 0 ]
																}

															}
, 															{
																"patchline" : 																{
																	"destination" : [ "obj-3", 1 ],
																	"source" : [ "obj-49", 0 ]
																}

															}
, 															{
																"patchline" : 																{
																	"destination" : [ "obj-54", 0 ],
																	"source" : [ "obj-5", 0 ]
																}

															}
, 															{
																"patchline" : 																{
																	"destination" : [ "obj-4", 1 ],
																	"source" : [ "obj-50", 0 ]
																}

															}
, 															{
																"patchline" : 																{
																	"destination" : [ "obj-26", 0 ],
																	"source" : [ "obj-51", 0 ]
																}

															}
, 															{
																"patchline" : 																{
																	"destination" : [ "obj-27", 0 ],
																	"source" : [ "obj-52", 0 ]
																}

															}
, 															{
																"patchline" : 																{
																	"destination" : [ "obj-30", 0 ],
																	"source" : [ "obj-53", 0 ]
																}

															}
, 															{
																"patchline" : 																{
																	"destination" : [ "obj-5", 0 ],
																	"source" : [ "obj-6", 1 ]
																}

															}
, 															{
																"patchline" : 																{
																	"destination" : [ "obj-9", 0 ],
																	"source" : [ "obj-6", 0 ]
																}

															}
, 															{
																"patchline" : 																{
																	"destination" : [ "obj-6", 0 ],
																	"source" : [ "obj-8", 0 ]
																}

															}
, 															{
																"patchline" : 																{
																	"destination" : [ "obj-5", 0 ],
																	"source" : [ "obj-9", 0 ]
																}

															}
 ]
													}
,
													"patching_rect" : [ 222.149460000000005, 387.0, 133.0, 22.0 ],
													"saved_object_attributes" : 													{
														"description" : "",
														"digest" : "",
														"globalpatchername" : "",
														"tags" : ""
													}
,
													"text" : "p preset_load_memory"
												}

											}
, 											{
												"box" : 												{
													"id" : "obj-32",
													"maxclass" : "button",
													"numinlets" : 1,
													"numoutlets" : 1,
													"outlettype" : [ "bang" ],
													"parameter_enable" : 0,
													"patching_rect" : [ 829.449463000000037, 249.5, 24.0, 24.0 ]
												}

											}
, 											{
												"box" : 												{
													"bgcolor" : [ 0.119861, 0.322888, 0.474787, 1.0 ],
													"bgcolor2" : [ 0.119861, 0.322888, 0.474787, 1.0 ],
													"bgfillcolor_angle" : 270.0,
													"bgfillcolor_autogradient" : 0.0,
													"bgfillcolor_color" : [ 0.290196, 0.309804, 0.301961, 1.0 ],
													"bgfillcolor_color1" : [ 0.119861, 0.322888, 0.474787, 1.0 ],
													"bgfillcolor_color2" : [ 0.119861, 0.322888, 0.474787, 1.0 ],
													"bgfillcolor_proportion" : 0.39,
													"bgfillcolor_type" : "gradient",
													"fontsize" : 9.0,
													"gradient" : 1,
													"id" : "obj-29",
													"maxclass" : "message",
													"numinlets" : 2,
													"numoutlets" : 1,
													"outlettype" : [ "" ],
													"patching_rect" : [ 661.274536000000012, 270.5, 30.0, 19.0 ],
													"presentation" : 1,
													"presentation_rect" : [ 3.266674, 235.0, 211.0, 19.0 ],
													"text" : "state"
												}

											}
, 											{
												"box" : 												{
													"bgcolor" : [ 0.119861, 0.322888, 0.474787, 1.0 ],
													"bgcolor2" : [ 0.119861, 0.322888, 0.474787, 1.0 ],
													"bgfillcolor_angle" : 270.0,
													"bgfillcolor_autogradient" : 0.0,
													"bgfillcolor_color" : [ 0.290196, 0.309804, 0.301961, 1.0 ],
													"bgfillcolor_color1" : [ 0.119861, 0.322888, 0.474787, 1.0 ],
													"bgfillcolor_color2" : [ 0.119861, 0.322888, 0.474787, 1.0 ],
													"bgfillcolor_proportion" : 0.39,
													"bgfillcolor_type" : "gradient",
													"fontsize" : 9.0,
													"gradient" : 1,
													"id" : "obj-28",
													"maxclass" : "message",
													"numinlets" : 2,
													"numoutlets" : 1,
													"outlettype" : [ "" ],
													"patching_rect" : [ 513.199463000000037, 268.5, 47.0, 19.0 ],
													"presentation" : 1,
													"presentation_rect" : [ 3.266674, 194.0, 211.0, 19.0 ],
													"text" : "ListLabel"
												}

											}
, 											{
												"box" : 												{
													"bgcolor" : [ 0.119861, 0.322888, 0.474787, 1.0 ],
													"bgcolor2" : [ 0.119861, 0.322888, 0.474787, 1.0 ],
													"bgfillcolor_angle" : 270.0,
													"bgfillcolor_autogradient" : 0.0,
													"bgfillcolor_color" : [ 0.290196, 0.309804, 0.301961, 1.0 ],
													"bgfillcolor_color1" : [ 0.119861, 0.322888, 0.474787, 1.0 ],
													"bgfillcolor_color2" : [ 0.119861, 0.322888, 0.474787, 1.0 ],
													"bgfillcolor_proportion" : 0.39,
													"bgfillcolor_type" : "gradient",
													"fontsize" : 9.0,
													"gradient" : 1,
													"id" : "obj-20",
													"maxclass" : "message",
													"numinlets" : 2,
													"numoutlets" : 1,
													"outlettype" : [ "" ],
													"patching_rect" : [ 244.949463000000009, 270.5, 89.0, 19.0 ],
													"presentation" : 1,
													"presentation_rect" : [ 3.266674, 96.0, 210.0, 19.0 ],
													"text" : "[from_input]"
												}

											}
, 											{
												"box" : 												{
													"bgcolor" : [ 0.119861, 0.322888, 0.474787, 1.0 ],
													"bgcolor2" : [ 0.119861, 0.322888, 0.474787, 1.0 ],
													"bgfillcolor_angle" : 270.0,
													"bgfillcolor_autogradient" : 0.0,
													"bgfillcolor_color" : [ 0.290196, 0.309804, 0.301961, 1.0 ],
													"bgfillcolor_color1" : [ 0.119861, 0.322888, 0.474787, 1.0 ],
													"bgfillcolor_color2" : [ 0.119861, 0.322888, 0.474787, 1.0 ],
													"bgfillcolor_proportion" : 0.39,
													"bgfillcolor_type" : "gradient",
													"fontsize" : 9.0,
													"gradient" : 1,
													"id" : "obj-115",
													"maxclass" : "message",
													"numinlets" : 2,
													"numoutlets" : 1,
													"outlettype" : [ "" ],
													"patching_rect" : [ 363.986938000000009, 270.5, 110.0, 19.0 ],
													"presentation" : 1,
													"presentation_rect" : [ 3.0, 150.0, 119.0, 19.0 ],
													"text" : "[from_input]"
												}

											}
, 											{
												"box" : 												{
													"comment" : "",
													"id" : "obj-107",
													"index" : 1,
													"maxclass" : "inlet",
													"numinlets" : 0,
													"numoutlets" : 1,
													"outlettype" : [ "bang" ],
													"patching_rect" : [ 480.19946299999998, 83.0, 30.0, 30.0 ]
												}

											}
, 											{
												"box" : 												{
													"comment" : "",
													"id" : "obj-108",
													"index" : 2,
													"maxclass" : "outlet",
													"numinlets" : 1,
													"numoutlets" : 0,
													"patching_rect" : [ 222.149460000000005, 423.0, 30.0, 30.0 ]
												}

											}
, 											{
												"box" : 												{
													"comment" : "",
													"id" : "obj-109",
													"index" : 1,
													"maxclass" : "outlet",
													"numinlets" : 1,
													"numoutlets" : 0,
													"patching_rect" : [ 48.199463000000002, 194.0, 30.0, 30.0 ]
												}

											}
 ],
										"lines" : [ 											{
												"patchline" : 												{
													"destination" : [ "obj-58", 0 ],
													"source" : [ "obj-1", 0 ]
												}

											}
, 											{
												"patchline" : 												{
													"destination" : [ "obj-16", 0 ],
													"source" : [ "obj-10", 0 ]
												}

											}
, 											{
												"patchline" : 												{
													"destination" : [ "obj-24", 0 ],
													"order" : 1,
													"source" : [ "obj-10", 1 ]
												}

											}
, 											{
												"patchline" : 												{
													"destination" : [ "obj-26", 0 ],
													"order" : 0,
													"source" : [ "obj-10", 1 ]
												}

											}
, 											{
												"patchline" : 												{
													"destination" : [ "obj-91", 0 ],
													"source" : [ "obj-105", 0 ]
												}

											}
, 											{
												"patchline" : 												{
													"destination" : [ "obj-105", 0 ],
													"source" : [ "obj-107", 0 ]
												}

											}
, 											{
												"patchline" : 												{
													"destination" : [ "obj-55", 2 ],
													"source" : [ "obj-115", 0 ]
												}

											}
, 											{
												"patchline" : 												{
													"destination" : [ "obj-115", 1 ],
													"order" : 0,
													"source" : [ "obj-16", 0 ]
												}

											}
, 											{
												"patchline" : 												{
													"destination" : [ "obj-20", 1 ],
													"order" : 1,
													"source" : [ "obj-16", 0 ]
												}

											}
, 											{
												"patchline" : 												{
													"destination" : [ "obj-9", 0 ],
													"source" : [ "obj-2", 0 ]
												}

											}
, 											{
												"patchline" : 												{
													"destination" : [ "obj-1", 0 ],
													"source" : [ "obj-20", 0 ]
												}

											}
, 											{
												"patchline" : 												{
													"destination" : [ "obj-20", 1 ],
													"source" : [ "obj-24", 0 ]
												}

											}
, 											{
												"patchline" : 												{
													"destination" : [ "obj-115", 0 ],
													"source" : [ "obj-26", 0 ]
												}

											}
, 											{
												"patchline" : 												{
													"destination" : [ "obj-55", 3 ],
													"source" : [ "obj-28", 0 ]
												}

											}
, 											{
												"patchline" : 												{
													"destination" : [ "obj-55", 4 ],
													"source" : [ "obj-29", 0 ]
												}

											}
, 											{
												"patchline" : 												{
													"destination" : [ "obj-55", 5 ],
													"source" : [ "obj-32", 0 ]
												}

											}
, 											{
												"patchline" : 												{
													"destination" : [ "obj-108", 0 ],
													"source" : [ "obj-55", 0 ]
												}

											}
, 											{
												"patchline" : 												{
													"destination" : [ "obj-3", 1 ],
													"order" : 0,
													"source" : [ "obj-58", 0 ]
												}

											}
, 											{
												"patchline" : 												{
													"destination" : [ "obj-55", 1 ],
													"order" : 1,
													"source" : [ "obj-58", 0 ]
												}

											}
, 											{
												"patchline" : 												{
													"destination" : [ "obj-10", 0 ],
													"order" : 0,
													"source" : [ "obj-60", 0 ]
												}

											}
, 											{
												"patchline" : 												{
													"destination" : [ "obj-7", 0 ],
													"order" : 1,
													"source" : [ "obj-60", 0 ]
												}

											}
, 											{
												"patchline" : 												{
													"destination" : [ "obj-9", 1 ],
													"order" : 2,
													"source" : [ "obj-60", 0 ]
												}

											}
, 											{
												"patchline" : 												{
													"destination" : [ "obj-55", 0 ],
													"source" : [ "obj-7", 0 ]
												}

											}
, 											{
												"patchline" : 												{
													"destination" : [ "obj-7", 0 ],
													"source" : [ "obj-9", 0 ]
												}

											}
, 											{
												"patchline" : 												{
													"destination" : [ "obj-109", 0 ],
													"source" : [ "obj-91", 0 ]
												}

											}
, 											{
												"patchline" : 												{
													"destination" : [ "obj-115", 0 ],
													"source" : [ "obj-91", 4 ]
												}

											}
, 											{
												"patchline" : 												{
													"destination" : [ "obj-20", 0 ],
													"source" : [ "obj-91", 5 ]
												}

											}
, 											{
												"patchline" : 												{
													"destination" : [ "obj-28", 0 ],
													"source" : [ "obj-91", 3 ]
												}

											}
, 											{
												"patchline" : 												{
													"destination" : [ "obj-29", 0 ],
													"source" : [ "obj-91", 2 ]
												}

											}
, 											{
												"patchline" : 												{
													"destination" : [ "obj-32", 0 ],
													"source" : [ "obj-91", 1 ]
												}

											}
 ]
									}
,
									"patching_rect" : [ 12.5, 176.0, 142.0, 22.0 ],
									"presentation" : 1,
									"presentation_rect" : [ 147.5, 20.0, 142.0, 22.0 ],
									"saved_object_attributes" : 									{
										"description" : "",
										"digest" : "",
										"globalpatchername" : "",
										"tags" : ""
									}
,
									"text" : "p edit-memory-preset"
								}

							}
, 							{
								"box" : 								{
									"id" : "obj-103",
									"maxclass" : "newobj",
									"numinlets" : 1,
									"numoutlets" : 2,
									"outlettype" : [ "bang", "" ],
									"patcher" : 									{
										"fileversion" : 1,
										"appversion" : 										{
											"major" : 8,
											"minor" : 1,
											"revision" : 7,
											"architecture" : "x64",
											"modernui" : 1
										}
,
										"classnamespace" : "box",
										"rect" : [ 59.0, 104.0, 154.0, 184.0 ],
										"bglocked" : 0,
										"openinpresentation" : 1,
										"default_fontsize" : 12.0,
										"default_fontface" : 0,
										"default_fontname" : "Arial",
										"gridonopen" : 1,
										"gridsize" : [ 15.0, 15.0 ],
										"gridsnaponopen" : 1,
										"objectsnaponopen" : 1,
										"statusbarvisible" : 2,
										"toolbarvisible" : 1,
										"lefttoolbarpinned" : 0,
										"toptoolbarpinned" : 0,
										"righttoolbarpinned" : 0,
										"bottomtoolbarpinned" : 0,
										"toolbars_unpinned_last_save" : 0,
										"tallnewobj" : 0,
										"boxanimatetime" : 200,
										"enablehscroll" : 1,
										"enablevscroll" : 1,
										"devicewidth" : 0.0,
										"description" : "",
										"digest" : "",
										"tags" : "",
										"style" : "",
										"subpatcher_template" : "",
										"assistshowspatchername" : 0,
										"boxes" : [ 											{
												"box" : 												{
													"id" : "obj-4",
													"maxclass" : "message",
													"numinlets" : 2,
													"numoutlets" : 1,
													"outlettype" : [ "" ],
													"patching_rect" : [ 301.59973100000002, 197.0, 31.0, 22.0 ],
													"presentation" : 1,
													"presentation_rect" : [ 84.0, 30.0, 31.0, 22.0 ],
													"text" : "100"
												}

											}
, 											{
												"box" : 												{
													"id" : "obj-3",
													"maxclass" : "message",
													"numinlets" : 2,
													"numoutlets" : 1,
													"outlettype" : [ "" ],
													"patching_rect" : [ 211.0, 197.0, 34.0, 22.0 ],
													"presentation" : 1,
													"presentation_rect" : [ 84.0, 6.0, 34.0, 22.0 ],
													"text" : "120."
												}

											}
, 											{
												"box" : 												{
													"comment" : "",
													"id" : "obj-1",
													"index" : 1,
													"maxclass" : "inlet",
													"numinlets" : 0,
													"numoutlets" : 1,
													"outlettype" : [ "bang" ],
													"patching_rect" : [ 62.849730999999998, 50.0, 30.0, 30.0 ]
												}

											}
, 											{
												"box" : 												{
													"id" : "obj-88",
													"maxclass" : "newobj",
													"numinlets" : 1,
													"numoutlets" : 6,
													"outlettype" : [ "bang", "bang", "bang", "bang", "bang", "bang" ],
													"patching_rect" : [ 62.849730999999998, 100.0, 74.0, 22.0 ],
													"text" : "t b b b b b b"
												}

											}
, 											{
												"box" : 												{
													"id" : "obj-74",
													"maxclass" : "newobj",
													"numinlets" : 1,
													"numoutlets" : 2,
													"outlettype" : [ "int", "int" ],
													"patching_rect" : [ 50.0, 265.0, 29.5, 22.0 ],
													"text" : "t i i"
												}

											}
, 											{
												"box" : 												{
													"id" : "obj-73",
													"maxclass" : "newobj",
													"numinlets" : 2,
													"numoutlets" : 1,
													"outlettype" : [ "" ],
													"patching_rect" : [ 153.849730999999991, 427.0, 34.0, 22.0 ],
													"text" : "gate"
												}

											}
, 											{
												"box" : 												{
													"id" : "obj-65",
													"maxclass" : "newobj",
													"numinlets" : 5,
													"numoutlets" : 1,
													"outlettype" : [ "" ],
													"patcher" : 													{
														"fileversion" : 1,
														"appversion" : 														{
															"major" : 8,
															"minor" : 1,
															"revision" : 7,
															"architecture" : "x64",
															"modernui" : 1
														}
,
														"classnamespace" : "box",
														"rect" : [ 0.0, 0.0, 640.0, 480.0 ],
														"bglocked" : 0,
														"openinpresentation" : 0,
														"default_fontsize" : 12.0,
														"default_fontface" : 0,
														"default_fontname" : "Arial",
														"gridonopen" : 1,
														"gridsize" : [ 15.0, 15.0 ],
														"gridsnaponopen" : 1,
														"objectsnaponopen" : 1,
														"statusbarvisible" : 2,
														"toolbarvisible" : 1,
														"lefttoolbarpinned" : 0,
														"toptoolbarpinned" : 0,
														"righttoolbarpinned" : 0,
														"bottomtoolbarpinned" : 0,
														"toolbars_unpinned_last_save" : 0,
														"tallnewobj" : 0,
														"boxanimatetime" : 200,
														"enablehscroll" : 1,
														"enablevscroll" : 1,
														"devicewidth" : 0.0,
														"description" : "",
														"digest" : "",
														"tags" : "",
														"style" : "",
														"subpatcher_template" : "",
														"assistshowspatchername" : 0,
														"boxes" : [ 															{
																"box" : 																{
																	"id" : "obj-116",
																	"maxclass" : "message",
																	"numinlets" : 2,
																	"numoutlets" : 1,
																	"outlettype" : [ "" ],
																	"patching_rect" : [ 574.84973100000002, 135.0, 41.0, 22.0 ],
																	"text" : "on $1"
																}

															}
, 															{
																"box" : 																{
																	"id" : "obj-87",
																	"maxclass" : "message",
																	"numinlets" : 2,
																	"numoutlets" : 1,
																	"outlettype" : [ "" ],
																	"patching_rect" : [ 304.84973100000002, 126.0, 55.0, 22.0 ],
																	"text" : "cycle $1"
																}

															}
, 															{
																"box" : 																{
																	"id" : "obj-73",
																	"maxclass" : "message",
																	"numinlets" : 2,
																	"numoutlets" : 1,
																	"outlettype" : [ "" ],
																	"patching_rect" : [ 380.34973100000002, 135.0, 75.0, 22.0 ],
																	"text" : "beatfrom $1"
																}

															}
, 															{
																"box" : 																{
																	"id" : "obj-71",
																	"maxclass" : "message",
																	"numinlets" : 2,
																	"numoutlets" : 1,
																	"outlettype" : [ "" ],
																	"patching_rect" : [ 217.849730999999991, 126.0, 61.0, 22.0 ],
																	"text" : "tempo $1"
																}

															}
, 															{
																"box" : 																{
																	"id" : "obj-88",
																	"maxclass" : "toggle",
																	"numinlets" : 1,
																	"numoutlets" : 1,
																	"outlettype" : [ "int" ],
																	"parameter_enable" : 0,
																	"patching_rect" : [ 574.84973100000002, 100.0, 24.0, 24.0 ]
																}

															}
, 															{
																"box" : 																{
																	"id" : "obj-3",
																	"maxclass" : "newobj",
																	"numinlets" : 1,
																	"numoutlets" : 1,
																	"outlettype" : [ "" ],
																	"patching_rect" : [ 304.84973100000002, 205.0, 83.0, 22.0 ],
																	"text" : "prepend sync"
																}

															}
, 															{
																"box" : 																{
																	"id" : "obj-1",
																	"maxclass" : "newobj",
																	"numinlets" : 1,
																	"numoutlets" : 1,
																	"outlettype" : [ "" ],
																	"patching_rect" : [ 50.0, 145.0, 117.0, 22.0 ],
																	"text" : "prepend timesource"
																}

															}
, 															{
																"box" : 																{
																	"comment" : "",
																	"id" : "obj-56",
																	"index" : 1,
																	"maxclass" : "inlet",
																	"numinlets" : 0,
																	"numoutlets" : 1,
																	"outlettype" : [ "int" ],
																	"patching_rect" : [ 50.0, 40.0, 30.0, 30.0 ]
																}

															}
, 															{
																"box" : 																{
																	"comment" : "",
																	"id" : "obj-57",
																	"index" : 2,
																	"maxclass" : "inlet",
																	"numinlets" : 0,
																	"numoutlets" : 1,
																	"outlettype" : [ "" ],
																	"patching_rect" : [ 217.849730999999991, 40.0, 30.0, 30.0 ]
																}

															}
, 															{
																"box" : 																{
																	"comment" : "",
																	"id" : "obj-59",
																	"index" : 3,
																	"maxclass" : "inlet",
																	"numinlets" : 0,
																	"numoutlets" : 1,
																	"outlettype" : [ "" ],
																	"patching_rect" : [ 304.84973100000002, 40.0, 30.0, 30.0 ]
																}

															}
, 															{
																"box" : 																{
																	"comment" : "",
																	"id" : "obj-61",
																	"index" : 4,
																	"maxclass" : "inlet",
																	"numinlets" : 0,
																	"numoutlets" : 1,
																	"outlettype" : [ "" ],
																	"patching_rect" : [ 380.34973100000002, 40.0, 30.0, 30.0 ]
																}

															}
, 															{
																"box" : 																{
																	"comment" : "",
																	"id" : "obj-62",
																	"index" : 5,
																	"maxclass" : "inlet",
																	"numinlets" : 0,
																	"numoutlets" : 1,
																	"outlettype" : [ "" ],
																	"patching_rect" : [ 574.84973100000002, 40.0, 30.0, 30.0 ]
																}

															}
, 															{
																"box" : 																{
																	"comment" : "",
																	"id" : "obj-64",
																	"index" : 1,
																	"maxclass" : "outlet",
																	"numinlets" : 1,
																	"numoutlets" : 0,
																	"patching_rect" : [ 171.424866000000009, 287.0, 30.0, 30.0 ]
																}

															}
 ],
														"lines" : [ 															{
																"patchline" : 																{
																	"destination" : [ "obj-64", 0 ],
																	"source" : [ "obj-1", 0 ]
																}

															}
, 															{
																"patchline" : 																{
																	"destination" : [ "obj-3", 0 ],
																	"source" : [ "obj-116", 0 ]
																}

															}
, 															{
																"patchline" : 																{
																	"destination" : [ "obj-64", 0 ],
																	"source" : [ "obj-3", 0 ]
																}

															}
, 															{
																"patchline" : 																{
																	"destination" : [ "obj-1", 0 ],
																	"source" : [ "obj-56", 0 ]
																}

															}
, 															{
																"patchline" : 																{
																	"destination" : [ "obj-71", 0 ],
																	"source" : [ "obj-57", 0 ]
																}

															}
, 															{
																"patchline" : 																{
																	"destination" : [ "obj-87", 0 ],
																	"source" : [ "obj-59", 0 ]
																}

															}
, 															{
																"patchline" : 																{
																	"destination" : [ "obj-73", 0 ],
																	"source" : [ "obj-61", 0 ]
																}

															}
, 															{
																"patchline" : 																{
																	"destination" : [ "obj-88", 0 ],
																	"source" : [ "obj-62", 0 ]
																}

															}
, 															{
																"patchline" : 																{
																	"destination" : [ "obj-3", 0 ],
																	"source" : [ "obj-71", 0 ]
																}

															}
, 															{
																"patchline" : 																{
																	"destination" : [ "obj-3", 0 ],
																	"source" : [ "obj-73", 0 ]
																}

															}
, 															{
																"patchline" : 																{
																	"destination" : [ "obj-3", 0 ],
																	"source" : [ "obj-87", 0 ]
																}

															}
, 															{
																"patchline" : 																{
																	"destination" : [ "obj-116", 0 ],
																	"source" : [ "obj-88", 0 ]
																}

															}
 ]
													}
,
													"patching_rect" : [ 91.150268999999994, 329.0, 123.0, 22.0 ],
													"saved_object_attributes" : 													{
														"description" : "",
														"digest" : "",
														"globalpatchername" : "",
														"tags" : ""
													}
,
													"text" : "p preset_time"
												}

											}
, 											{
												"box" : 												{
													"id" : "obj-34",
													"maxclass" : "message",
													"numinlets" : 2,
													"numoutlets" : 1,
													"outlettype" : [ "" ],
													"patching_rect" : [ 581.84973100000002, 223.5, 29.5, 22.0 ],
													"text" : "1"
												}

											}
, 											{
												"box" : 												{
													"id" : "obj-6",
													"maxclass" : "button",
													"numinlets" : 1,
													"numoutlets" : 1,
													"outlettype" : [ "bang" ],
													"parameter_enable" : 0,
													"patching_rect" : [ 50.0, 166.5, 24.0, 24.0 ]
												}

											}
, 											{
												"box" : 												{
													"id" : "obj-110",
													"maxclass" : "comment",
													"numinlets" : 1,
													"numoutlets" : 0,
													"patching_rect" : [ 301.59973100000002, 167.5, 53.5, 20.0 ],
													"presentation" : 1,
													"presentation_rect" : [ 3.0, 30.0, 79.0, 20.0 ],
													"text" : "Length"
												}

											}
, 											{
												"box" : 												{
													"id" : "obj-11",
													"maxclass" : "comment",
													"numinlets" : 1,
													"numoutlets" : 0,
													"patching_rect" : [ 374.84973100000002, 165.0, 141.0, 20.0 ],
													"presentation" : 1,
													"presentation_rect" : [ 2.0, 93.0, 129.0, 20.0 ],
													"text" : "Events from input &..."
												}

											}
, 											{
												"box" : 												{
													"id" : "obj-89",
													"maxclass" : "comment",
													"numinlets" : 1,
													"numoutlets" : 0,
													"patching_rect" : [ 214.349730999999991, 165.5, 50.0, 20.0 ],
													"presentation" : 1,
													"presentation_rect" : [ 3.0, 6.0, 79.0, 20.0 ],
													"text" : "Tempo"
												}

											}
, 											{
												"box" : 												{
													"id" : "obj-86",
													"maxclass" : "comment",
													"numinlets" : 1,
													"numoutlets" : 0,
													"patching_rect" : [ 569.84973100000002, 186.5, 53.5, 20.0 ],
													"text" : "On/Off"
												}

											}
, 											{
												"box" : 												{
													"id" : "obj-47",
													"maxclass" : "comment",
													"numinlets" : 1,
													"numoutlets" : 0,
													"patching_rect" : [ 400.09973100000002, 220.5, 150.0, 20.0 ],
													"presentation" : 1,
													"presentation_rect" : [ 23.5, 144.0, 150.0, 20.0 ],
													"text" : "No beat input"
												}

											}
, 											{
												"box" : 												{
													"id" : "obj-13",
													"maxclass" : "comment",
													"numinlets" : 1,
													"numoutlets" : 0,
													"patching_rect" : [ 401.09973100000002, 189.5, 150.0, 20.0 ],
													"presentation" : 1,
													"presentation_rect" : [ 23.5, 114.0, 150.0, 20.0 ],
													"text" : "Beat from input"
												}

											}
, 											{
												"box" : 												{
													"id" : "obj-12",
													"maxclass" : "comment",
													"numinlets" : 1,
													"numoutlets" : 0,
													"patching_rect" : [ 401.09973100000002, 204.56433100000001, 150.0, 20.0 ],
													"presentation" : 1,
													"presentation_rect" : [ 23.5, 129.06433100000001, 150.0, 20.0 ],
													"text" : "Beat from metronome"
												}

											}
, 											{
												"box" : 												{
													"disabled" : [ 0, 0, 0 ],
													"id" : "obj-8",
													"itemtype" : 0,
													"maxclass" : "radiogroup",
													"numinlets" : 1,
													"numoutlets" : 1,
													"outlettype" : [ "" ],
													"parameter_enable" : 0,
													"patching_rect" : [ 381.09973100000002, 189.5, 18.0, 50.0 ],
													"presentation" : 1,
													"presentation_rect" : [ 3.5, 114.0, 18.0, 50.0 ],
													"size" : 3,
													"value" : 2
												}

											}
, 											{
												"box" : 												{
													"id" : "obj-63",
													"maxclass" : "comment",
													"numinlets" : 1,
													"numoutlets" : 0,
													"patching_rect" : [ 72.650268999999994, 235.5, 112.0, 20.0 ],
													"presentation" : 1,
													"presentation_rect" : [ 21.549987999999999, 68.800017999999994, 126.0, 20.0 ],
													"text" : "Time master"
												}

											}
, 											{
												"box" : 												{
													"disabled" : [ 0, 0 ],
													"id" : "obj-60",
													"itemtype" : 0,
													"maxclass" : "radiogroup",
													"numinlets" : 1,
													"numoutlets" : 1,
													"outlettype" : [ "" ],
													"parameter_enable" : 0,
													"patching_rect" : [ 50.0, 219.0, 18.0, 34.0 ],
													"presentation" : 1,
													"presentation_rect" : [ 2.0, 52.0, 18.0, 34.0 ],
													"size" : 2,
													"value" : 1
												}

											}
, 											{
												"box" : 												{
													"id" : "obj-58",
													"maxclass" : "comment",
													"numinlets" : 1,
													"numoutlets" : 0,
													"patching_rect" : [ 72.650268999999994, 218.0, 121.0, 20.0 ],
													"presentation" : 1,
													"presentation_rect" : [ 21.549987999999999, 52.0, 121.0, 20.0 ],
													"text" : "Time from sync input"
												}

											}
, 											{
												"box" : 												{
													"comment" : "",
													"id" : "obj-100",
													"index" : 1,
													"maxclass" : "outlet",
													"numinlets" : 1,
													"numoutlets" : 0,
													"patching_rect" : [ 62.849730999999998, 509.0, 30.0, 30.0 ]
												}

											}
, 											{
												"box" : 												{
													"comment" : "",
													"id" : "obj-101",
													"index" : 2,
													"maxclass" : "outlet",
													"numinlets" : 1,
													"numoutlets" : 0,
													"patching_rect" : [ 153.849730999999991, 509.0, 30.0, 30.0 ]
												}

											}
 ],
										"lines" : [ 											{
												"patchline" : 												{
													"destination" : [ "obj-88", 0 ],
													"source" : [ "obj-1", 0 ]
												}

											}
, 											{
												"patchline" : 												{
													"destination" : [ "obj-65", 1 ],
													"source" : [ "obj-3", 0 ]
												}

											}
, 											{
												"patchline" : 												{
													"destination" : [ "obj-65", 4 ],
													"source" : [ "obj-34", 0 ]
												}

											}
, 											{
												"patchline" : 												{
													"destination" : [ "obj-65", 2 ],
													"source" : [ "obj-4", 0 ]
												}

											}
, 											{
												"patchline" : 												{
													"destination" : [ "obj-60", 0 ],
													"source" : [ "obj-6", 0 ]
												}

											}
, 											{
												"patchline" : 												{
													"destination" : [ "obj-74", 0 ],
													"source" : [ "obj-60", 0 ]
												}

											}
, 											{
												"patchline" : 												{
													"destination" : [ "obj-73", 1 ],
													"source" : [ "obj-65", 0 ]
												}

											}
, 											{
												"patchline" : 												{
													"destination" : [ "obj-101", 0 ],
													"source" : [ "obj-73", 0 ]
												}

											}
, 											{
												"patchline" : 												{
													"destination" : [ "obj-65", 0 ],
													"source" : [ "obj-74", 0 ]
												}

											}
, 											{
												"patchline" : 												{
													"destination" : [ "obj-73", 0 ],
													"source" : [ "obj-74", 1 ]
												}

											}
, 											{
												"patchline" : 												{
													"destination" : [ "obj-65", 3 ],
													"source" : [ "obj-8", 0 ]
												}

											}
, 											{
												"patchline" : 												{
													"destination" : [ "obj-100", 0 ],
													"source" : [ "obj-88", 0 ]
												}

											}
, 											{
												"patchline" : 												{
													"destination" : [ "obj-3", 0 ],
													"source" : [ "obj-88", 4 ]
												}

											}
, 											{
												"patchline" : 												{
													"destination" : [ "obj-34", 0 ],
													"source" : [ "obj-88", 1 ]
												}

											}
, 											{
												"patchline" : 												{
													"destination" : [ "obj-4", 0 ],
													"source" : [ "obj-88", 3 ]
												}

											}
, 											{
												"patchline" : 												{
													"destination" : [ "obj-6", 0 ],
													"source" : [ "obj-88", 5 ]
												}

											}
, 											{
												"patchline" : 												{
													"destination" : [ "obj-8", 0 ],
													"source" : [ "obj-88", 2 ]
												}

											}
 ]
									}
,
									"patching_rect" : [ 12.5, 149.0, 142.0, 22.0 ],
									"presentation" : 1,
									"presentation_rect" : [ 147.5, -2.0, 142.0, 22.0 ],
									"saved_object_attributes" : 									{
										"description" : "",
										"digest" : "",
										"globalpatchername" : "",
										"tags" : ""
									}
,
									"text" : "p edit-time-preset",
									"varname" : "edit-time-preset"
								}

							}
, 							{
								"box" : 								{
									"annotation" : "To DYCI2_agent sync",
									"comment" : "To DYCI2_agent sync",
									"hint" : "To DYCI2_agent sync",
									"id" : "obj-2",
									"index" : 1,
									"maxclass" : "outlet",
									"numinlets" : 1,
									"numoutlets" : 0,
									"patching_rect" : [ 63.349730999999998, 255.0, 30.0, 30.0 ]
								}

							}
, 							{
								"box" : 								{
									"angle" : 270.0,
									"grad1" : [ 0.862745, 0.870588, 0.878431, 0.27 ],
									"grad2" : [ 0.32549, 0.345098, 0.372549, 0.75 ],
									"id" : "obj-7",
									"maxclass" : "panel",
									"mode" : 1,
									"numinlets" : 1,
									"numoutlets" : 0,
									"patching_rect" : [ 10.0, 9.0, 194.0, 34.0 ],
									"presentation" : 1,
									"presentation_rect" : [ 0.0, -6.0, 313.0, 92.0 ],
									"proportion" : 0.39
								}

							}
 ],
						"lines" : [ 							{
								"patchline" : 								{
									"destination" : [ "obj-5", 0 ],
									"source" : [ "obj-1", 0 ]
								}

							}
, 							{
								"patchline" : 								{
									"destination" : [ "obj-110", 0 ],
									"source" : [ "obj-103", 0 ]
								}

							}
, 							{
								"patchline" : 								{
									"destination" : [ "obj-2", 0 ],
									"source" : [ "obj-103", 1 ]
								}

							}
, 							{
								"patchline" : 								{
									"destination" : [ "obj-114", 0 ],
									"source" : [ "obj-110", 0 ]
								}

							}
, 							{
								"patchline" : 								{
									"destination" : [ "obj-2", 0 ],
									"source" : [ "obj-110", 1 ]
								}

							}
, 							{
								"patchline" : 								{
									"destination" : [ "obj-2", 0 ],
									"source" : [ "obj-114", 0 ]
								}

							}
, 							{
								"patchline" : 								{
									"destination" : [ "obj-3", 0 ],
									"source" : [ "obj-114", 1 ]
								}

							}
, 							{
								"patchline" : 								{
									"destination" : [ "obj-103", 0 ],
									"source" : [ "obj-116", 0 ]
								}

							}
, 							{
								"patchline" : 								{
									"destination" : [ "obj-116", 0 ],
									"source" : [ "obj-118", 0 ]
								}

							}
, 							{
								"patchline" : 								{
									"destination" : [ "obj-4", 0 ],
									"source" : [ "obj-5", 0 ]
								}

							}
 ]
					}
,
					"patching_rect" : [ 2.000191000000044, 85.700622000000067, 309.0, 86.0 ],
					"viewvisibility" : 1
				}

			}
, 			{
				"box" : 				{
					"fontface" : 3,
					"fontsize" : 18.0,
					"id" : "obj-47",
					"linecount" : 2,
					"maxclass" : "comment",
					"numinlets" : 1,
					"numoutlets" : 0,
					"patching_rect" : [ 0.333312999999976, 3.666664000000026, 699.333435000000009, 47.0 ],
					"text" : "DYCI2 library - Help \"DYCI2_agent_preset\"\nPresets about time management for the agent (temporary)."
				}

			}
 ],
		"lines" : [  ],
		"dependency_cache" : [ 			{
				"name" : "DYCI2_agent.maxhelp",
				"bootpath" : "~/Documents/GitHub/Dyci2Lib/Max_library/help",
				"patcherrelativepath" : ".",
				"type" : "JSON",
				"implicit" : 1
			}
, 			{
				"name" : "DYCI2_agent.maxpat",
				"bootpath" : "~/Documents/GitHub/Dyci2Lib/Max_library/patchers/DYCI2_objects",
				"patcherrelativepath" : "../patchers/DYCI2_objects",
				"type" : "JSON",
				"implicit" : 1
			}
, 			{
				"name" : "DYCI2_time.maxpat",
				"bootpath" : "~/Documents/GitHub/Dyci2Lib/Max_library/patchers/DYCI2_objects",
				"patcherrelativepath" : "../patchers/DYCI2_objects",
				"type" : "JSON",
				"implicit" : 1
			}
, 			{
				"name" : "mysend.maxpat",
				"bootpath" : "~/Documents/GitHub/Dyci2Lib/Max_library/patchers/tools",
				"patcherrelativepath" : "../patchers/tools",
				"type" : "JSON",
				"implicit" : 1
			}
, 			{
				"name" : "shell.mxo",
				"type" : "iLaX"
			}
 ],
		"autosave" : 0
	}

}
