{
	"patcher" : 	{
		"fileversion" : 1,
		"appversion" : 		{
			"major" : 7,
			"minor" : 3,
			"revision" : 4,
			"architecture" : "x64",
			"modernui" : 1
		}
,
		"rect" : [ 34.0, 90.0, 974.0, 885.0 ],
		"bglocked" : 0,
		"openinpresentation" : 1,
		"default_fontsize" : 12.0,
		"default_fontface" : 0,
		"default_fontname" : "Arial",
		"gridonopen" : 1,
		"gridsize" : [ 15.0, 15.0 ],
		"gridsnaponopen" : 1,
		"objectsnaponopen" : 1,
		"statusbarvisible" : 2,
		"toolbarvisible" : 1,
		"lefttoolbarpinned" : 0,
		"toptoolbarpinned" : 0,
		"righttoolbarpinned" : 0,
		"bottomtoolbarpinned" : 0,
		"toolbars_unpinned_last_save" : 0,
		"tallnewobj" : 0,
		"boxanimatetime" : 200,
		"enablehscroll" : 1,
		"enablevscroll" : 1,
		"devicewidth" : 0.0,
		"description" : "",
		"digest" : "",
		"tags" : "",
		"style" : "",
		"subpatcher_template" : "",
		"boxes" : [ 			{
				"box" : 				{
					"id" : "obj-8",
					"maxclass" : "newobj",
					"numinlets" : 1,
					"numoutlets" : 1,
					"outlettype" : [ "" ],
					"patching_rect" : [ 749.0, 314.0, 147.0, 22.0 ],
					"style" : "",
					"text" : "prepend /FreqModOctave"
				}

			}
, 			{
				"box" : 				{
					"bgcolor" : [ 0.225931, 0.243266, 0.235763, 1.0 ],
					"color" : [ 0.626659, 0.011445, 0.044897, 1.0 ],
					"id" : "obj-53",
					"maxclass" : "newobj",
					"numinlets" : 1,
					"numoutlets" : 2,
					"outlettype" : [ "", "" ],
					"patcher" : 					{
						"fileversion" : 1,
						"appversion" : 						{
							"major" : 7,
							"minor" : 3,
							"revision" : 4,
							"architecture" : "x64",
							"modernui" : 1
						}
,
						"rect" : [ 821.0, 548.0, 1039.0, 937.0 ],
						"bglocked" : 0,
						"openinpresentation" : 1,
						"default_fontsize" : 12.0,
						"default_fontface" : 0,
						"default_fontname" : "Arial",
						"gridonopen" : 1,
						"gridsize" : [ 15.0, 15.0 ],
						"gridsnaponopen" : 1,
						"objectsnaponopen" : 1,
						"statusbarvisible" : 2,
						"toolbarvisible" : 1,
						"lefttoolbarpinned" : 0,
						"toptoolbarpinned" : 0,
						"righttoolbarpinned" : 0,
						"bottomtoolbarpinned" : 0,
						"toolbars_unpinned_last_save" : 0,
						"tallnewobj" : 0,
						"boxanimatetime" : 200,
						"enablehscroll" : 1,
						"enablevscroll" : 1,
						"devicewidth" : 0.0,
						"description" : "",
						"digest" : "",
						"tags" : "",
						"style" : "",
						"subpatcher_template" : "",
						"visible" : 1,
						"boxes" : [ 							{
								"box" : 								{
									"id" : "obj-11",
									"maxclass" : "message",
									"numinlets" : 2,
									"numoutlets" : 1,
									"outlettype" : [ "" ],
									"patching_rect" : [ 468.0, 155.0, 50.0, 22.0 ],
									"presentation_rect" : [ 448.0, 157.0, 0.0, 0.0 ],
									"style" : "",
									"text" : "1"
								}

							}
, 							{
								"box" : 								{
									"id" : "obj-18",
									"maxclass" : "newobj",
									"numinlets" : 1,
									"numoutlets" : 1,
									"outlettype" : [ "bang" ],
									"patching_rect" : [ 562.0, 59.0, 60.0, 22.0 ],
									"style" : "",
									"text" : "loadbang"
								}

							}
, 							{
								"box" : 								{
									"id" : "obj-23",
									"maxclass" : "message",
									"numinlets" : 2,
									"numoutlets" : 1,
									"outlettype" : [ "" ],
									"patching_rect" : [ 562.0, 146.0, 43.0, 22.0 ],
									"style" : "",
									"text" : "set $1"
								}

							}
, 							{
								"box" : 								{
									"id" : "obj-4",
									"maxclass" : "message",
									"numinlets" : 2,
									"numoutlets" : 1,
									"outlettype" : [ "" ],
									"patching_rect" : [ 562.0, 116.0, 29.5, 22.0 ],
									"style" : "",
									"text" : "1"
								}

							}
, 							{
								"box" : 								{
									"comment" : "",
									"id" : "obj-2",
									"index" : 2,
									"maxclass" : "outlet",
									"numinlets" : 1,
									"numoutlets" : 0,
									"patching_rect" : [ 468.0, 221.0, 30.0, 30.0 ],
									"presentation_rect" : [ 474.0, 348.0, 0.0, 0.0 ],
									"style" : ""
								}

							}
, 							{
								"box" : 								{
									"fontsize" : 10.0,
									"id" : "obj-61",
									"maxclass" : "comment",
									"numinlets" : 1,
									"numoutlets" : 0,
									"patching_rect" : [ 526.0, 182.0, 160.0, 18.0 ],
									"presentation" : 1,
									"presentation_rect" : [ 190.0, 26.0, 76.0, 18.0 ],
									"style" : "",
									"text" : "modulo octave"
								}

							}
, 							{
								"box" : 								{
									"id" : "obj-56",
									"maxclass" : "toggle",
									"numinlets" : 1,
									"numoutlets" : 1,
									"outlettype" : [ "int" ],
									"parameter_enable" : 0,
									"patching_rect" : [ 499.0, 116.0, 24.0, 24.0 ],
									"presentation" : 1,
									"presentation_rect" : [ 170.0, 26.0, 16.0, 16.0 ],
									"style" : ""
								}

							}
, 							{
								"box" : 								{
									"comment" : "",
									"id" : "obj-1",
									"index" : 1,
									"maxclass" : "outlet",
									"numinlets" : 1,
									"numoutlets" : 0,
									"patching_rect" : [ 217.0, 1004.0, 30.0, 30.0 ],
									"style" : ""
								}

							}
, 							{
								"box" : 								{
									"id" : "obj-48",
									"maxclass" : "button",
									"numinlets" : 1,
									"numoutlets" : 1,
									"outlettype" : [ "bang" ],
									"patching_rect" : [ 217.0, 47.0, 24.0, 24.0 ],
									"style" : ""
								}

							}
, 							{
								"box" : 								{
									"fontface" : 1,
									"id" : "obj-72",
									"maxclass" : "comment",
									"numinlets" : 1,
									"numoutlets" : 0,
									"patching_rect" : [ 266.0, 59.0, 105.0, 20.0 ],
									"presentation" : 1,
									"presentation_rect" : [ 10.0, 4.0, 105.0, 20.0 ],
									"style" : "",
									"text" : "Analysis"
								}

							}
, 							{
								"box" : 								{
									"fontface" : 1,
									"id" : "obj-71",
									"maxclass" : "comment",
									"numinlets" : 1,
									"numoutlets" : 0,
									"patching_rect" : [ 14.0, 59.0, 141.0, 20.0 ],
									"style" : "",
									"text" : "Segmentation"
								}

							}
, 							{
								"box" : 								{
									"fontsize" : 9.0,
									"id" : "obj-37",
									"linecount" : 89,
									"maxclass" : "comment",
									"numinlets" : 1,
									"numoutlets" : 0,
									"patching_rect" : [ 33.0, 89.0, 152.0, 901.0 ],
									"style" : "",
									"text" : "FundamentalFrequency \n\nChroma \n\nMFCC \n\nSpectralCentroid \n\nLoudness \n\nTotalEnergy \n\nHarmonicSpectralCentroid \n\nSignalZeroCrossingRate \n\nSpectralSpread \n\nSpectralSkewness \n\nSpectralKurtosis \n\nSpectralRolloff\n\nSpectralVariation \n\nSpectralDecrease \n\nRelativeSpecificLoudness \n\nPerceptualTristimulus \n\nPerceptualOddToEvenRatio \n\nSharpness \n\nSpread \n\nSpectralFlatness \n\nSpectralCrest \n\nSpectralSlope \n\nPerceptualSpectralDeviation \n\nPerceptualSpectralCentroid \n\nPerceptualSpectralSpread \n\nPerceptualSpectralSkewness \n\nPerceptualSpectralKurtosis \n\nPerceptualSpectralRolloff \n\nPerceptualSpectralVariation \n\nPerceptualSpectralDecrease \n\nPerceptualSpectralSlope \n\nInharmonicity \n\nHarmonicEnergy \n\nNoiseEnergy \n\nNoisiness \n\nHarmonicTristimulus \n\nHarmonicOddToEvenRatio \n\nHarmonicSpectralDeviation \n\nHarmonicSpectralSpread \n\nHarmonicSpectralSkewness \n\nHarmonicSpectralKurtosis \n\nHarmonicSpectralVariation \n\nHarmonicSpectralDecrease \n\nHarmonicSpectralSlope \n\nHarmonicSpectralRolloff"
								}

							}
, 							{
								"box" : 								{
									"disabled" : [ 0, 0, 0, 0, 0, 0, 0, 0, 0, 0, 0, 0, 0, 0, 0, 0, 0, 0, 0, 0, 0, 0, 0, 0, 0, 0, 0, 0, 0, 0, 0, 0, 0, 0, 0, 0, 0, 0, 0, 0, 0, 0, 0, 0, 0 ],
									"id" : "obj-38",
									"ignoreclick" : 1,
									"itemtype" : 1,
									"maxclass" : "radiogroup",
									"numinlets" : 1,
									"numoutlets" : 1,
									"offset" : 20,
									"outlettype" : [ "" ],
									"parameter_enable" : 0,
									"patching_rect" : [ 14.0, 89.0, 20.0, 902.0 ],
									"size" : 45,
									"style" : "",
									"values" : [ 0, 0, 0, 0, 1, 0, 0, 0, 0, 0, 0, 0, 0, 0, 0, 0, 0, 0, 0, 0, 0, 0, 0, 0, 0, 0, 0, 0, 0, 0, 0, 0, 0, 0, 0, 0, 0, 0, 0, 0, 0, 0, 0, 0, 0 ]
								}

							}
, 							{
								"box" : 								{
									"fontsize" : 9.0,
									"id" : "obj-12",
									"linecount" : 89,
									"maxclass" : "comment",
									"numinlets" : 1,
									"numoutlets" : 0,
									"patching_rect" : [ 236.0, 89.0, 152.0, 901.0 ],
									"presentation" : 1,
									"presentation_linecount" : 89,
									"presentation_rect" : [ 5.0, 26.0, 155.0, 901.0 ],
									"style" : "",
									"text" : "FundamentalFrequency \n\nChroma \n\nMFCC \n\nSpectralCentroid \n\nLoudness \n\nTotalEnergy \n\nHarmonicSpectralCentroid \n\nSignalZeroCrossingRate \n\nSpectralSpread \n\nSpectralSkewness \n\nSpectralKurtosis \n\nSpectralRolloff\n\nSpectralVariation \n\nSpectralDecrease \n\nRelativeSpecificLoudness \n\nPerceptualTristimulus \n\nPerceptualOddToEvenRatio \n\nSharpness \n\nSpread \n\nSpectralFlatness \n\nSpectralCrest \n\nSpectralSlope \n\nPerceptualSpectralDeviation \n\nPerceptualSpectralCentroid \n\nPerceptualSpectralSpread \n\nPerceptualSpectralSkewness \n\nPerceptualSpectralKurtosis \n\nPerceptualSpectralRolloff \n\nPerceptualSpectralVariation \n\nPerceptualSpectralDecrease \n\nPerceptualSpectralSlope \n\nInharmonicity \n\nHarmonicEnergy \n\nNoiseEnergy \n\nNoisiness \n\nHarmonicTristimulus \n\nHarmonicOddToEvenRatio \n\nHarmonicSpectralDeviation \n\nHarmonicSpectralSpread \n\nHarmonicSpectralSkewness \n\nHarmonicSpectralKurtosis \n\nHarmonicSpectralVariation \n\nHarmonicSpectralDecrease \n\nHarmonicSpectralSlope \n\nHarmonicSpectralRolloff"
								}

							}
, 							{
								"box" : 								{
									"annotation" : "Bang to load",
									"comment" : "",
									"hint" : "Bang to load",
									"id" : "obj-7",
									"index" : 1,
									"maxclass" : "inlet",
									"numinlets" : 0,
									"numoutlets" : 1,
									"outlettype" : [ "bang" ],
									"patching_rect" : [ 217.0, 7.0, 30.0, 30.0 ],
									"style" : "",
									"varname" : "Bang"
								}

							}
, 							{
								"box" : 								{
									"disabled" : [ 0, 0, 0, 0, 0, 0, 0, 0, 0, 0, 0, 0, 0, 0, 0, 0, 0, 0, 0, 0, 0, 0, 0, 0, 0, 0, 0, 0, 0, 0, 0, 0, 0, 0, 0, 0, 0, 0, 0, 0, 0, 0, 0, 0, 0 ],
									"id" : "obj-52",
									"itemtype" : 1,
									"maxclass" : "radiogroup",
									"numinlets" : 1,
									"numoutlets" : 1,
									"offset" : 20,
									"outlettype" : [ "" ],
									"parameter_enable" : 0,
									"patching_rect" : [ 217.0, 89.0, 20.0, 902.0 ],
									"presentation" : 1,
									"presentation_rect" : [ 136.0, 26.0, 20.0, 902.0 ],
									"size" : 45,
									"style" : "",
									"values" : [ 0, 1, 0, 0, 0, 0, 0, 0, 0, 0, 0, 0, 0, 0, 0, 0, 0, 0, 0, 0, 0, 0, 0, 0, 0, 0, 0, 0, 0, 0, 0, 0, 0, 0, 0, 0, 0, 0, 0, 0, 0, 0, 0, 0, 0 ]
								}

							}
 ],
						"lines" : [ 							{
								"patchline" : 								{
									"destination" : [ "obj-2", 0 ],
									"source" : [ "obj-11", 0 ]
								}

							}
, 							{
								"patchline" : 								{
									"destination" : [ "obj-4", 0 ],
									"source" : [ "obj-18", 0 ]
								}

							}
, 							{
								"patchline" : 								{
									"destination" : [ "obj-11", 0 ],
									"order" : 1,
									"source" : [ "obj-23", 0 ]
								}

							}
, 							{
								"patchline" : 								{
									"destination" : [ "obj-56", 0 ],
									"order" : 0,
									"source" : [ "obj-23", 0 ]
								}

							}
, 							{
								"patchline" : 								{
									"destination" : [ "obj-23", 0 ],
									"source" : [ "obj-4", 0 ]
								}

							}
, 							{
								"patchline" : 								{
									"destination" : [ "obj-11", 0 ],
									"order" : 0,
									"source" : [ "obj-48", 0 ]
								}

							}
, 							{
								"patchline" : 								{
									"destination" : [ "obj-52", 0 ],
									"order" : 1,
									"source" : [ "obj-48", 0 ]
								}

							}
, 							{
								"patchline" : 								{
									"destination" : [ "obj-1", 0 ],
									"source" : [ "obj-52", 0 ]
								}

							}
, 							{
								"patchline" : 								{
									"destination" : [ "obj-11", 1 ],
									"order" : 1,
									"source" : [ "obj-56", 0 ]
								}

							}
, 							{
								"patchline" : 								{
									"destination" : [ "obj-4", 1 ],
									"order" : 0,
									"source" : [ "obj-56", 0 ]
								}

							}
, 							{
								"patchline" : 								{
									"destination" : [ "obj-48", 0 ],
									"source" : [ "obj-7", 0 ]
								}

							}
 ]
					}
,
					"patching_rect" : [ 650.0, 277.0, 118.0, 22.0 ],
					"presentation" : 1,
					"presentation_rect" : [ 29.514648, 108.0, 117.0, 22.0 ],
					"saved_object_attributes" : 					{
						"description" : "",
						"digest" : "",
						"globalpatchername" : "",
						"style" : "",
						"tags" : ""
					}
,
					"style" : "",
					"text" : "p select_descriptors",
					"textcolor" : [ 1.0, 1.0, 1.0, 1.0 ]
				}

			}
, 			{
				"box" : 				{
					"fontface" : 2,
					"fontsize" : 9.0,
					"id" : "obj-19",
					"maxclass" : "comment",
					"numinlets" : 1,
					"numoutlets" : 0,
					"patching_rect" : [ 278.0, 39.0, 116.0, 17.0 ],
					"presentation" : 1,
					"presentation_rect" : [ 167.514648, 16.0, 116.0, 17.0 ],
					"style" : "",
					"text" : "with Ircam descriptors",
					"textcolor" : [ 0.626659, 0.011445, 0.044897, 1.0 ]
				}

			}
, 			{
				"box" : 				{
					"id" : "obj-12",
					"maxclass" : "newobj",
					"numinlets" : 1,
					"numoutlets" : 1,
					"outlettype" : [ "" ],
					"patching_rect" : [ 16.330017, 314.0, 79.0, 22.0 ],
					"style" : "",
					"text" : "absolutepath"
				}

			}
, 			{
				"box" : 				{
					"id" : "obj-23",
					"maxclass" : "message",
					"numinlets" : 2,
					"numoutlets" : 1,
					"outlettype" : [ "" ],
					"patching_rect" : [ 461.0, 258.0, 43.0, 22.0 ],
					"style" : "",
					"text" : "set $1"
				}

			}
, 			{
				"box" : 				{
					"id" : "obj-18",
					"maxclass" : "newobj",
					"numinlets" : 1,
					"numoutlets" : 1,
					"outlettype" : [ "bang" ],
					"patching_rect" : [ 461.0, 196.0, 60.0, 22.0 ],
					"style" : "",
					"text" : "loadbang"
				}

			}
, 			{
				"box" : 				{
					"id" : "obj-13",
					"maxclass" : "message",
					"numinlets" : 2,
					"numoutlets" : 1,
					"outlettype" : [ "" ],
					"patching_rect" : [ 461.0, 229.0, 31.0, 22.0 ],
					"style" : "",
					"text" : "120"
				}

			}
, 			{
				"box" : 				{
					"id" : "obj-2",
					"maxclass" : "comment",
					"numinlets" : 1,
					"numoutlets" : 0,
					"patching_rect" : [ 423.5, 129.0, 150.0, 20.0 ],
					"presentation" : 1,
					"presentation_rect" : [ 303.5, 33.0, 38.0, 20.0 ],
					"style" : "",
					"text" : "Load"
				}

			}
, 			{
				"box" : 				{
					"id" : "obj-25",
					"maxclass" : "newobj",
					"numinlets" : 2,
					"numoutlets" : 2,
					"outlettype" : [ "", "" ],
					"patching_rect" : [ 16.330017, 282.0, 61.0, 22.0 ],
					"style" : "",
					"text" : "route text"
				}

			}
, 			{
				"box" : 				{
					"id" : "obj-15",
					"maxclass" : "textedit",
					"numinlets" : 1,
					"numoutlets" : 4,
					"outlettype" : [ "", "int", "", "" ],
					"parameter_enable" : 0,
					"patching_rect" : [ 16.330017, 225.0, 294.0, 42.0 ],
					"presentation" : 1,
					"presentation_rect" : [ 4.0, 62.0, 370.0, 42.0 ],
					"style" : ""
				}

			}
, 			{
				"box" : 				{
					"id" : "obj-6",
					"maxclass" : "number",
					"numinlets" : 1,
					"numoutlets" : 2,
					"outlettype" : [ "", "bang" ],
					"parameter_enable" : 0,
					"patching_rect" : [ 393.330017, 245.0, 50.0, 22.0 ],
					"presentation" : 1,
					"presentation_rect" : [ 284.330017, 110.0, 50.0, 22.0 ],
					"style" : ""
				}

			}
, 			{
				"box" : 				{
					"fontface" : 3,
					"fontsize" : 14.0,
					"id" : "obj-27",
					"maxclass" : "comment",
					"numinlets" : 1,
					"numoutlets" : 0,
					"patching_rect" : [ 25.0, 30.0, 218.0, 22.0 ],
					"presentation" : 1,
					"presentation_rect" : [ 2.0, 1.0, 221.0, 22.0 ],
					"style" : "",
					"text" : "DYCI2 analyser-renderer preset"
				}

			}
, 			{
				"box" : 				{
					"id" : "obj-5",
					"maxclass" : "message",
					"numinlets" : 2,
					"numoutlets" : 1,
					"outlettype" : [ "" ],
					"patching_rect" : [ 25.0, 126.0, 43.0, 22.0 ],
					"style" : "",
					"text" : "set $1"
				}

			}
, 			{
				"box" : 				{
					"fontface" : 2,
					"id" : "obj-4",
					"maxclass" : "comment",
					"numinlets" : 1,
					"numoutlets" : 0,
					"patching_rect" : [ 25.0, 158.0, 150.0, 20.0 ],
					"presentation" : 1,
					"presentation_rect" : [ 232.0, 3.0, 146.0, 20.0 ],
					"style" : "",
					"text" : "#1"
				}

			}
, 			{
				"box" : 				{
					"id" : "obj-22",
					"maxclass" : "newobj",
					"numinlets" : 1,
					"numoutlets" : 1,
					"outlettype" : [ "" ],
					"patching_rect" : [ 25.0, 94.0, 92.0, 22.0 ],
					"style" : "",
					"text" : "loadmess #1"
				}

			}
, 			{
				"box" : 				{
					"id" : "obj-117",
					"maxclass" : "comment",
					"numinlets" : 1,
					"numoutlets" : 0,
					"patching_rect" : [ 25.0, 64.0, 310.0, 20.0 ],
					"presentation" : 1,
					"presentation_rect" : [ 0.0, 23.0, 222.0, 20.0 ],
					"style" : "",
					"text" : "(Must be embedded in the pacher)"
				}

			}
, 			{
				"box" : 				{
					"id" : "obj-21",
					"maxclass" : "comment",
					"numinlets" : 1,
					"numoutlets" : 0,
					"patching_rect" : [ 143.330017, 187.0, 150.0, 20.0 ],
					"presentation" : 1,
					"presentation_rect" : [ 2.0, 42.0, 150.0, 20.0 ],
					"style" : "",
					"text" : "Path audio file"
				}

			}
, 			{
				"box" : 				{
					"id" : "obj-20",
					"maxclass" : "comment",
					"numinlets" : 1,
					"numoutlets" : 0,
					"patching_rect" : [ 465.5, 305.0, 150.0, 20.0 ],
					"presentation" : 1,
					"presentation_rect" : [ 171.330017, 110.0, 111.0, 20.0 ],
					"style" : "",
					"text" : "Number of clusters"
				}

			}
, 			{
				"box" : 				{
					"annotation" : "Bang to load",
					"comment" : "Bang to load",
					"hint" : "Bang to load",
					"id" : "obj-17",
					"index" : 0,
					"maxclass" : "inlet",
					"numinlets" : 0,
					"numoutlets" : 1,
					"outlettype" : [ "" ],
					"patching_rect" : [ 380.830017, 85.0, 30.0, 30.0 ],
					"style" : ""
				}

			}
, 			{
				"box" : 				{
					"bgcolor" : [ 0.890246, 0.66949, 0.2834, 1.0 ],
					"id" : "obj-16",
					"maxclass" : "button",
					"numinlets" : 1,
					"numoutlets" : 1,
					"outlettype" : [ "bang" ],
					"patching_rect" : [ 380.830017, 129.0, 24.0, 24.0 ],
					"presentation" : 1,
					"presentation_rect" : [ 345.830017, 31.0, 24.0, 24.0 ],
					"style" : ""
				}

			}
, 			{
				"box" : 				{
					"id" : "obj-14",
					"maxclass" : "newobj",
					"numinlets" : 1,
					"numoutlets" : 3,
					"outlettype" : [ "bang", "bang", "bang" ],
					"patching_rect" : [ 380.830017, 163.0, 44.0, 22.0 ],
					"style" : "",
					"text" : "t b b b"
				}

			}
, 			{
				"box" : 				{
					"id" : "obj-11",
					"maxclass" : "newobj",
					"numinlets" : 1,
					"numoutlets" : 1,
					"outlettype" : [ "" ],
					"patching_rect" : [ 16.330017, 348.0, 100.0, 22.0 ],
					"style" : "",
					"text" : "prepend /filepath"
				}

			}
, 			{
				"box" : 				{
					"id" : "obj-10",
					"maxclass" : "newobj",
					"numinlets" : 1,
					"numoutlets" : 1,
					"outlettype" : [ "" ],
					"patching_rect" : [ 650.0, 314.0, 87.0, 22.0 ],
					"style" : "",
					"text" : "prepend /desc"
				}

			}
, 			{
				"box" : 				{
					"id" : "obj-3",
					"maxclass" : "newobj",
					"numinlets" : 1,
					"numoutlets" : 1,
					"outlettype" : [ "" ],
					"patching_rect" : [ 393.330017, 340.0, 123.0, 22.0 ],
					"style" : "",
					"text" : "prepend /nb_clusters"
				}

			}
, 			{
				"box" : 				{
					"annotation" : "To analyzer-renderer",
					"comment" : "To analyzer-renderer",
					"hint" : "To analyzer-renderer",
					"id" : "obj-1",
					"index" : 0,
					"maxclass" : "outlet",
					"numinlets" : 1,
					"numoutlets" : 0,
					"patching_rect" : [ 393.330017, 434.329956, 30.0, 30.0 ],
					"style" : ""
				}

			}
, 			{
				"box" : 				{
					"angle" : 270.0,
					"grad1" : [ 0.862745, 0.870588, 0.878431, 0.27 ],
					"grad2" : [ 0.32549, 0.345098, 0.372549, 0.75 ],
					"id" : "obj-7",
					"maxclass" : "panel",
					"mode" : 1,
					"numinlets" : 1,
					"numoutlets" : 0,
					"patching_rect" : [ 25.0, 24.0, 230.0, 32.0 ],
					"presentation" : 1,
					"presentation_rect" : [ 2.0, 3.0, 376.0, 140.0 ],
					"proportion" : 0.39,
					"style" : ""
				}

			}
 ],
		"lines" : [ 			{
				"patchline" : 				{
					"destination" : [ "obj-1", 0 ],
					"source" : [ "obj-10", 0 ]
				}

			}
, 			{
				"patchline" : 				{
					"destination" : [ "obj-1", 0 ],
					"source" : [ "obj-11", 0 ]
				}

			}
, 			{
				"patchline" : 				{
					"destination" : [ "obj-11", 0 ],
					"source" : [ "obj-12", 0 ]
				}

			}
, 			{
				"patchline" : 				{
					"destination" : [ "obj-23", 0 ],
					"source" : [ "obj-13", 0 ]
				}

			}
, 			{
				"patchline" : 				{
					"destination" : [ "obj-15", 0 ],
					"source" : [ "obj-14", 0 ]
				}

			}
, 			{
				"patchline" : 				{
					"destination" : [ "obj-53", 0 ],
					"source" : [ "obj-14", 2 ]
				}

			}
, 			{
				"patchline" : 				{
					"destination" : [ "obj-6", 0 ],
					"source" : [ "obj-14", 1 ]
				}

			}
, 			{
				"patchline" : 				{
					"destination" : [ "obj-25", 0 ],
					"source" : [ "obj-15", 0 ]
				}

			}
, 			{
				"patchline" : 				{
					"destination" : [ "obj-14", 0 ],
					"source" : [ "obj-16", 0 ]
				}

			}
, 			{
				"patchline" : 				{
					"destination" : [ "obj-16", 0 ],
					"source" : [ "obj-17", 0 ]
				}

			}
, 			{
				"patchline" : 				{
					"destination" : [ "obj-13", 0 ],
					"source" : [ "obj-18", 0 ]
				}

			}
, 			{
				"patchline" : 				{
					"destination" : [ "obj-5", 0 ],
					"source" : [ "obj-22", 0 ]
				}

			}
, 			{
				"patchline" : 				{
					"destination" : [ "obj-6", 0 ],
					"source" : [ "obj-23", 0 ]
				}

			}
, 			{
				"patchline" : 				{
					"destination" : [ "obj-12", 0 ],
					"source" : [ "obj-25", 0 ]
				}

			}
, 			{
				"patchline" : 				{
					"destination" : [ "obj-1", 0 ],
					"source" : [ "obj-3", 0 ]
				}

			}
, 			{
				"patchline" : 				{
					"destination" : [ "obj-4", 0 ],
					"source" : [ "obj-5", 0 ]
				}

			}
, 			{
				"patchline" : 				{
					"destination" : [ "obj-10", 0 ],
					"source" : [ "obj-53", 0 ]
				}

			}
, 			{
				"patchline" : 				{
					"destination" : [ "obj-8", 0 ],
					"source" : [ "obj-53", 1 ]
				}

			}
, 			{
				"patchline" : 				{
					"destination" : [ "obj-13", 1 ],
					"order" : 0,
					"source" : [ "obj-6", 0 ]
				}

			}
, 			{
				"patchline" : 				{
					"destination" : [ "obj-3", 0 ],
					"order" : 1,
					"source" : [ "obj-6", 0 ]
				}

			}
, 			{
				"patchline" : 				{
					"destination" : [ "obj-1", 0 ],
					"source" : [ "obj-8", 0 ]
				}

			}
 ],
		"dependency_cache" : [  ],
		"autosave" : 0
	}

}
