{
	"patcher" : 	{
		"fileversion" : 1,
		"appversion" : 		{
			"major" : 8,
			"minor" : 1,
			"revision" : 8,
			"architecture" : "x64",
			"modernui" : 1
		}
,
		"classnamespace" : "box",
		"rect" : [ 100.0, 100.0, 664.0, 663.0 ],
		"bglocked" : 0,
		"openinpresentation" : 0,
		"default_fontsize" : 12.0,
		"default_fontface" : 0,
		"default_fontname" : "Arial",
		"gridonopen" : 1,
		"gridsize" : [ 15.0, 15.0 ],
		"gridsnaponopen" : 1,
		"objectsnaponopen" : 1,
		"statusbarvisible" : 2,
		"toolbarvisible" : 1,
		"lefttoolbarpinned" : 0,
		"toptoolbarpinned" : 0,
		"righttoolbarpinned" : 0,
		"bottomtoolbarpinned" : 0,
		"toolbars_unpinned_last_save" : 0,
		"tallnewobj" : 0,
		"boxanimatetime" : 200,
		"enablehscroll" : 1,
		"enablevscroll" : 1,
		"devicewidth" : 0.0,
		"description" : "",
		"digest" : "",
		"tags" : "",
		"style" : "",
		"subpatcher_template" : "",
		"showrootpatcherontab" : 0,
		"showontab" : 0,
		"assistshowspatchername" : 0,
		"boxes" : [ 			{
				"box" : 				{
					"id" : "obj-81",
					"maxclass" : "newobj",
					"numinlets" : 1,
					"numoutlets" : 1,
					"outlettype" : [ "" ],
					"patching_rect" : [ 391.745605000000012, 280.0, 135.0, 22.0 ],
					"saved_object_attributes" : 					{
						"filename" : "helpstarter.js",
						"parameter_enable" : 0
					}
,
					"text" : "js helpstarter.js pipo.lpc"
				}

			}
, 			{
				"box" : 				{
					"id" : "obj-82",
					"maxclass" : "newobj",
					"numinlets" : 0,
					"numoutlets" : 0,
					"patcher" : 					{
						"fileversion" : 1,
						"appversion" : 						{
							"major" : 8,
							"minor" : 1,
							"revision" : 8,
							"architecture" : "x64",
							"modernui" : 1
						}
,
						"classnamespace" : "box",
						"rect" : [ 100.0, 126.0, 664.0, 637.0 ],
						"bglocked" : 1,
						"openinpresentation" : 0,
						"default_fontsize" : 12.0,
						"default_fontface" : 0,
						"default_fontname" : "Arial",
						"gridonopen" : 1,
						"gridsize" : [ 5.0, 5.0 ],
						"gridsnaponopen" : 1,
						"objectsnaponopen" : 1,
						"statusbarvisible" : 2,
						"toolbarvisible" : 1,
						"lefttoolbarpinned" : 0,
						"toptoolbarpinned" : 0,
						"righttoolbarpinned" : 0,
						"bottomtoolbarpinned" : 0,
						"toolbars_unpinned_last_save" : 0,
						"tallnewobj" : 0,
						"boxanimatetime" : 200,
						"enablehscroll" : 1,
						"enablevscroll" : 1,
						"devicewidth" : 0.0,
						"description" : "",
						"digest" : "",
						"tags" : "",
						"style" : "",
						"subpatcher_template" : "",
						"showontab" : 1,
						"assistshowspatchername" : 0,
						"boxes" : [ 							{
								"box" : 								{
									"hidden" : 1,
									"id" : "obj-32",
									"maxclass" : "newobj",
									"numinlets" : 1,
									"numoutlets" : 0,
									"patcher" : 									{
										"fileversion" : 1,
										"appversion" : 										{
											"major" : 8,
											"minor" : 1,
											"revision" : 8,
											"architecture" : "x64",
											"modernui" : 1
										}
,
										"classnamespace" : "box",
										"rect" : [ 84.0, 129.0, 640.0, 480.0 ],
										"bglocked" : 0,
										"openinpresentation" : 0,
										"default_fontsize" : 12.0,
										"default_fontface" : 0,
										"default_fontname" : "Arial",
										"gridonopen" : 1,
										"gridsize" : [ 15.0, 15.0 ],
										"gridsnaponopen" : 1,
										"objectsnaponopen" : 1,
										"statusbarvisible" : 2,
										"toolbarvisible" : 1,
										"lefttoolbarpinned" : 0,
										"toptoolbarpinned" : 0,
										"righttoolbarpinned" : 0,
										"bottomtoolbarpinned" : 0,
										"toolbars_unpinned_last_save" : 0,
										"tallnewobj" : 0,
										"boxanimatetime" : 200,
										"enablehscroll" : 1,
										"enablevscroll" : 1,
										"devicewidth" : 0.0,
										"description" : "",
										"digest" : "",
										"tags" : "",
										"style" : "",
										"subpatcher_template" : "",
										"assistshowspatchername" : 0,
										"boxes" : [ 											{
												"box" : 												{
													"comment" : "",
													"id" : "obj-30",
													"index" : 1,
													"maxclass" : "inlet",
													"numinlets" : 0,
													"numoutlets" : 1,
													"outlettype" : [ "" ],
													"patching_rect" : [ 241.0, 171.5, 30.0, 30.0 ]
												}

											}
, 											{
												"box" : 												{
													"id" : "obj-14",
													"maxclass" : "newobj",
													"numinlets" : 1,
													"numoutlets" : 1,
													"outlettype" : [ "" ],
													"patching_rect" : [ 241.0, 271.0, 53.0, 22.0 ],
													"text" : "pcontrol"
												}

											}
, 											{
												"box" : 												{
													"id" : "obj-13",
													"maxclass" : "newobj",
													"numinlets" : 1,
													"numoutlets" : 1,
													"outlettype" : [ "" ],
													"patching_rect" : [ 241.0, 243.0, 117.0, 22.0 ],
													"text" : "prepend loadunique"
												}

											}
, 											{
												"box" : 												{
													"id" : "obj-3",
													"maxclass" : "newobj",
													"numinlets" : 1,
													"numoutlets" : 1,
													"outlettype" : [ "" ],
													"patching_rect" : [ 241.0, 215.0, 112.0, 22.0 ],
													"text" : "sprintf %s.maxhelp"
												}

											}
 ],
										"lines" : [ 											{
												"patchline" : 												{
													"destination" : [ "obj-14", 0 ],
													"source" : [ "obj-13", 0 ]
												}

											}
, 											{
												"patchline" : 												{
													"destination" : [ "obj-13", 0 ],
													"source" : [ "obj-3", 0 ]
												}

											}
, 											{
												"patchline" : 												{
													"destination" : [ "obj-3", 0 ],
													"source" : [ "obj-30", 0 ]
												}

											}
 ]
									}
,
									"patching_rect" : [ 451.980102999999986, 8.0, 70.0, 22.0 ],
									"saved_object_attributes" : 									{
										"description" : "",
										"digest" : "",
										"globalpatchername" : "",
										"tags" : ""
									}
,
									"text" : "p load-help"
								}

							}
, 							{
								"box" : 								{
									"fontname" : "Arial",
									"fontsize" : 12.0,
									"id" : "obj-41",
									"maxclass" : "message",
									"numinlets" : 2,
									"numoutlets" : 1,
									"outlettype" : [ "" ],
									"patching_rect" : [ 525.0, 9.0, 130.0, 22.0 ],
									"text" : "gettingstartedwithPiPo"
								}

							}
, 							{
								"box" : 								{
									"attr" : "lpc.ncoefs",
									"fontsize" : 10.0,
									"id" : "obj-16",
									"maxclass" : "attrui",
									"numinlets" : 1,
									"numoutlets" : 1,
									"outlettype" : [ "" ],
									"patching_rect" : [ 489.009887999999989, 362.862487999999985, 101.0, 20.0 ],
									"text_width" : 70.0
								}

							}
, 							{
								"box" : 								{
									"fontname" : "Arial",
									"fontsize" : 8.0,
									"hidden" : 1,
									"id" : "obj-14",
									"maxclass" : "newobj",
									"numinlets" : 3,
									"numoutlets" : 3,
									"outlettype" : [ "bang", "bang", "" ],
									"patching_rect" : [ 432.0, 67.0, 46.0, 17.0 ],
									"text" : "select 1 0"
								}

							}
, 							{
								"box" : 								{
									"fontname" : "Arial",
									"fontsize" : 8.0,
									"hidden" : 1,
									"id" : "obj-17",
									"maxclass" : "newobj",
									"numinlets" : 1,
									"numoutlets" : 1,
									"outlettype" : [ "int" ],
									"patching_rect" : [ 432.0, 46.0, 32.0, 17.0 ],
									"text" : "active"
								}

							}
, 							{
								"box" : 								{
									"fontname" : "Verdana",
									"fontsize" : 8.0,
									"hidden" : 1,
									"id" : "obj-28",
									"maxclass" : "message",
									"numinlets" : 2,
									"numoutlets" : 1,
									"outlettype" : [ "" ],
									"patching_rect" : [ 432.0, 86.0, 59.0, 18.0 ],
									"text" : "foremost lpc"
								}

							}
, 							{
								"box" : 								{
									"fontname" : "Arial",
									"fontsize" : 8.0,
									"hidden" : 1,
									"id" : "obj-29",
									"maxclass" : "newobj",
									"numinlets" : 1,
									"numoutlets" : 1,
									"outlettype" : [ "" ],
									"patching_rect" : [ 469.5, 105.5, 41.0, 17.0 ],
									"text" : "deferlow"
								}

							}
, 							{
								"box" : 								{
									"bubble" : 1,
									"id" : "obj-27",
									"linecount" : 2,
									"maxclass" : "comment",
									"numinlets" : 1,
									"numoutlets" : 0,
									"patching_rect" : [ 337.009887999999989, 514.0, 110.0, 37.0 ],
									"text" : "number of LPC coefficients"
								}

							}
, 							{
								"box" : 								{
									"bubble" : 1,
									"id" : "obj-63",
									"maxclass" : "comment",
									"numinlets" : 1,
									"numoutlets" : 0,
									"patching_rect" : [ 66.0, 535.22497599999997, 70.0, 24.0 ],
									"text" : "process"
								}

							}
, 							{
								"box" : 								{
									"id" : "obj-36",
									"maxclass" : "button",
									"numinlets" : 1,
									"numoutlets" : 1,
									"outlettype" : [ "bang" ],
									"parameter_enable" : 0,
									"patching_rect" : [ 35.0, 535.22497599999997, 24.0, 24.0 ]
								}

							}
, 							{
								"box" : 								{
									"fontsize" : 16.0,
									"id" : "obj-12",
									"maxclass" : "comment",
									"numinlets" : 1,
									"numoutlets" : 0,
									"patching_rect" : [ 347.753814999999975, 137.725006000000008, 112.0, 24.0 ],
									"text" : "Offline version"
								}

							}
, 							{
								"box" : 								{
									"fontsize" : 16.0,
									"id" : "obj-10",
									"maxclass" : "comment",
									"numinlets" : 1,
									"numoutlets" : 0,
									"patching_rect" : [ 489.009887999999989, 131.0, 117.0, 24.0 ],
									"text" : "Online version "
								}

							}
, 							{
								"box" : 								{
									"id" : "obj-7",
									"linecount" : 2,
									"maxclass" : "newobj",
									"numinlets" : 2,
									"numoutlets" : 4,
									"outlettype" : [ "", "", "int", "" ],
									"patching_rect" : [ 35.0, 565.5, 429.508788999999979, 35.0 ],
									"text" : "mubu.process lpc-help audio slice:lpc @name lpc @info gui \"interface multiwave, thickness 2, colormode rainbow, autobounds minmax\" @process 0"
								}

							}
, 							{
								"box" : 								{
									"fontname" : "Arial",
									"fontsize" : 12.0,
									"hidden" : 1,
									"id" : "obj-73",
									"maxclass" : "newobj",
									"numinlets" : 1,
									"numoutlets" : 1,
									"outlettype" : [ "bang" ],
									"patching_rect" : [ 33.0, 139.0, 60.0, 22.0 ],
									"text" : "loadbang"
								}

							}
, 							{
								"box" : 								{
									"fontname" : "Arial",
									"fontsize" : 12.0,
									"id" : "obj-15",
									"maxclass" : "message",
									"numinlets" : 2,
									"numoutlets" : 1,
									"outlettype" : [ "" ],
									"patching_rect" : [ 33.0, 165.225006000000008, 222.0, 22.0 ],
									"text" : "readappend cherokee.aif @name audio"
								}

							}
, 							{
								"box" : 								{
									"alignviewbounds" : 0,
									"autobounds" : 2,
									"autorefreshrate" : 0,
									"autoupdate" : 120.0,
									"bgcolor" : [ 1.0, 1.0, 1.0, 1.0 ],
									"bufferchooser_bgcolor" : [ 1.0, 1.0, 1.0, 1.0 ],
									"bufferchooser_fgcolor" : [ 0.0, 0.0, 0.0, 1.0 ],
									"bufferchooser_position" : 1,
									"bufferchooser_shape" : "buttons",
									"bufferchooser_size" : 16,
									"bufferchooser_visible" : 0,
									"cursor_circleheight" : 3.0,
									"cursor_circlewidth" : 3.0,
									"cursor_color" : [ 1.0, 0.0, 0.0, 1.0 ],
									"cursor_followmouse" : 0,
									"cursor_noringoffset" : 0,
									"cursor_position" : -1.0,
									"cursor_shape" : "bar",
									"cursor_size" : 3,
									"cursor_sizeunit" : 0,
									"cursor_visible" : 0,
									"domain_bounds" : [ 0.0, 2844.739229024943143 ],
									"domainruler_bgcolor" : [ 1.0, 1.0, 1.0, 1.0 ],
									"domainruler_fgcolor" : [ 0.0, 0.0, 0.0, 1.0 ],
									"domainruler_grid" : 0,
									"domainruler_position" : 0,
									"domainruler_size" : 15,
									"domainruler_unit" : 0,
									"domainruler_visible" : 0,
									"domainscrollbar_color" : [ 1.0, 1.0, 1.0, 1.0 ],
									"domainscrollbar_size" : 10,
									"domainscrollbar_visible" : 1,
									"embed" : 0,
									"externalfiles" : 1,
									"freeze" : 0,
									"id" : "obj-6",
									"layout" : 0,
									"maxclass" : "imubu",
									"name" : "lpc-help",
									"numinlets" : 1,
									"numoutlets" : 1,
									"opacity" : 0.600000023841858,
									"opacityprogressive" : 0,
									"orientation" : 0,
									"outlettype" : [ "" ],
									"outputkeys" : 0,
									"outputmouse" : 0,
									"outputselection" : 0,
									"outputtimeselection" : 0,
									"outputvalues" : 0,
									"outputviewname" : 0,
									"parameter_enable" : 0,
									"patching_rect" : [ 33.0, 197.0, 431.508788999999979, 305.0 ],
									"rangeruler_grid" : 0,
									"rangeruler_size" : 35,
									"rangeruler_visible" : 0,
									"region_bounds" : [ 0.0, 0.0 ],
									"region_color" : [ 0.8, 0.7, 0.7, 1.0 ],
									"region_visible" : 1,
									"resamplefiles" : 0,
									"snaprate" : 1000.0,
									"split_color" : [ 1.0, 0.0, 0.0, 1.0 ],
									"split_size" : 2,
									"split_visible" : 1,
									"tabs_position" : 0,
									"tabs_size" : 20,
									"tabs_visible" : 1,
									"tool" : "edit",
									"toolbar_bgcolor" : [ 1.0, 1.0, 1.0, 1.0 ],
									"toolbar_position" : 1,
									"toolbar_size" : 30,
									"toolbar_visible" : 2,
									"useplaceholders" : 1,
									"verbose" : 1,
									"windresize" : 0
								}

							}
, 							{
								"box" : 								{
									"id" : "obj-38",
									"linecount" : 2,
									"maxclass" : "comment",
									"numinlets" : 1,
									"numoutlets" : 0,
									"patching_rect" : [ 28.0, 82.5, 389.0, 33.0 ],
									"text" : "pipo.lpc computes the linear prediction coefficients on chunks of signal by using autocorrelation and levinson-durbin decomposition"
								}

							}
, 							{
								"box" : 								{
									"id" : "obj-37",
									"maxclass" : "message",
									"numinlets" : 2,
									"numoutlets" : 1,
									"outlettype" : [ "" ],
									"patching_rect" : [ 582.009888000000046, 388.5, 37.0, 22.0 ],
									"text" : "reset"
								}

							}
, 							{
								"box" : 								{
									"id" : "obj-9",
									"linecount" : 10,
									"maxclass" : "message",
									"numinlets" : 2,
									"numoutlets" : 1,
									"outlettype" : [ "" ],
									"patching_rect" : [ 547.009888000000046, 457.5, 66.0, 143.0 ],
									"text" : "1. -1.543113 1.6527 -1.875141 1.86878 -1.804396 1.489675 -1.139614 0.594245 -0.203156"
								}

							}
, 							{
								"box" : 								{
									"id" : "obj-8",
									"maxclass" : "meter~",
									"numinlets" : 1,
									"numoutlets" : 1,
									"outlettype" : [ "float" ],
									"patching_rect" : [ 565.009888000000046, 216.0, 21.0, 140.0 ]
								}

							}
, 							{
								"box" : 								{
									"id" : "obj-3",
									"maxclass" : "gain~",
									"multichannelvariant" : 0,
									"numinlets" : 1,
									"numoutlets" : 2,
									"outlettype" : [ "signal", "" ],
									"parameter_enable" : 0,
									"patching_rect" : [ 537.009888000000046, 216.0, 22.0, 140.0 ]
								}

							}
, 							{
								"box" : 								{
									"id" : "obj-4",
									"maxclass" : "ezadc~",
									"numinlets" : 1,
									"numoutlets" : 2,
									"outlettype" : [ "signal", "signal" ],
									"patching_rect" : [ 537.009888000000046, 159.225006000000008, 45.0, 45.0 ]
								}

							}
, 							{
								"box" : 								{
									"fontsize" : 16.0,
									"id" : "obj-1",
									"maxclass" : "newobj",
									"numinlets" : 1,
									"numoutlets" : 3,
									"outlettype" : [ "", "float", "" ],
									"patching_rect" : [ 506.009887999999989, 415.0, 113.0, 26.0 ],
									"saved_object_attributes" : 									{
										"active" : 1
									}
,
									"text" : "pipo~ slice:lpc"
								}

							}
, 							{
								"box" : 								{
									"attr" : "lpc.ncoefs",
									"id" : "obj-5",
									"maxclass" : "attrui",
									"numinlets" : 1,
									"numoutlets" : 1,
									"outlettype" : [ "" ],
									"patching_rect" : [ 209.0, 521.5, 116.0, 22.0 ],
									"text_width" : 80.0
								}

							}
, 							{
								"box" : 								{
									"background" : 1,
									"bgcolor" : [ 1.0, 0.788235, 0.470588, 1.0 ],
									"fontface" : 1,
									"hint" : "",
									"id" : "obj-19",
									"ignoreclick" : 1,
									"legacytextcolor" : 1,
									"maxclass" : "textbutton",
									"numinlets" : 1,
									"numoutlets" : 3,
									"outlettype" : [ "", "", "int" ],
									"parameter_enable" : 0,
									"patching_rect" : [ 598.5, 171.725006000000008, 20.0, 20.0 ],
									"rounded" : 60.0,
									"text" : "1",
									"textcolor" : [ 0.34902, 0.34902, 0.34902, 1.0 ]
								}

							}
, 							{
								"box" : 								{
									"background" : 1,
									"bgcolor" : [ 1.0, 0.788235, 0.470588, 1.0 ],
									"fontface" : 1,
									"hint" : "",
									"id" : "obj-93",
									"ignoreclick" : 1,
									"legacytextcolor" : 1,
									"maxclass" : "textbutton",
									"numinlets" : 1,
									"numoutlets" : 3,
									"outlettype" : [ "", "", "int" ],
									"parameter_enable" : 0,
									"patching_rect" : [ 141.5, 537.22497599999997, 20.0, 20.0 ],
									"rounded" : 60.0,
									"text" : "1",
									"textcolor" : [ 0.34902, 0.34902, 0.34902, 1.0 ]
								}

							}
, 							{
								"box" : 								{
									"background" : 1,
									"fontface" : 2,
									"fontname" : "Arial",
									"fontsize" : 16.0,
									"id" : "obj-2",
									"maxclass" : "comment",
									"numinlets" : 1,
									"numoutlets" : 0,
									"patching_rect" : [ 28.0, 55.0, 275.0, 24.0 ],
									"text" : "compute linear prediction coefficients"
								}

							}
, 							{
								"box" : 								{
									"angle" : 270.0,
									"background" : 1,
									"bgcolor" : [ 1.0, 1.0, 1.0, 0.0 ],
									"border" : 1,
									"bordercolor" : [ 0.65098, 0.666667, 0.662745, 1.0 ],
									"id" : "obj-11",
									"maxclass" : "panel",
									"mode" : 0,
									"numinlets" : 1,
									"numoutlets" : 0,
									"patching_rect" : [ 480.754944000000023, 129.725006000000008, 170.509949000000006, 485.0 ],
									"proportion" : 0.39
								}

							}
, 							{
								"box" : 								{
									"background" : 1,
									"bgcolor" : [ 0.878431, 0.878431, 0.858824, 0.0 ],
									"fontface" : 3,
									"fontname" : "Arial",
									"fontsize" : 36.0,
									"id" : "obj-34",
									"maxclass" : "comment",
									"numinlets" : 1,
									"numoutlets" : 0,
									"patching_rect" : [ 28.0, 8.0, 148.0, 47.0 ],
									"text" : "pipo.lpc",
									"varname" : "HelpTitle"
								}

							}
, 							{
								"box" : 								{
									"angle" : 270.0,
									"background" : 1,
									"bgcolor" : [ 1.0, 1.0, 1.0, 0.0 ],
									"border" : 1,
									"bordercolor" : [ 0.65098, 0.666667, 0.662745, 1.0 ],
									"id" : "obj-13",
									"maxclass" : "panel",
									"mode" : 0,
									"numinlets" : 1,
									"numoutlets" : 0,
									"patching_rect" : [ 17.998840000000001, 131.0, 460.001160000000027, 483.725006000000008 ],
									"proportion" : 0.39
								}

							}
 ],
						"lines" : [ 							{
								"patchline" : 								{
									"destination" : [ "obj-9", 1 ],
									"midpoints" : [ 515.509888000000046, 452.75, 603.509888000000046, 452.75 ],
									"source" : [ "obj-1", 0 ]
								}

							}
, 							{
								"patchline" : 								{
									"destination" : [ "obj-28", 0 ],
									"hidden" : 1,
									"source" : [ "obj-14", 0 ]
								}

							}
, 							{
								"patchline" : 								{
									"destination" : [ "obj-6", 0 ],
									"source" : [ "obj-15", 0 ]
								}

							}
, 							{
								"patchline" : 								{
									"destination" : [ "obj-1", 0 ],
									"source" : [ "obj-16", 0 ]
								}

							}
, 							{
								"patchline" : 								{
									"destination" : [ "obj-14", 0 ],
									"hidden" : 1,
									"source" : [ "obj-17", 0 ]
								}

							}
, 							{
								"patchline" : 								{
									"destination" : [ "obj-29", 0 ],
									"hidden" : 1,
									"source" : [ "obj-28", 0 ]
								}

							}
, 							{
								"patchline" : 								{
									"destination" : [ "obj-6", 0 ],
									"hidden" : 1,
									"midpoints" : [ 479.0, 190.568756000000008, 42.5, 190.568756000000008 ],
									"source" : [ "obj-29", 0 ]
								}

							}
, 							{
								"patchline" : 								{
									"destination" : [ "obj-1", 0 ],
									"source" : [ "obj-3", 0 ]
								}

							}
, 							{
								"patchline" : 								{
									"destination" : [ "obj-7", 0 ],
									"source" : [ "obj-36", 0 ]
								}

							}
, 							{
								"patchline" : 								{
									"destination" : [ "obj-1", 0 ],
									"midpoints" : [ 591.509888000000046, 412.25, 515.509888000000046, 412.25 ],
									"source" : [ "obj-37", 0 ]
								}

							}
, 							{
								"patchline" : 								{
									"destination" : [ "obj-3", 0 ],
									"order" : 1,
									"source" : [ "obj-4", 0 ]
								}

							}
, 							{
								"patchline" : 								{
									"destination" : [ "obj-8", 0 ],
									"order" : 0,
									"source" : [ "obj-4", 0 ]
								}

							}
, 							{
								"patchline" : 								{
									"destination" : [ "obj-32", 0 ],
									"hidden" : 1,
									"source" : [ "obj-41", 0 ]
								}

							}
, 							{
								"patchline" : 								{
									"destination" : [ "obj-7", 0 ],
									"midpoints" : [ 218.5, 562.0, 44.5, 562.0 ],
									"source" : [ "obj-5", 0 ]
								}

							}
, 							{
								"patchline" : 								{
									"destination" : [ "obj-15", 0 ],
									"hidden" : 1,
									"source" : [ "obj-73", 0 ]
								}

							}
 ],
						"bgcolor" : [ 0.898, 0.898, 0.898, 1.0 ],
						"editing_bgcolor" : [ 0.898, 0.898, 0.898, 1.0 ]
					}
,
					"patching_rect" : [ 338.745605000000012, 218.725006000000008, 50.0, 22.0 ],
					"saved_object_attributes" : 					{
						"description" : "",
						"digest" : "",
						"editing_bgcolor" : [ 0.898, 0.898, 0.898, 1.0 ],
						"globalpatchername" : "",
						"locked_bgcolor" : [ 0.898, 0.898, 0.898, 1.0 ],
						"tags" : ""
					}
,
					"text" : "p basic",
					"varname" : "basic_tab"
				}

			}
, 			{
				"box" : 				{
					"id" : "obj-83",
					"maxclass" : "newobj",
					"numinlets" : 0,
					"numoutlets" : 0,
					"patcher" : 					{
						"fileversion" : 1,
						"appversion" : 						{
							"major" : 8,
							"minor" : 1,
							"revision" : 8,
							"architecture" : "x64",
							"modernui" : 1
						}
,
						"classnamespace" : "box",
						"rect" : [ 0.0, 26.0, 664.0, 637.0 ],
						"bglocked" : 0,
						"openinpresentation" : 0,
						"default_fontsize" : 12.0,
						"default_fontface" : 0,
						"default_fontname" : "Arial",
						"gridonopen" : 1,
						"gridsize" : [ 15.0, 15.0 ],
						"gridsnaponopen" : 1,
						"objectsnaponopen" : 1,
						"statusbarvisible" : 2,
						"toolbarvisible" : 1,
						"lefttoolbarpinned" : 0,
						"toptoolbarpinned" : 0,
						"righttoolbarpinned" : 0,
						"bottomtoolbarpinned" : 0,
						"toolbars_unpinned_last_save" : 0,
						"tallnewobj" : 0,
						"boxanimatetime" : 200,
						"enablehscroll" : 1,
						"enablevscroll" : 1,
						"devicewidth" : 0.0,
						"description" : "",
						"digest" : "",
						"tags" : "",
						"style" : "",
						"subpatcher_template" : "",
						"showontab" : 1,
						"assistshowspatchername" : 0,
						"boxes" : [  ],
						"lines" : [  ]
					}
,
					"patching_rect" : [ 368.745605000000012, 249.0, 50.0, 22.0 ],
					"saved_object_attributes" : 					{
						"description" : "",
						"digest" : "",
						"globalpatchername" : "",
						"tags" : ""
					}
,
					"text" : "p ?",
					"varname" : "q_tab"
				}

			}
 ],
		"lines" : [  ],
		"dependency_cache" : [ 			{
				"name" : "helpstarter.js",
				"bootpath" : "C74:/help/resources",
				"type" : "TEXT",
				"implicit" : 1
			}
, 			{
				"name" : "pipo~.mxo",
				"type" : "iLaX"
			}
, 			{
				"name" : "mubu.mxo",
				"type" : "iLaX"
			}
, 			{
				"name" : "mubu.mxo",
				"type" : "iLaX"
			}
 ],
		"autosave" : 0
	}

}
