{
	"patcher" : 	{
		"fileversion" : 1,
		"appversion" : 		{
			"major" : 8,
			"minor" : 1,
			"revision" : 8,
			"architecture" : "x64",
			"modernui" : 1
		}
,
		"classnamespace" : "box",
		"rect" : [ 100.0, 84.0, 1075.0, 645.0 ],
		"bglocked" : 0,
		"openinpresentation" : 0,
		"default_fontsize" : 10.0,
		"default_fontface" : 0,
		"default_fontname" : "Geneva",
		"gridonopen" : 1,
		"gridsize" : [ 10.0, 10.0 ],
		"gridsnaponopen" : 1,
		"objectsnaponopen" : 1,
		"statusbarvisible" : 2,
		"toolbarvisible" : 1,
		"lefttoolbarpinned" : 0,
		"toptoolbarpinned" : 0,
		"righttoolbarpinned" : 0,
		"bottomtoolbarpinned" : 0,
		"toolbars_unpinned_last_save" : 0,
		"tallnewobj" : 0,
		"boxanimatetime" : 200,
		"enablehscroll" : 1,
		"enablevscroll" : 1,
		"devicewidth" : 0.0,
		"description" : "",
		"digest" : "",
		"tags" : "",
		"style" : "",
		"subpatcher_template" : "",
		"showrootpatcherontab" : 0,
		"showontab" : 0,
		"assistshowspatchername" : 0,
		"boxes" : [ 			{
				"box" : 				{
					"id" : "obj-1",
					"maxclass" : "newobj",
					"numinlets" : 0,
					"numoutlets" : 0,
					"patcher" : 					{
						"fileversion" : 1,
						"appversion" : 						{
							"major" : 8,
							"minor" : 1,
							"revision" : 8,
							"architecture" : "x64",
							"modernui" : 1
						}
,
						"classnamespace" : "box",
						"rect" : [ 100.0, 110.0, 1075.0, 619.0 ],
						"bglocked" : 1,
						"openinpresentation" : 0,
						"default_fontsize" : 12.0,
						"default_fontface" : 0,
						"default_fontname" : "Arial",
						"gridonopen" : 1,
						"gridsize" : [ 5.0, 5.0 ],
						"gridsnaponopen" : 1,
						"objectsnaponopen" : 1,
						"statusbarvisible" : 2,
						"toolbarvisible" : 1,
						"lefttoolbarpinned" : 0,
						"toptoolbarpinned" : 0,
						"righttoolbarpinned" : 0,
						"bottomtoolbarpinned" : 0,
						"toolbars_unpinned_last_save" : 0,
						"tallnewobj" : 0,
						"boxanimatetime" : 200,
						"enablehscroll" : 1,
						"enablevscroll" : 1,
						"devicewidth" : 0.0,
						"description" : "",
						"digest" : "",
						"tags" : "",
						"style" : "",
						"subpatcher_template" : "",
						"showontab" : 1,
						"assistshowspatchername" : 0,
						"boxes" : [ 							{
								"box" : 								{
									"bubble" : 1,
									"fontname" : "Geneva",
									"fontsize" : 10.0,
									"id" : "obj-3",
									"linecount" : 2,
									"maxclass" : "comment",
									"numinlets" : 1,
									"numoutlets" : 0,
									"patching_rect" : [ 211.460205000000002, 537.699981999999977, 363.0, 35.0 ],
									"text" : "Maxmum size of a segment [ms]. The current segment will be ended at this time, and a new segment started."
								}

							}
, 							{
								"box" : 								{
									"attr" : "onseg.maxsize",
									"fontname" : "Geneva",
									"fontsize" : 10.0,
									"id" : "obj-23",
									"maxclass" : "attrui",
									"numinlets" : 1,
									"numoutlets" : 1,
									"outlettype" : [ "" ],
									"patching_rect" : [ 51.460205000000002, 544.699982000000091, 156.0, 21.0 ]
								}

							}
, 							{
								"box" : 								{
									"bubble" : 1,
									"fontname" : "Geneva",
									"fontsize" : 10.0,
									"id" : "obj-4",
									"maxclass" : "comment",
									"numinlets" : 1,
									"numoutlets" : 0,
									"patching_rect" : [ 211.460205000000002, 510.0, 363.0, 23.0 ],
									"text" : "Minimum necessary time interval between two segment onsets [ms]"
								}

							}
, 							{
								"box" : 								{
									"attr" : "onseg.mininter",
									"fontname" : "Geneva",
									"fontsize" : 10.0,
									"id" : "obj-5",
									"maxclass" : "attrui",
									"numinlets" : 1,
									"numoutlets" : 1,
									"outlettype" : [ "" ],
									"patching_rect" : [ 51.460205000000002, 510.0, 156.0, 21.0 ]
								}

							}
, 							{
								"box" : 								{
									"fontname" : "Arial",
									"fontsize" : 16.0,
									"id" : "obj-7",
									"maxclass" : "comment",
									"numinlets" : 1,
									"numoutlets" : 0,
									"patching_rect" : [ 32.5, 383.800049000000001, 84.0, 24.0 ],
									"text" : "Attributes"
								}

							}
, 							{
								"box" : 								{
									"bubble" : 1,
									"fontname" : "Geneva",
									"fontsize" : 10.0,
									"id" : "obj-14",
									"maxclass" : "comment",
									"numinlets" : 1,
									"numoutlets" : 0,
									"patching_rect" : [ 211.460205000000002, 579.137512000000015, 221.0, 23.0 ],
									"text" : "Force placing a marker at start of buffer"
								}

							}
, 							{
								"box" : 								{
									"attr" : "onseg.startisonset",
									"fontname" : "Geneva",
									"fontsize" : 10.0,
									"id" : "obj-15",
									"maxclass" : "attrui",
									"numinlets" : 1,
									"numoutlets" : 1,
									"outlettype" : [ "" ],
									"patching_rect" : [ 51.460205000000002, 580.137512000000015, 156.0, 21.0 ],
									"text_width" : 109.519897
								}

							}
, 							{
								"box" : 								{
									"bubble" : 1,
									"fontname" : "Geneva",
									"fontsize" : 10.0,
									"id" : "obj-65",
									"maxclass" : "comment",
									"numinlets" : 1,
									"numoutlets" : 0,
									"patching_rect" : [ 755.0, 487.137512000000015, 250.0, 23.0 ],
									"text" : "Output segment duration as additional column"
								}

							}
, 							{
								"box" : 								{
									"bubble" : 1,
									"fontname" : "Geneva",
									"fontsize" : 10.0,
									"id" : "obj-63",
									"maxclass" : "comment",
									"numinlets" : 1,
									"numoutlets" : 0,
									"patching_rect" : [ 755.0, 580.137512000000015, 212.0, 23.0 ],
									"text" : "Calculate Segment Standard Deviation"
								}

							}
, 							{
								"box" : 								{
									"bubble" : 1,
									"fontname" : "Geneva",
									"fontsize" : 10.0,
									"id" : "obj-62",
									"maxclass" : "comment",
									"numinlets" : 1,
									"numoutlets" : 0,
									"patching_rect" : [ 755.0, 557.137512000000015, 137.0, 23.0 ],
									"text" : "Calculate Segment Min"
								}

							}
, 							{
								"box" : 								{
									"bubble" : 1,
									"fontname" : "Geneva",
									"fontsize" : 10.0,
									"id" : "obj-61",
									"maxclass" : "comment",
									"numinlets" : 1,
									"numoutlets" : 0,
									"patching_rect" : [ 755.0, 534.137512000000015, 140.0, 23.0 ],
									"text" : "Calculate Segment Max"
								}

							}
, 							{
								"box" : 								{
									"bubble" : 1,
									"fontname" : "Geneva",
									"fontsize" : 10.0,
									"id" : "obj-60",
									"maxclass" : "comment",
									"numinlets" : 1,
									"numoutlets" : 0,
									"patching_rect" : [ 755.0, 510.137512000000015, 146.0, 23.0 ],
									"text" : "Calculate Segment Mean"
								}

							}
, 							{
								"box" : 								{
									"bubble" : 1,
									"fontname" : "Geneva",
									"fontsize" : 10.0,
									"id" : "obj-59",
									"maxclass" : "comment",
									"numinlets" : 1,
									"numoutlets" : 0,
									"patching_rect" : [ 755.0, 454.100067000000024, 302.0, 23.0 ],
									"text" : "Number of columns used for onset calculation (-1 for all)"
								}

							}
, 							{
								"box" : 								{
									"bubble" : 1,
									"fontname" : "Geneva",
									"fontsize" : 10.0,
									"id" : "obj-58",
									"maxclass" : "comment",
									"numinlets" : 1,
									"numoutlets" : 0,
									"patching_rect" : [ 755.0, 430.100067000000024, 255.0, 23.0 ],
									"text" : "Index of first column used for onset calculation"
								}

							}
, 							{
								"box" : 								{
									"bubble" : 1,
									"fontname" : "Geneva",
									"fontsize" : 10.0,
									"id" : "obj-57",
									"maxclass" : "comment",
									"numinlets" : 1,
									"numoutlets" : 0,
									"patching_rect" : [ 755.0, 406.80001800000008, 216.0, 23.0 ],
									"text" : "Onset detection value calculation mode"
								}

							}
, 							{
								"box" : 								{
									"bubble" : 1,
									"fontname" : "Geneva",
									"fontsize" : 10.0,
									"id" : "obj-56",
									"maxclass" : "comment",
									"numinlets" : 1,
									"numoutlets" : 0,
									"patching_rect" : [ 755.0, 382.800049000000001, 208.0, 23.0 ],
									"text" : "Median Filter Size [number of frames]"
								}

							}
, 							{
								"box" : 								{
									"bubble" : 1,
									"fontname" : "Geneva",
									"fontsize" : 10.0,
									"id" : "obj-53",
									"maxclass" : "comment",
									"numinlets" : 1,
									"numoutlets" : 0,
									"patching_rect" : [ 211.460205000000002, 475.0, 320.0, 23.0 ],
									"text" : "Only segments longer than Duration Threshold are kept [ms]"
								}

							}
, 							{
								"box" : 								{
									"bubble" : 1,
									"fontname" : "Geneva",
									"fontsize" : 10.0,
									"id" : "obj-52",
									"maxclass" : "comment",
									"numinlets" : 1,
									"numoutlets" : 0,
									"patching_rect" : [ 211.460205000000002, 440.0, 378.0, 23.0 ],
									"text" : "Offset threshold for detecting the end of a segment [absolute loudness]"
								}

							}
, 							{
								"box" : 								{
									"bubble" : 1,
									"fontname" : "Geneva",
									"fontsize" : 10.0,
									"id" : "obj-51",
									"linecount" : 2,
									"maxclass" : "comment",
									"numinlets" : 1,
									"numoutlets" : 0,
									"patching_rect" : [ 211.460205000000002, 397.999999999999943, 278.539795000000026, 35.0 ],
									"text" : "Onset Threshold for detecting an onset, relative to the median level of the last FilterSize frames."
								}

							}
, 							{
								"box" : 								{
									"attr" : "onseg.numcols",
									"fontname" : "Geneva",
									"fontsize" : 10.0,
									"id" : "obj-33",
									"maxclass" : "attrui",
									"numinlets" : 1,
									"numoutlets" : 1,
									"outlettype" : [ "" ],
									"patching_rect" : [ 595.0, 454.100067000000024, 156.0, 21.0 ]
								}

							}
, 							{
								"box" : 								{
									"attr" : "onseg.colindex",
									"fontname" : "Geneva",
									"fontsize" : 10.0,
									"id" : "obj-24",
									"maxclass" : "attrui",
									"numinlets" : 1,
									"numoutlets" : 1,
									"outlettype" : [ "" ],
									"patching_rect" : [ 595.0, 430.100067000000024, 156.0, 21.0 ]
								}

							}
, 							{
								"box" : 								{
									"attr" : "onseg.durthresh",
									"fontname" : "Geneva",
									"fontsize" : 10.0,
									"id" : "obj-34",
									"maxclass" : "attrui",
									"numinlets" : 1,
									"numoutlets" : 1,
									"outlettype" : [ "" ],
									"patching_rect" : [ 51.460205000000002, 475.0, 156.0, 21.0 ]
								}

							}
, 							{
								"box" : 								{
									"attr" : "onseg.filtersize",
									"fontname" : "Geneva",
									"fontsize" : 10.0,
									"id" : "obj-26",
									"maxclass" : "attrui",
									"numinlets" : 1,
									"numoutlets" : 1,
									"outlettype" : [ "" ],
									"patching_rect" : [ 595.0, 383.800049000000001, 156.0, 21.0 ]
								}

							}
, 							{
								"box" : 								{
									"attr" : "onseg.max",
									"fontname" : "Geneva",
									"fontsize" : 10.0,
									"id" : "obj-39",
									"maxclass" : "attrui",
									"numinlets" : 1,
									"numoutlets" : 1,
									"outlettype" : [ "" ],
									"patching_rect" : [ 595.0, 534.137512000000015, 156.0, 21.0 ]
								}

							}
, 							{
								"box" : 								{
									"attr" : "onseg.mean",
									"fontname" : "Geneva",
									"fontsize" : 10.0,
									"id" : "obj-40",
									"maxclass" : "attrui",
									"numinlets" : 1,
									"numoutlets" : 1,
									"outlettype" : [ "" ],
									"patching_rect" : [ 595.0, 511.137512000000015, 156.0, 21.0 ]
								}

							}
, 							{
								"box" : 								{
									"attr" : "onseg.min",
									"fontname" : "Geneva",
									"fontsize" : 10.0,
									"id" : "obj-41",
									"maxclass" : "attrui",
									"numinlets" : 1,
									"numoutlets" : 1,
									"outlettype" : [ "" ],
									"patching_rect" : [ 595.0, 557.137512000000015, 156.0, 21.0 ]
								}

							}
, 							{
								"box" : 								{
									"attr" : "onseg.odfmode",
									"fontname" : "Geneva",
									"fontsize" : 10.0,
									"id" : "obj-44",
									"maxclass" : "attrui",
									"numinlets" : 1,
									"numoutlets" : 1,
									"outlettype" : [ "" ],
									"patching_rect" : [ 595.0, 406.80001800000008, 156.0, 21.0 ]
								}

							}
, 							{
								"box" : 								{
									"attr" : "onseg.stddev",
									"fontname" : "Geneva",
									"fontsize" : 10.0,
									"id" : "obj-46",
									"maxclass" : "attrui",
									"numinlets" : 1,
									"numoutlets" : 1,
									"outlettype" : [ "" ],
									"patching_rect" : [ 595.0, 580.137512000000015, 156.0, 21.0 ]
								}

							}
, 							{
								"box" : 								{
									"attr" : "onseg.threshold",
									"fontname" : "Geneva",
									"fontsize" : 10.0,
									"id" : "obj-47",
									"maxclass" : "attrui",
									"numinlets" : 1,
									"numoutlets" : 1,
									"outlettype" : [ "" ],
									"patching_rect" : [ 51.460205000000002, 405.0, 156.0, 21.0 ]
								}

							}
, 							{
								"box" : 								{
									"attr" : "onseg.offthresh",
									"fontname" : "Geneva",
									"fontsize" : 10.0,
									"id" : "obj-49",
									"maxclass" : "attrui",
									"numinlets" : 1,
									"numoutlets" : 1,
									"outlettype" : [ "" ],
									"patching_rect" : [ 51.460205000000002, 440.0, 156.0, 21.0 ]
								}

							}
, 							{
								"box" : 								{
									"attr" : "onseg.duration",
									"fontname" : "Geneva",
									"fontsize" : 10.0,
									"id" : "obj-64",
									"maxclass" : "attrui",
									"numinlets" : 1,
									"numoutlets" : 1,
									"outlettype" : [ "" ],
									"patching_rect" : [ 595.0, 488.137512000000015, 156.0, 21.0 ]
								}

							}
, 							{
								"box" : 								{
									"hidden" : 1,
									"id" : "obj-32",
									"maxclass" : "newobj",
									"numinlets" : 1,
									"numoutlets" : 0,
									"patcher" : 									{
										"fileversion" : 1,
										"appversion" : 										{
											"major" : 8,
											"minor" : 1,
											"revision" : 8,
											"architecture" : "x64",
											"modernui" : 1
										}
,
										"classnamespace" : "box",
										"rect" : [ 84.0, 129.0, 640.0, 480.0 ],
										"bglocked" : 0,
										"openinpresentation" : 0,
										"default_fontsize" : 12.0,
										"default_fontface" : 0,
										"default_fontname" : "Arial",
										"gridonopen" : 1,
										"gridsize" : [ 15.0, 15.0 ],
										"gridsnaponopen" : 1,
										"objectsnaponopen" : 1,
										"statusbarvisible" : 2,
										"toolbarvisible" : 1,
										"lefttoolbarpinned" : 0,
										"toptoolbarpinned" : 0,
										"righttoolbarpinned" : 0,
										"bottomtoolbarpinned" : 0,
										"toolbars_unpinned_last_save" : 0,
										"tallnewobj" : 0,
										"boxanimatetime" : 200,
										"enablehscroll" : 1,
										"enablevscroll" : 1,
										"devicewidth" : 0.0,
										"description" : "",
										"digest" : "",
										"tags" : "",
										"style" : "",
										"subpatcher_template" : "",
										"assistshowspatchername" : 0,
										"boxes" : [ 											{
												"box" : 												{
													"comment" : "",
													"id" : "obj-30",
													"index" : 1,
													"maxclass" : "inlet",
													"numinlets" : 0,
													"numoutlets" : 1,
													"outlettype" : [ "" ],
													"patching_rect" : [ 241.0, 171.5, 30.0, 30.0 ]
												}

											}
, 											{
												"box" : 												{
													"id" : "obj-14",
													"maxclass" : "newobj",
													"numinlets" : 1,
													"numoutlets" : 1,
													"outlettype" : [ "" ],
													"patching_rect" : [ 241.0, 271.0, 53.0, 22.0 ],
													"text" : "pcontrol"
												}

											}
, 											{
												"box" : 												{
													"id" : "obj-13",
													"maxclass" : "newobj",
													"numinlets" : 1,
													"numoutlets" : 1,
													"outlettype" : [ "" ],
													"patching_rect" : [ 241.0, 243.0, 117.0, 22.0 ],
													"text" : "prepend loadunique"
												}

											}
, 											{
												"box" : 												{
													"id" : "obj-3",
													"maxclass" : "newobj",
													"numinlets" : 1,
													"numoutlets" : 1,
													"outlettype" : [ "" ],
													"patching_rect" : [ 241.0, 215.0, 112.0, 22.0 ],
													"text" : "sprintf %s.maxhelp"
												}

											}
 ],
										"lines" : [ 											{
												"patchline" : 												{
													"destination" : [ "obj-14", 0 ],
													"source" : [ "obj-13", 0 ]
												}

											}
, 											{
												"patchline" : 												{
													"destination" : [ "obj-13", 0 ],
													"source" : [ "obj-3", 0 ]
												}

											}
, 											{
												"patchline" : 												{
													"destination" : [ "obj-3", 0 ],
													"source" : [ "obj-30", 0 ]
												}

											}
 ]
									}
,
									"patching_rect" : [ 856.980102999999986, 14.0, 70.0, 22.0 ],
									"saved_object_attributes" : 									{
										"description" : "",
										"digest" : "",
										"globalpatchername" : "",
										"tags" : ""
									}
,
									"text" : "p load-help"
								}

							}
, 							{
								"box" : 								{
									"fontname" : "Arial",
									"fontsize" : 12.0,
									"id" : "obj-16",
									"maxclass" : "message",
									"numinlets" : 2,
									"numoutlets" : 1,
									"outlettype" : [ "" ],
									"patching_rect" : [ 930.0, 15.0, 130.0, 22.0 ],
									"text" : "gettingstartedwithPiPo"
								}

							}
, 							{
								"box" : 								{
									"fontname" : "Arial",
									"fontsize" : 16.0,
									"id" : "obj-2",
									"maxclass" : "comment",
									"numinlets" : 1,
									"numoutlets" : 0,
									"patching_rect" : [ 550.563110000000052, 90.799987999999999, 99.0, 24.0 ],
									"text" : "Visualization"
								}

							}
, 							{
								"box" : 								{
									"fontname" : "Geneva",
									"fontsize" : 10.0,
									"id" : "obj-8",
									"linecount" : 2,
									"maxclass" : "comment",
									"numinlets" : 1,
									"numoutlets" : 0,
									"patching_rect" : [ 465.245605000000012, 319.637572999999975, 58.0, 31.0 ],
									"text" : "max loudness"
								}

							}
, 							{
								"box" : 								{
									"fontname" : "Geneva",
									"fontsize" : 10.0,
									"id" : "obj-80",
									"linecount" : 3,
									"maxclass" : "comment",
									"numinlets" : 1,
									"numoutlets" : 0,
									"patching_rect" : [ 398.245605000000012, 319.637572999999975, 58.0, 44.0 ],
									"text" : "duration between onsets"
								}

							}
, 							{
								"box" : 								{
									"fontname" : "Geneva",
									"fontsize" : 10.0,
									"id" : "obj-9",
									"maxclass" : "number",
									"numinlets" : 1,
									"numoutlets" : 2,
									"outlettype" : [ "", "bang" ],
									"parameter_enable" : 0,
									"patching_rect" : [ 465.245605000000012, 300.637572999999975, 50.0, 21.0 ]
								}

							}
, 							{
								"box" : 								{
									"fontname" : "Geneva",
									"fontsize" : 10.0,
									"id" : "obj-76",
									"maxclass" : "number",
									"numinlets" : 1,
									"numoutlets" : 2,
									"outlettype" : [ "", "bang" ],
									"parameter_enable" : 0,
									"patching_rect" : [ 398.245605000000012, 300.637572999999975, 58.0, 21.0 ]
								}

							}
, 							{
								"box" : 								{
									"fontname" : "Geneva",
									"fontsize" : 10.0,
									"id" : "obj-74",
									"maxclass" : "newobj",
									"numinlets" : 1,
									"numoutlets" : 2,
									"outlettype" : [ "int", "int" ],
									"patching_rect" : [ 398.245605000000012, 275.637572999999975, 86.0, 21.0 ],
									"text" : "unpack 0 0"
								}

							}
, 							{
								"box" : 								{
									"hidden" : 1,
									"id" : "obj-37",
									"maxclass" : "newobj",
									"numinlets" : 1,
									"numoutlets" : 1,
									"outlettype" : [ "int" ],
									"patching_rect" : [ 121.0, 178.999968999999993, 27.0, 22.0 ],
									"text" : "t 0"
								}

							}
, 							{
								"box" : 								{
									"fontname" : "Arial",
									"fontsize" : 12.0,
									"id" : "obj-31",
									"maxclass" : "newobj",
									"numinlets" : 1,
									"numoutlets" : 3,
									"outlettype" : [ "", "", "" ],
									"patching_rect" : [ 552.440307999999959, 340.299987999999985, 498.245605000000012, 22.0 ],
									"saved_object_attributes" : 									{
										"verbose" : 1
									}
,
									"text" : "mubu.track onseg-help-realtime 1 audio @samplerate audio @maxsize 10s @predef yes"
								}

							}
, 							{
								"box" : 								{
									"fontname" : "Arial",
									"fontsize" : 12.0,
									"hidden" : 1,
									"id" : "obj-30",
									"maxclass" : "newobj",
									"numinlets" : 1,
									"numoutlets" : 1,
									"outlettype" : [ "bang" ],
									"patching_rect" : [ 234.0, 123.299987999999999, 60.0, 22.0 ],
									"text" : "loadbang"
								}

							}
, 							{
								"box" : 								{
									"fontname" : "Arial",
									"fontsize" : 12.0,
									"hidden" : 1,
									"id" : "obj-25",
									"maxclass" : "message",
									"numinlets" : 2,
									"numoutlets" : 1,
									"outlettype" : [ "" ],
									"patching_rect" : [ 56.235657000000003, 238.299988000000013, 61.0, 22.0 ],
									"text" : "record $1"
								}

							}
, 							{
								"box" : 								{
									"id" : "obj-22",
									"local" : 1,
									"maxclass" : "ezdac~",
									"numinlets" : 2,
									"numoutlets" : 0,
									"patching_rect" : [ 37.735657000000003, 189.999968999999993, 45.0, 45.0 ]
								}

							}
, 							{
								"box" : 								{
									"id" : "obj-19",
									"maxclass" : "toggle",
									"numinlets" : 1,
									"numoutlets" : 1,
									"outlettype" : [ "int" ],
									"parameter_enable" : 0,
									"patching_rect" : [ 56.235657000000003, 123.299987999999999, 20.0, 20.0 ]
								}

							}
, 							{
								"box" : 								{
									"fontname" : "Arial",
									"fontsize" : 12.0,
									"id" : "obj-75",
									"maxclass" : "newobj",
									"numinlets" : 2,
									"numoutlets" : 2,
									"outlettype" : [ "signal", "bang" ],
									"patching_rect" : [ 80.0, 150.024993999999992, 60.0, 22.0 ],
									"saved_object_attributes" : 									{
										"basictuning" : 440,
										"followglobaltempo" : 0,
										"formantcorrection" : 0,
										"mode" : "basic",
										"originallength" : [ 3339.319727891155708, "ticks" ],
										"originaltempo" : 119.999999999999986,
										"pitchcorrection" : 0,
										"quality" : "basic",
										"timestretch" : [ 0 ]
									}
,
									"text" : "sfplay~ 1"
								}

							}
, 							{
								"box" : 								{
									"fontname" : "Arial",
									"fontsize" : 12.0,
									"id" : "obj-20",
									"maxclass" : "message",
									"numinlets" : 2,
									"numoutlets" : 1,
									"outlettype" : [ "" ],
									"patching_rect" : [ 80.0, 121.299987999999999, 117.0, 22.0 ],
									"text" : "open drumLoop.aif"
								}

							}
, 							{
								"box" : 								{
									"fontname" : "Arial",
									"fontsize" : 12.0,
									"id" : "obj-17",
									"linecount" : 3,
									"maxclass" : "newobj",
									"numinlets" : 1,
									"numoutlets" : 2,
									"outlettype" : [ "", "" ],
									"patching_rect" : [ 66.235657000000003, 307.299987999999985, 279.0, 49.0 ],
									"text" : "mubu.record onseg-help-realtime 2 markers @defer 25. @progressoutput time @timetagged yes @info gui markers @predef yes"
								}

							}
, 							{
								"box" : 								{
									"color" : [ 0.5, 0.5, 0.5, 1.0 ],
									"fontname" : "Arial",
									"fontsize" : 12.0,
									"id" : "obj-18",
									"maxclass" : "newobj",
									"numinlets" : 1,
									"numoutlets" : 2,
									"outlettype" : [ "", "" ],
									"patching_rect" : [ 80.0, 279.299987999999985, 237.0, 22.0 ],
									"text" : "mubu.record~ 1 onseg-help-realtime audio"
								}

							}
, 							{
								"box" : 								{
									"fontname" : "Arial",
									"fontsize" : 12.0,
									"id" : "obj-27",
									"maxclass" : "message",
									"numinlets" : 2,
									"numoutlets" : 1,
									"outlettype" : [ "" ],
									"patching_rect" : [ 550.563110000000052, 117.599975999999998, 50.0, 22.0 ],
									"text" : "clearall"
								}

							}
, 							{
								"box" : 								{
									"alignviewbounds" : 0,
									"autobounds" : 1,
									"autorefreshrate" : 0,
									"autoupdate" : 120.0,
									"bgcolor" : [ 1.0, 1.0, 1.0, 1.0 ],
									"bufferchooser_bgcolor" : [ 1.0, 1.0, 1.0, 1.0 ],
									"bufferchooser_fgcolor" : [ 0.0, 0.0, 0.0, 1.0 ],
									"bufferchooser_position" : 1,
									"bufferchooser_shape" : "buttons",
									"bufferchooser_size" : 12,
									"bufferchooser_visible" : 0,
									"cursor_circleheight" : 3.0,
									"cursor_circlewidth" : 3.0,
									"cursor_color" : [ 1.0, 0.0, 0.0, 1.0 ],
									"cursor_followmouse" : 0,
									"cursor_noringoffset" : 0,
									"cursor_position" : -1.0,
									"cursor_shape" : "bar",
									"cursor_size" : 3,
									"cursor_sizeunit" : 0,
									"cursor_visible" : 0,
									"domain_bounds" : [ 0.0, 1.0 ],
									"domainruler_bgcolor" : [ 1.0, 1.0, 1.0, 1.0 ],
									"domainruler_fgcolor" : [ 0.0, 0.0, 0.0, 1.0 ],
									"domainruler_grid" : 0,
									"domainruler_position" : 0,
									"domainruler_size" : 15,
									"domainruler_unit" : 0,
									"domainruler_visible" : 1,
									"domainscrollbar_color" : [ 1.0, 1.0, 1.0, 1.0 ],
									"domainscrollbar_size" : 10,
									"domainscrollbar_visible" : 1,
									"embed" : 0,
									"externalfiles" : 1,
									"freeze" : 0,
									"id" : "obj-1",
									"layout" : 0,
									"maxclass" : "imubu",
									"name" : "onseg-help-realtime",
									"numinlets" : 1,
									"numoutlets" : 1,
									"opacity" : 0.479999989271164,
									"opacityprogressive" : 0,
									"orientation" : 0,
									"outlettype" : [ "" ],
									"outputkeys" : 0,
									"outputmouse" : 0,
									"outputselection" : 0,
									"outputtimeselection" : 0,
									"outputvalues" : 0,
									"outputviewname" : 0,
									"parameter_enable" : 0,
									"patching_rect" : [ 550.563110000000052, 143.299988000000013, 502.0, 193.0 ],
									"rangeruler_grid" : 0,
									"rangeruler_size" : 35,
									"rangeruler_visible" : 0,
									"region_bounds" : [ 0.0, 0.0 ],
									"region_color" : [ 0.8, 0.7, 0.7, 1.0 ],
									"region_visible" : 1,
									"resamplefiles" : 0,
									"snaprate" : 1000.0,
									"split_color" : [ 1.0, 0.0, 0.0, 1.0 ],
									"split_size" : 2,
									"split_visible" : 1,
									"tabs_position" : 0,
									"tabs_size" : 20,
									"tabs_visible" : 1,
									"tool" : "edit",
									"toolbar_bgcolor" : [ 1.0, 1.0, 1.0, 1.0 ],
									"toolbar_position" : 1,
									"toolbar_size" : 30,
									"toolbar_visible" : 1,
									"useplaceholders" : 1,
									"verbose" : 1,
									"windresize" : 0
								}

							}
, 							{
								"box" : 								{
									"id" : "obj-73",
									"maxclass" : "button",
									"numinlets" : 1,
									"numoutlets" : 1,
									"outlettype" : [ "bang" ],
									"parameter_enable" : 0,
									"patching_rect" : [ 358.5, 275.637572999999975, 32.0, 32.0 ]
								}

							}
, 							{
								"box" : 								{
									"color" : [ 0.113725, 0.580392, 0.737255, 1.0 ],
									"fontname" : "Arial",
									"fontsize" : 14.0,
									"id" : "obj-66",
									"linecount" : 6,
									"maxclass" : "newobj",
									"numinlets" : 1,
									"numoutlets" : 3,
									"outlettype" : [ "", "float", "" ],
									"patching_rect" : [ 162.245605000000069, 161.499968999999965, 361.0, 102.0 ],
									"saved_object_attributes" : 									{
										"active" : 1
									}
,
									"text" : "pipo~ slice:fft:sum:scale:onseg @slice.size 1024 @slice.hop 256 @slice.norm power @fft.mode power @fft.weighting itur468 @scale.inmin 1 @scale.inmax 10 @scale.outmin 0 @scale.outmax 10 @scale.func log @scale.base 10 @onseg.filtersize 5 @onseg.duration 1 @onseg.max 1 @onseg.offthresh -120"
								}

							}
, 							{
								"box" : 								{
									"fontname" : "Arial",
									"fontsize" : 16.0,
									"id" : "obj-36",
									"maxclass" : "comment",
									"numinlets" : 1,
									"numoutlets" : 0,
									"patching_rect" : [ 34.490051000000001, 90.799987999999999, 144.764342999999997, 24.0 ],
									"text" : "Online version"
								}

							}
, 							{
								"box" : 								{
									"fontname" : "Arial",
									"fontsize" : 16.0,
									"id" : "obj-6",
									"maxclass" : "comment",
									"numinlets" : 1,
									"numoutlets" : 0,
									"patching_rect" : [ 28.0, 57.0, 660.0, 24.0 ],
									"text" : "PiPo segmenting by onset (attack), typically on loudness, and calculating temporal statistics"
								}

							}
, 							{
								"box" : 								{
									"fontface" : 3,
									"fontname" : "Arial",
									"fontsize" : 36.0,
									"id" : "obj-21",
									"maxclass" : "comment",
									"numinlets" : 1,
									"numoutlets" : 0,
									"patching_rect" : [ 28.0, 6.0, 221.0, 47.0 ],
									"text" : "pipo.onseg",
									"varname" : "HelpTitle"
								}

							}
, 							{
								"box" : 								{
									"background" : 1,
									"bgcolor" : [ 1.0, 0.788235, 0.470588, 1.0 ],
									"fontface" : 1,
									"hint" : "",
									"id" : "obj-12",
									"ignoreclick" : 1,
									"legacytextcolor" : 1,
									"maxclass" : "textbutton",
									"numinlets" : 1,
									"numoutlets" : 3,
									"outlettype" : [ "", "", "int" ],
									"parameter_enable" : 0,
									"patching_rect" : [ 34.235657000000003, 123.299987999999999, 20.0, 20.0 ],
									"rounded" : 60.0,
									"text" : "2",
									"textcolor" : [ 0.34902, 0.34902, 0.34902, 1.0 ]
								}

							}
, 							{
								"box" : 								{
									"angle" : 270.0,
									"background" : 1,
									"bgcolor" : [ 1.0, 1.0, 1.0, 0.0 ],
									"border" : 1,
									"bordercolor" : [ 0.65098, 0.666667, 0.662745, 1.0 ],
									"id" : "obj-13",
									"maxclass" : "panel",
									"mode" : 0,
									"numinlets" : 1,
									"numoutlets" : 0,
									"patching_rect" : [ 28.0, 377.0, 1033.230103000000099, 231.299987999999985 ],
									"proportion" : 0.39
								}

							}
, 							{
								"box" : 								{
									"angle" : 270.0,
									"background" : 1,
									"bgcolor" : [ 1.0, 1.0, 1.0, 0.0 ],
									"border" : 1,
									"bordercolor" : [ 0.65098, 0.666667, 0.662745, 1.0 ],
									"id" : "obj-11",
									"maxclass" : "panel",
									"mode" : 0,
									"numinlets" : 1,
									"numoutlets" : 0,
									"patching_rect" : [ 540.0, 83.0, 520.46020499999986, 284.299987999999985 ],
									"proportion" : 0.39
								}

							}
, 							{
								"box" : 								{
									"background" : 1,
									"bgcolor" : [ 1.0, 0.788235, 0.470588, 1.0 ],
									"fontface" : 1,
									"hint" : "",
									"id" : "obj-43",
									"ignoreclick" : 1,
									"legacytextcolor" : 1,
									"maxclass" : "textbutton",
									"numinlets" : 1,
									"numoutlets" : 3,
									"outlettype" : [ "", "", "int" ],
									"parameter_enable" : 0,
									"patching_rect" : [ 203.0, 123.299987999999999, 20.0, 20.0 ],
									"rounded" : 60.0,
									"text" : "1",
									"textcolor" : [ 0.34902, 0.34902, 0.34902, 1.0 ]
								}

							}
, 							{
								"box" : 								{
									"angle" : 270.0,
									"background" : 1,
									"bgcolor" : [ 1.0, 1.0, 1.0, 0.0 ],
									"border" : 1,
									"bordercolor" : [ 0.65098, 0.666667, 0.662745, 1.0 ],
									"id" : "obj-10",
									"maxclass" : "panel",
									"mode" : 0,
									"numinlets" : 1,
									"numoutlets" : 0,
									"patching_rect" : [ 28.0, 83.0, 503.460204999999974, 284.299987999999985 ],
									"proportion" : 0.39
								}

							}
 ],
						"lines" : [ 							{
								"patchline" : 								{
									"destination" : [ "obj-66", 0 ],
									"hidden" : 1,
									"source" : [ "obj-15", 0 ]
								}

							}
, 							{
								"patchline" : 								{
									"destination" : [ "obj-32", 0 ],
									"hidden" : 1,
									"source" : [ "obj-16", 0 ]
								}

							}
, 							{
								"patchline" : 								{
									"destination" : [ "obj-22", 0 ],
									"midpoints" : [ 65.735657000000003, 166.149979000000002, 47.235657000000003, 166.149979000000002 ],
									"order" : 2,
									"source" : [ "obj-19", 0 ]
								}

							}
, 							{
								"patchline" : 								{
									"destination" : [ "obj-25", 0 ],
									"hidden" : 1,
									"midpoints" : [ 65.735657000000003, 209.137496999999996, 65.735657000000003, 209.137496999999996 ],
									"order" : 1,
									"source" : [ "obj-19", 0 ]
								}

							}
, 							{
								"patchline" : 								{
									"destination" : [ "obj-75", 0 ],
									"order" : 0,
									"source" : [ "obj-19", 0 ]
								}

							}
, 							{
								"patchline" : 								{
									"destination" : [ "obj-75", 0 ],
									"source" : [ "obj-20", 0 ]
								}

							}
, 							{
								"patchline" : 								{
									"destination" : [ "obj-66", 0 ],
									"hidden" : 1,
									"source" : [ "obj-23", 0 ]
								}

							}
, 							{
								"patchline" : 								{
									"destination" : [ "obj-66", 0 ],
									"hidden" : 1,
									"source" : [ "obj-24", 0 ]
								}

							}
, 							{
								"patchline" : 								{
									"destination" : [ "obj-17", 0 ],
									"hidden" : 1,
									"order" : 1,
									"source" : [ "obj-25", 0 ]
								}

							}
, 							{
								"patchline" : 								{
									"destination" : [ "obj-18", 0 ],
									"hidden" : 1,
									"midpoints" : [ 65.735657000000003, 281.649993999999992, 89.5, 281.649993999999992 ],
									"order" : 0,
									"source" : [ "obj-25", 0 ]
								}

							}
, 							{
								"patchline" : 								{
									"destination" : [ "obj-66", 0 ],
									"hidden" : 1,
									"source" : [ "obj-26", 0 ]
								}

							}
, 							{
								"patchline" : 								{
									"destination" : [ "obj-1", 0 ],
									"hidden" : 1,
									"midpoints" : [ 560.063110000000052, 139.299988000000013, 560.063110000000052, 139.299988000000013 ],
									"source" : [ "obj-27", 0 ]
								}

							}
, 							{
								"patchline" : 								{
									"destination" : [ "obj-20", 0 ],
									"hidden" : 1,
									"midpoints" : [ 243.5, 150.299988000000013, 226.5, 150.299988000000013, 226.5, 117.299987999999999, 89.5, 117.299987999999999 ],
									"source" : [ "obj-30", 0 ]
								}

							}
, 							{
								"patchline" : 								{
									"destination" : [ "obj-66", 0 ],
									"hidden" : 1,
									"source" : [ "obj-33", 0 ]
								}

							}
, 							{
								"patchline" : 								{
									"destination" : [ "obj-66", 0 ],
									"hidden" : 1,
									"source" : [ "obj-34", 0 ]
								}

							}
, 							{
								"patchline" : 								{
									"destination" : [ "obj-17", 0 ],
									"hidden" : 1,
									"order" : 0,
									"source" : [ "obj-37", 0 ]
								}

							}
, 							{
								"patchline" : 								{
									"destination" : [ "obj-19", 0 ],
									"hidden" : 1,
									"midpoints" : [ 130.5, 240.0, 31.245025999999999, 240.0, 31.245025999999999, 112.299987999999999, 65.735657000000003, 112.299987999999999 ],
									"order" : 2,
									"source" : [ "obj-37", 0 ]
								}

							}
, 							{
								"patchline" : 								{
									"destination" : [ "obj-25", 0 ],
									"hidden" : 1,
									"order" : 1,
									"source" : [ "obj-37", 0 ]
								}

							}
, 							{
								"patchline" : 								{
									"destination" : [ "obj-66", 0 ],
									"hidden" : 1,
									"source" : [ "obj-39", 0 ]
								}

							}
, 							{
								"patchline" : 								{
									"destination" : [ "obj-66", 0 ],
									"hidden" : 1,
									"source" : [ "obj-40", 0 ]
								}

							}
, 							{
								"patchline" : 								{
									"destination" : [ "obj-66", 0 ],
									"hidden" : 1,
									"source" : [ "obj-41", 0 ]
								}

							}
, 							{
								"patchline" : 								{
									"destination" : [ "obj-66", 0 ],
									"hidden" : 1,
									"source" : [ "obj-44", 0 ]
								}

							}
, 							{
								"patchline" : 								{
									"destination" : [ "obj-66", 0 ],
									"hidden" : 1,
									"source" : [ "obj-46", 0 ]
								}

							}
, 							{
								"patchline" : 								{
									"destination" : [ "obj-66", 0 ],
									"hidden" : 1,
									"source" : [ "obj-47", 0 ]
								}

							}
, 							{
								"patchline" : 								{
									"destination" : [ "obj-66", 0 ],
									"hidden" : 1,
									"source" : [ "obj-49", 0 ]
								}

							}
, 							{
								"patchline" : 								{
									"destination" : [ "obj-66", 0 ],
									"hidden" : 1,
									"source" : [ "obj-5", 0 ]
								}

							}
, 							{
								"patchline" : 								{
									"destination" : [ "obj-66", 0 ],
									"hidden" : 1,
									"source" : [ "obj-64", 0 ]
								}

							}
, 							{
								"patchline" : 								{
									"destination" : [ "obj-17", 0 ],
									"hidden" : 1,
									"midpoints" : [ 171.745605000000069, 274.0, 75.735657000000003, 274.0 ],
									"order" : 2,
									"source" : [ "obj-66", 0 ]
								}

							}
, 							{
								"patchline" : 								{
									"destination" : [ "obj-73", 0 ],
									"hidden" : 1,
									"midpoints" : [ 171.745605000000069, 271.818786999999986, 368.0, 271.818786999999986 ],
									"order" : 1,
									"source" : [ "obj-66", 0 ]
								}

							}
, 							{
								"patchline" : 								{
									"destination" : [ "obj-74", 0 ],
									"hidden" : 1,
									"midpoints" : [ 171.745605000000069, 271.818786999999986, 407.745605000000012, 271.818786999999986 ],
									"order" : 0,
									"source" : [ "obj-66", 0 ]
								}

							}
, 							{
								"patchline" : 								{
									"destination" : [ "obj-76", 0 ],
									"source" : [ "obj-74", 0 ]
								}

							}
, 							{
								"patchline" : 								{
									"destination" : [ "obj-9", 0 ],
									"source" : [ "obj-74", 1 ]
								}

							}
, 							{
								"patchline" : 								{
									"destination" : [ "obj-18", 0 ],
									"order" : 1,
									"source" : [ "obj-75", 0 ]
								}

							}
, 							{
								"patchline" : 								{
									"destination" : [ "obj-22", 1 ],
									"order" : 2,
									"source" : [ "obj-75", 0 ]
								}

							}
, 							{
								"patchline" : 								{
									"destination" : [ "obj-22", 0 ],
									"order" : 3,
									"source" : [ "obj-75", 0 ]
								}

							}
, 							{
								"patchline" : 								{
									"destination" : [ "obj-37", 0 ],
									"hidden" : 1,
									"source" : [ "obj-75", 1 ]
								}

							}
, 							{
								"patchline" : 								{
									"destination" : [ "obj-66", 0 ],
									"midpoints" : [ 89.5, 176.024993999999992, 151.25, 176.024993999999992, 151.25, 150.0, 171.745605000000069, 150.0 ],
									"order" : 0,
									"source" : [ "obj-75", 0 ]
								}

							}
 ],
						"bgcolor" : [ 0.898, 0.898, 0.898, 1.0 ],
						"editing_bgcolor" : [ 0.898, 0.898, 0.898, 1.0 ]
					}
,
					"patching_rect" : [ 448.0, 218.0, 63.0, 21.0 ],
					"saved_object_attributes" : 					{
						"description" : "",
						"digest" : "",
						"editing_bgcolor" : [ 0.898, 0.898, 0.898, 1.0 ],
						"globalpatchername" : "",
						"locked_bgcolor" : [ 0.898, 0.898, 0.898, 1.0 ],
						"tags" : ""
					}
,
					"text" : "p real-time",
					"varname" : "basic_tab[1]"
				}

			}
, 			{
				"box" : 				{
					"id" : "obj-37",
					"maxclass" : "newobj",
					"numinlets" : 1,
					"numoutlets" : 1,
					"outlettype" : [ "" ],
					"patching_rect" : [ 549.0, 280.0, 136.0, 21.0 ],
					"saved_object_attributes" : 					{
						"filename" : "helpstarter.js",
						"parameter_enable" : 0
					}
,
					"text" : "js helpstarter.js pipo.chop"
				}

			}
, 			{
				"box" : 				{
					"id" : "obj-79",
					"maxclass" : "newobj",
					"numinlets" : 0,
					"numoutlets" : 0,
					"patcher" : 					{
						"fileversion" : 1,
						"appversion" : 						{
							"major" : 8,
							"minor" : 1,
							"revision" : 8,
							"architecture" : "x64",
							"modernui" : 1
						}
,
						"classnamespace" : "box",
						"rect" : [ 0.0, 26.0, 1075.0, 619.0 ],
						"bglocked" : 1,
						"openinpresentation" : 0,
						"default_fontsize" : 12.0,
						"default_fontface" : 0,
						"default_fontname" : "Arial",
						"gridonopen" : 1,
						"gridsize" : [ 5.0, 5.0 ],
						"gridsnaponopen" : 1,
						"objectsnaponopen" : 1,
						"statusbarvisible" : 2,
						"toolbarvisible" : 1,
						"lefttoolbarpinned" : 0,
						"toptoolbarpinned" : 0,
						"righttoolbarpinned" : 0,
						"bottomtoolbarpinned" : 0,
						"toolbars_unpinned_last_save" : 0,
						"tallnewobj" : 0,
						"boxanimatetime" : 200,
						"enablehscroll" : 1,
						"enablevscroll" : 1,
						"devicewidth" : 0.0,
						"description" : "",
						"digest" : "",
						"tags" : "",
						"style" : "",
						"subpatcher_template" : "",
						"showontab" : 1,
						"assistshowspatchername" : 0,
						"boxes" : [ 							{
								"box" : 								{
									"bubble" : 1,
									"fontname" : "Geneva",
									"fontsize" : 10.0,
									"id" : "obj-20",
									"linecount" : 2,
									"maxclass" : "comment",
									"numinlets" : 1,
									"numoutlets" : 0,
									"patching_rect" : [ 211.460205000000002, 532.699981999999977, 363.0, 35.0 ],
									"text" : "Maxmum size of a segment [ms]. The current segment will be ended at this time, and a new segment started."
								}

							}
, 							{
								"box" : 								{
									"attr" : "onseg.maxsize",
									"fontname" : "Geneva",
									"fontsize" : 10.0,
									"id" : "obj-23",
									"maxclass" : "attrui",
									"numinlets" : 1,
									"numoutlets" : 1,
									"outlettype" : [ "" ],
									"patching_rect" : [ 51.460205000000002, 539.699982000000091, 156.0, 21.0 ]
								}

							}
, 							{
								"box" : 								{
									"bubble" : 1,
									"fontname" : "Geneva",
									"fontsize" : 10.0,
									"id" : "obj-16",
									"maxclass" : "comment",
									"numinlets" : 1,
									"numoutlets" : 0,
									"patching_rect" : [ 211.460205000000002, 505.0, 363.0, 23.0 ],
									"text" : "Minimum necessary time interval between two segment onsets [ms]"
								}

							}
, 							{
								"box" : 								{
									"attr" : "onseg.mininter",
									"fontname" : "Geneva",
									"fontsize" : 10.0,
									"id" : "obj-18",
									"maxclass" : "attrui",
									"numinlets" : 1,
									"numoutlets" : 1,
									"outlettype" : [ "" ],
									"patching_rect" : [ 51.460205000000002, 505.0, 156.0, 21.0 ]
								}

							}
, 							{
								"box" : 								{
									"id" : "obj-15",
									"linecount" : 6,
									"maxclass" : "comment",
									"numinlets" : 1,
									"numoutlets" : 0,
									"patching_rect" : [ 51.460204999999974, 663.0, 1381.0, 87.0 ],
									"text" : "OnsetMedianFilterSize\tMedianFilterSize\t\t\t[5.0]\t\tDrag up/down to change the number of frames to calculate the running median level for the Onset Threshold.\nOnsetMaximumSegmentDuration\tMaximumSegmentDuration\t\t10000\t[10000.0]\t\tDrag up/down to change the maxmum size of a segment. The current segment will be ended at this time, and a new segment started.\nOnsetMinimumOnsetInterval\tMinimumOnsetInterval\t\t5000\t[50.0]\t\tDrag up/down to change the minimum time necessary between two segment onsets.\nOnsetDurationThreshold\tDurationThreshold\t\t5000\t[0.0]\t\tDrag up/down to change the minimum segment duration. Only segments longer than this threshold are kept.\nOnsetOffsetThreshold\tOffsetThreshold\t-70\t30\t[-70.0]\t\tDrag up/down to change the level threshold for detecting the end of a segment in dB (absolute).\nOnsetOnsetThreshold\tOnsetThreshold\t-70\t30\t[5.0]\t\tDrag up/down to change the level threshold for detecting an onset in dB relative to the median level of the last Filter Size frames."
								}

							}
, 							{
								"box" : 								{
									"hidden" : 1,
									"id" : "obj-32",
									"maxclass" : "newobj",
									"numinlets" : 1,
									"numoutlets" : 0,
									"patcher" : 									{
										"fileversion" : 1,
										"appversion" : 										{
											"major" : 8,
											"minor" : 1,
											"revision" : 8,
											"architecture" : "x64",
											"modernui" : 1
										}
,
										"classnamespace" : "box",
										"rect" : [ 84.0, 129.0, 640.0, 480.0 ],
										"bglocked" : 0,
										"openinpresentation" : 0,
										"default_fontsize" : 12.0,
										"default_fontface" : 0,
										"default_fontname" : "Arial",
										"gridonopen" : 1,
										"gridsize" : [ 15.0, 15.0 ],
										"gridsnaponopen" : 1,
										"objectsnaponopen" : 1,
										"statusbarvisible" : 2,
										"toolbarvisible" : 1,
										"lefttoolbarpinned" : 0,
										"toptoolbarpinned" : 0,
										"righttoolbarpinned" : 0,
										"bottomtoolbarpinned" : 0,
										"toolbars_unpinned_last_save" : 0,
										"tallnewobj" : 0,
										"boxanimatetime" : 200,
										"enablehscroll" : 1,
										"enablevscroll" : 1,
										"devicewidth" : 0.0,
										"description" : "",
										"digest" : "",
										"tags" : "",
										"style" : "",
										"subpatcher_template" : "",
										"assistshowspatchername" : 0,
										"boxes" : [ 											{
												"box" : 												{
													"comment" : "",
													"id" : "obj-30",
													"index" : 1,
													"maxclass" : "inlet",
													"numinlets" : 0,
													"numoutlets" : 1,
													"outlettype" : [ "" ],
													"patching_rect" : [ 241.0, 171.5, 30.0, 30.0 ]
												}

											}
, 											{
												"box" : 												{
													"id" : "obj-14",
													"maxclass" : "newobj",
													"numinlets" : 1,
													"numoutlets" : 1,
													"outlettype" : [ "" ],
													"patching_rect" : [ 241.0, 271.0, 53.0, 22.0 ],
													"text" : "pcontrol"
												}

											}
, 											{
												"box" : 												{
													"id" : "obj-13",
													"maxclass" : "newobj",
													"numinlets" : 1,
													"numoutlets" : 1,
													"outlettype" : [ "" ],
													"patching_rect" : [ 241.0, 243.0, 117.0, 22.0 ],
													"text" : "prepend loadunique"
												}

											}
, 											{
												"box" : 												{
													"id" : "obj-3",
													"maxclass" : "newobj",
													"numinlets" : 1,
													"numoutlets" : 1,
													"outlettype" : [ "" ],
													"patching_rect" : [ 241.0, 215.0, 112.0, 22.0 ],
													"text" : "sprintf %s.maxhelp"
												}

											}
 ],
										"lines" : [ 											{
												"patchline" : 												{
													"destination" : [ "obj-14", 0 ],
													"source" : [ "obj-13", 0 ]
												}

											}
, 											{
												"patchline" : 												{
													"destination" : [ "obj-13", 0 ],
													"source" : [ "obj-3", 0 ]
												}

											}
, 											{
												"patchline" : 												{
													"destination" : [ "obj-3", 0 ],
													"source" : [ "obj-30", 0 ]
												}

											}
 ]
									}
,
									"patching_rect" : [ 856.980102999999986, 14.0, 70.0, 22.0 ],
									"saved_object_attributes" : 									{
										"description" : "",
										"digest" : "",
										"globalpatchername" : "",
										"tags" : ""
									}
,
									"text" : "p load-help"
								}

							}
, 							{
								"box" : 								{
									"fontname" : "Arial",
									"fontsize" : 12.0,
									"id" : "obj-11",
									"maxclass" : "message",
									"numinlets" : 2,
									"numoutlets" : 1,
									"outlettype" : [ "" ],
									"patching_rect" : [ 930.0, 15.0, 130.0, 22.0 ],
									"text" : "gettingstartedwithPiPo"
								}

							}
, 							{
								"box" : 								{
									"fontname" : "Arial",
									"fontsize" : 16.0,
									"id" : "obj-9",
									"maxclass" : "comment",
									"numinlets" : 1,
									"numoutlets" : 0,
									"patching_rect" : [ 32.5, 378.800049000000001, 84.0, 24.0 ],
									"text" : "Attributes"
								}

							}
, 							{
								"box" : 								{
									"fontname" : "Arial",
									"fontsize" : 16.0,
									"id" : "obj-4",
									"maxclass" : "comment",
									"numinlets" : 1,
									"numoutlets" : 0,
									"patching_rect" : [ 514.5, 95.0, 99.0, 24.0 ],
									"text" : "Visualization"
								}

							}
, 							{
								"box" : 								{
									"bubble" : 1,
									"fontname" : "Geneva",
									"fontsize" : 10.0,
									"id" : "obj-14",
									"maxclass" : "comment",
									"numinlets" : 1,
									"numoutlets" : 0,
									"patching_rect" : [ 211.460205000000002, 574.137512000000015, 221.0, 23.0 ],
									"text" : "Force placing a marker at start of buffer"
								}

							}
, 							{
								"box" : 								{
									"attr" : "onseg.startisonset",
									"fontname" : "Geneva",
									"fontsize" : 10.0,
									"id" : "obj-19",
									"maxclass" : "attrui",
									"numinlets" : 1,
									"numoutlets" : 1,
									"outlettype" : [ "" ],
									"patching_rect" : [ 51.460205000000002, 575.137512000000015, 156.0, 21.0 ],
									"text_width" : 109.519897
								}

							}
, 							{
								"box" : 								{
									"bubble" : 1,
									"fontname" : "Arial",
									"fontsize" : 12.0,
									"id" : "obj-2",
									"maxclass" : "comment",
									"numinlets" : 1,
									"numoutlets" : 0,
									"patching_rect" : [ 75.5, 148.0, 113.0, 24.0 ],
									"text" : "bang to process"
								}

							}
, 							{
								"box" : 								{
									"bubble" : 1,
									"fontname" : "Arial",
									"fontsize" : 12.0,
									"id" : "obj-83",
									"linecount" : 3,
									"maxclass" : "comment",
									"numinlets" : 1,
									"numoutlets" : 0,
									"patching_rect" : [ 355.460204999999974, 111.999984999999995, 105.0, 51.0 ],
									"text" : "change onset threshold and recalculate"
								}

							}
, 							{
								"box" : 								{
									"bubble" : 1,
									"fontname" : "Geneva",
									"fontsize" : 10.0,
									"id" : "obj-65",
									"maxclass" : "comment",
									"numinlets" : 1,
									"numoutlets" : 0,
									"patching_rect" : [ 755.0, 482.137512000000015, 250.0, 23.0 ],
									"text" : "Output segment duration as additional column"
								}

							}
, 							{
								"box" : 								{
									"bubble" : 1,
									"fontname" : "Geneva",
									"fontsize" : 10.0,
									"id" : "obj-63",
									"maxclass" : "comment",
									"numinlets" : 1,
									"numoutlets" : 0,
									"patching_rect" : [ 755.0, 575.137512000000015, 212.0, 23.0 ],
									"text" : "Calculate Segment Standard Deviation"
								}

							}
, 							{
								"box" : 								{
									"bubble" : 1,
									"fontname" : "Geneva",
									"fontsize" : 10.0,
									"id" : "obj-62",
									"maxclass" : "comment",
									"numinlets" : 1,
									"numoutlets" : 0,
									"patching_rect" : [ 755.0, 552.137512000000015, 137.0, 23.0 ],
									"text" : "Calculate Segment Min"
								}

							}
, 							{
								"box" : 								{
									"bubble" : 1,
									"fontname" : "Geneva",
									"fontsize" : 10.0,
									"id" : "obj-61",
									"maxclass" : "comment",
									"numinlets" : 1,
									"numoutlets" : 0,
									"patching_rect" : [ 755.0, 529.137512000000015, 140.0, 23.0 ],
									"text" : "Calculate Segment Max"
								}

							}
, 							{
								"box" : 								{
									"bubble" : 1,
									"fontname" : "Geneva",
									"fontsize" : 10.0,
									"id" : "obj-60",
									"maxclass" : "comment",
									"numinlets" : 1,
									"numoutlets" : 0,
									"patching_rect" : [ 755.0, 505.137512000000015, 146.0, 23.0 ],
									"text" : "Calculate Segment Mean"
								}

							}
, 							{
								"box" : 								{
									"bubble" : 1,
									"fontname" : "Geneva",
									"fontsize" : 10.0,
									"id" : "obj-59",
									"maxclass" : "comment",
									"numinlets" : 1,
									"numoutlets" : 0,
									"patching_rect" : [ 755.0, 449.100067000000024, 302.0, 23.0 ],
									"text" : "Number of columns used for onset calculation (-1 for all)"
								}

							}
, 							{
								"box" : 								{
									"bubble" : 1,
									"fontname" : "Geneva",
									"fontsize" : 10.0,
									"id" : "obj-58",
									"maxclass" : "comment",
									"numinlets" : 1,
									"numoutlets" : 0,
									"patching_rect" : [ 755.0, 425.100067000000024, 255.0, 23.0 ],
									"text" : "Index of first column used for onset calculation"
								}

							}
, 							{
								"box" : 								{
									"bubble" : 1,
									"fontname" : "Geneva",
									"fontsize" : 10.0,
									"id" : "obj-57",
									"maxclass" : "comment",
									"numinlets" : 1,
									"numoutlets" : 0,
									"patching_rect" : [ 755.0, 401.80001800000008, 216.0, 23.0 ],
									"text" : "Onset detection value calculation mode"
								}

							}
, 							{
								"box" : 								{
									"bubble" : 1,
									"fontname" : "Geneva",
									"fontsize" : 10.0,
									"id" : "obj-56",
									"maxclass" : "comment",
									"numinlets" : 1,
									"numoutlets" : 0,
									"patching_rect" : [ 755.0, 377.800049000000001, 208.0, 23.0 ],
									"text" : "Median Filter Size [number of frames]"
								}

							}
, 							{
								"box" : 								{
									"bubble" : 1,
									"fontname" : "Geneva",
									"fontsize" : 10.0,
									"id" : "obj-53",
									"maxclass" : "comment",
									"numinlets" : 1,
									"numoutlets" : 0,
									"patching_rect" : [ 211.460205000000002, 470.0, 320.0, 23.0 ],
									"text" : "Only segments longer than Duration Threshold are kept [ms]"
								}

							}
, 							{
								"box" : 								{
									"bubble" : 1,
									"fontname" : "Geneva",
									"fontsize" : 10.0,
									"id" : "obj-52",
									"maxclass" : "comment",
									"numinlets" : 1,
									"numoutlets" : 0,
									"patching_rect" : [ 211.460205000000002, 435.0, 378.0, 23.0 ],
									"text" : "Offset threshold for detecting the end of a segment [absolute loudness]"
								}

							}
, 							{
								"box" : 								{
									"bubble" : 1,
									"fontname" : "Geneva",
									"fontsize" : 10.0,
									"id" : "obj-51",
									"linecount" : 2,
									"maxclass" : "comment",
									"numinlets" : 1,
									"numoutlets" : 0,
									"patching_rect" : [ 211.460205000000002, 392.999999999999943, 278.539795000000026, 35.0 ],
									"text" : "Onset Threshold for detecting an onset, relative to the median level of the last FilterSize frames."
								}

							}
, 							{
								"box" : 								{
									"fontname" : "Geneva",
									"fontsize" : 10.0,
									"id" : "obj-48",
									"maxclass" : "newobj",
									"numinlets" : 1,
									"numoutlets" : 2,
									"outlettype" : [ "bang", "float" ],
									"patching_rect" : [ 312.980102999999986, 151.499985000000009, 32.5, 21.0 ],
									"text" : "t b f"
								}

							}
, 							{
								"box" : 								{
									"attr" : "onseg.numcols",
									"fontname" : "Geneva",
									"fontsize" : 10.0,
									"id" : "obj-33",
									"maxclass" : "attrui",
									"numinlets" : 1,
									"numoutlets" : 1,
									"outlettype" : [ "" ],
									"patching_rect" : [ 595.0, 449.100067000000024, 156.0, 21.0 ]
								}

							}
, 							{
								"box" : 								{
									"attr" : "onseg.colindex",
									"fontname" : "Geneva",
									"fontsize" : 10.0,
									"id" : "obj-31",
									"maxclass" : "attrui",
									"numinlets" : 1,
									"numoutlets" : 1,
									"outlettype" : [ "" ],
									"patching_rect" : [ 595.0, 425.100067000000024, 156.0, 21.0 ]
								}

							}
, 							{
								"box" : 								{
									"fontname" : "Arial",
									"fontsize" : 12.0,
									"format" : 6,
									"id" : "obj-22",
									"maxclass" : "flonum",
									"numinlets" : 1,
									"numoutlets" : 2,
									"outlettype" : [ "", "bang" ],
									"parameter_enable" : 0,
									"patching_rect" : [ 312.980102999999986, 126.499984999999995, 38.0, 22.0 ]
								}

							}
, 							{
								"box" : 								{
									"id" : "obj-12",
									"maxclass" : "button",
									"numinlets" : 1,
									"numoutlets" : 1,
									"outlettype" : [ "bang" ],
									"parameter_enable" : 0,
									"patching_rect" : [ 41.460205000000002, 144.500014999999991, 30.999969, 30.999969 ]
								}

							}
, 							{
								"box" : 								{
									"fontface" : 0,
									"fontname" : "Arial",
									"fontsize" : 14.0,
									"id" : "obj-17",
									"linecount" : 9,
									"maxclass" : "newobj",
									"numinlets" : 2,
									"numoutlets" : 4,
									"outlettype" : [ "", "", "int", "" ],
									"patching_rect" : [ 41.460205000000002, 189.200011999999987, 419.0, 149.0 ],
									"text" : "mubu.process onseg-help-offline audio slice:fft:sum:scale:onseg @name markers @process 0 @prepad 2000 @slice.size 1024 @slice.hop 256 @slice.norm power @fft.mode power @fft.weighting itur468 @sum.colname Loudness @scale.inmin 1 @scale.inmax 10 @scale.outmin 0 @scale.outmax 10 @scale.func log @scale.base 10 @onseg.filtersize 5 @onseg.duration 1 @onseg.max 1 @onseg.min 1 @onseg.mean 1 @onseg.stddev 1 @onseg.offthresh -120 @info gui \"interface markers, autobounds 1, paramcols Cue Label Duration\""
								}

							}
, 							{
								"box" : 								{
									"attr" : "onseg.durthresh",
									"fontname" : "Geneva",
									"fontsize" : 10.0,
									"id" : "obj-34",
									"maxclass" : "attrui",
									"numinlets" : 1,
									"numoutlets" : 1,
									"outlettype" : [ "" ],
									"patching_rect" : [ 51.460205000000002, 470.0, 156.0, 21.0 ]
								}

							}
, 							{
								"box" : 								{
									"attr" : "onseg.filtersize",
									"fontname" : "Geneva",
									"fontsize" : 10.0,
									"id" : "obj-37",
									"maxclass" : "attrui",
									"numinlets" : 1,
									"numoutlets" : 1,
									"outlettype" : [ "" ],
									"patching_rect" : [ 595.0, 378.800049000000001, 156.0, 21.0 ]
								}

							}
, 							{
								"box" : 								{
									"attr" : "onseg.max",
									"fontname" : "Geneva",
									"fontsize" : 10.0,
									"id" : "obj-39",
									"maxclass" : "attrui",
									"numinlets" : 1,
									"numoutlets" : 1,
									"outlettype" : [ "" ],
									"patching_rect" : [ 595.0, 529.137512000000015, 156.0, 21.0 ]
								}

							}
, 							{
								"box" : 								{
									"attr" : "onseg.mean",
									"fontname" : "Geneva",
									"fontsize" : 10.0,
									"id" : "obj-40",
									"maxclass" : "attrui",
									"numinlets" : 1,
									"numoutlets" : 1,
									"outlettype" : [ "" ],
									"patching_rect" : [ 595.0, 506.137512000000015, 156.0, 21.0 ]
								}

							}
, 							{
								"box" : 								{
									"attr" : "onseg.min",
									"fontname" : "Geneva",
									"fontsize" : 10.0,
									"id" : "obj-41",
									"maxclass" : "attrui",
									"numinlets" : 1,
									"numoutlets" : 1,
									"outlettype" : [ "" ],
									"patching_rect" : [ 595.0, 552.137512000000015, 156.0, 21.0 ]
								}

							}
, 							{
								"box" : 								{
									"attr" : "onseg.odfmode",
									"fontname" : "Geneva",
									"fontsize" : 10.0,
									"id" : "obj-44",
									"maxclass" : "attrui",
									"numinlets" : 1,
									"numoutlets" : 1,
									"outlettype" : [ "" ],
									"patching_rect" : [ 595.0, 401.80001800000008, 156.0, 21.0 ]
								}

							}
, 							{
								"box" : 								{
									"attr" : "onseg.stddev",
									"fontname" : "Geneva",
									"fontsize" : 10.0,
									"id" : "obj-46",
									"maxclass" : "attrui",
									"numinlets" : 1,
									"numoutlets" : 1,
									"outlettype" : [ "" ],
									"patching_rect" : [ 595.0, 575.137512000000015, 156.0, 21.0 ]
								}

							}
, 							{
								"box" : 								{
									"attr" : "onseg.threshold",
									"fontname" : "Geneva",
									"fontsize" : 10.0,
									"id" : "obj-47",
									"maxclass" : "attrui",
									"numinlets" : 1,
									"numoutlets" : 1,
									"outlettype" : [ "" ],
									"patching_rect" : [ 51.460205000000002, 400.0, 156.0, 21.0 ]
								}

							}
, 							{
								"box" : 								{
									"attr" : "onseg.offthresh",
									"fontname" : "Geneva",
									"fontsize" : 10.0,
									"id" : "obj-49",
									"maxclass" : "attrui",
									"numinlets" : 1,
									"numoutlets" : 1,
									"outlettype" : [ "" ],
									"patching_rect" : [ 51.460205000000002, 435.0, 156.0, 21.0 ]
								}

							}
, 							{
								"box" : 								{
									"attr" : "onseg.duration",
									"fontname" : "Geneva",
									"fontsize" : 10.0,
									"id" : "obj-64",
									"maxclass" : "attrui",
									"numinlets" : 1,
									"numoutlets" : 1,
									"outlettype" : [ "" ],
									"patching_rect" : [ 595.0, 483.137512000000015, 156.0, 21.0 ]
								}

							}
, 							{
								"box" : 								{
									"fontname" : "Arial",
									"fontsize" : 16.0,
									"id" : "obj-35",
									"maxclass" : "comment",
									"numinlets" : 1,
									"numoutlets" : 0,
									"patching_rect" : [ 32.5, 90.274963, 226.0, 24.0 ],
									"text" : "Offline version: Process Buffer"
								}

							}
, 							{
								"box" : 								{
									"fontname" : "Arial",
									"fontsize" : 12.0,
									"hidden" : 1,
									"id" : "obj-13",
									"maxclass" : "newobj",
									"numinlets" : 1,
									"numoutlets" : 1,
									"outlettype" : [ "bang" ],
									"patching_rect" : [ 636.5, 95.0, 60.0, 22.0 ],
									"text" : "loadbang"
								}

							}
, 							{
								"box" : 								{
									"fontname" : "Arial",
									"fontsize" : 16.0,
									"id" : "obj-6",
									"linecount" : 2,
									"maxclass" : "comment",
									"numinlets" : 1,
									"numoutlets" : 0,
									"patching_rect" : [ 28.0, 41.0, 1053.0, 42.0 ],
									"text" : "PiPo module segmenting by onset (attack), typically on loudness, and calculating temporal statistics. \nAn onset is detected when the current frame's value is larger than the running median + the Onset Threshold."
								}

							}
, 							{
								"box" : 								{
									"fontface" : 3,
									"fontname" : "Arial",
									"fontsize" : 36.0,
									"id" : "obj-21",
									"maxclass" : "comment",
									"numinlets" : 1,
									"numoutlets" : 0,
									"patching_rect" : [ 28.0, -2.0, 210.0, 47.0 ],
									"text" : "pipo.onseg",
									"varname" : "HelpTitle"
								}

							}
, 							{
								"box" : 								{
									"fontname" : "Arial",
									"fontsize" : 12.0,
									"id" : "obj-27",
									"maxclass" : "message",
									"numinlets" : 2,
									"numoutlets" : 1,
									"outlettype" : [ "" ],
									"patching_rect" : [ 834.0, 126.499968999999993, 50.0, 22.0 ],
									"text" : "clearall"
								}

							}
, 							{
								"box" : 								{
									"fontname" : "Arial",
									"fontsize" : 12.0,
									"id" : "obj-24",
									"maxclass" : "message",
									"numinlets" : 2,
									"numoutlets" : 1,
									"outlettype" : [ "" ],
									"patching_rect" : [ 519.5, 126.499968999999993, 186.0, 22.0 ],
									"text" : "read drumLoop.aif @name audio"
								}

							}
, 							{
								"box" : 								{
									"fontname" : "Arial",
									"fontsize" : 12.0,
									"id" : "obj-3",
									"maxclass" : "message",
									"numinlets" : 2,
									"numoutlets" : 1,
									"outlettype" : [ "" ],
									"patching_rect" : [ 710.5, 126.499968999999993, 113.0, 22.0 ],
									"text" : "read @name audio"
								}

							}
, 							{
								"box" : 								{
									"alignviewbounds" : 0,
									"autobounds" : 1,
									"autorefreshrate" : 0,
									"autoupdate" : 120.0,
									"bgcolor" : [ 1.0, 1.0, 1.0, 1.0 ],
									"bufferchooser_bgcolor" : [ 1.0, 1.0, 1.0, 1.0 ],
									"bufferchooser_fgcolor" : [ 0.0, 0.0, 0.0, 1.0 ],
									"bufferchooser_position" : 1,
									"bufferchooser_shape" : "buttons",
									"bufferchooser_size" : 12,
									"bufferchooser_visible" : 0,
									"cursor_circleheight" : 3.0,
									"cursor_circlewidth" : 3.0,
									"cursor_color" : [ 1.0, 0.0, 0.0, 1.0 ],
									"cursor_followmouse" : 0,
									"cursor_noringoffset" : 0,
									"cursor_position" : -1.0,
									"cursor_shape" : "bar",
									"cursor_size" : 3,
									"cursor_sizeunit" : 0,
									"cursor_visible" : 0,
									"domain_bounds" : [ 0.0, 3478.435374149659765 ],
									"domainruler_bgcolor" : [ 1.0, 1.0, 1.0, 1.0 ],
									"domainruler_fgcolor" : [ 0.0, 0.0, 0.0, 1.0 ],
									"domainruler_grid" : 0,
									"domainruler_position" : 0,
									"domainruler_size" : 15,
									"domainruler_unit" : 0,
									"domainruler_visible" : 1,
									"domainscrollbar_color" : [ 1.0, 1.0, 1.0, 1.0 ],
									"domainscrollbar_size" : 10,
									"domainscrollbar_visible" : 1,
									"embed" : 0,
									"externalfiles" : 1,
									"freeze" : 0,
									"id" : "obj-1",
									"layout" : 0,
									"maxclass" : "imubu",
									"name" : "onseg-help-offline",
									"numinlets" : 1,
									"numoutlets" : 1,
									"opacity" : 0.479999989271164,
									"opacityprogressive" : 0,
									"orientation" : 0,
									"outlettype" : [ "" ],
									"outputkeys" : 0,
									"outputmouse" : 0,
									"outputselection" : 0,
									"outputtimeselection" : 0,
									"outputvalues" : 0,
									"outputviewname" : 0,
									"parameter_enable" : 0,
									"patching_rect" : [ 518.5, 153.499968999999993, 535.960204999999974, 205.0 ],
									"rangeruler_grid" : 0,
									"rangeruler_size" : 35,
									"rangeruler_visible" : 0,
									"region_bounds" : [ 0.0, 0.0 ],
									"region_color" : [ 0.8, 0.7, 0.7, 1.0 ],
									"region_visible" : 1,
									"resamplefiles" : 0,
									"snaprate" : 1000.0,
									"split_color" : [ 1.0, 0.0, 0.0, 1.0 ],
									"split_size" : 2,
									"split_visible" : 1,
									"tabs_position" : 0,
									"tabs_size" : 20,
									"tabs_visible" : 1,
									"tool" : "edit",
									"toolbar_bgcolor" : [ 1.0, 1.0, 1.0, 1.0 ],
									"toolbar_position" : 1,
									"toolbar_size" : 30,
									"toolbar_visible" : 1,
									"useplaceholders" : 1,
									"verbose" : 1,
									"windresize" : 0
								}

							}
, 							{
								"box" : 								{
									"background" : 1,
									"bgcolor" : [ 1.0, 0.788235, 0.470588, 1.0 ],
									"fontface" : 1,
									"hint" : "",
									"id" : "obj-7",
									"ignoreclick" : 1,
									"legacytextcolor" : 1,
									"maxclass" : "textbutton",
									"numinlets" : 1,
									"numoutlets" : 3,
									"outlettype" : [ "", "", "int" ],
									"parameter_enable" : 0,
									"patching_rect" : [ 43.5, 121.799987999999999, 20.0, 20.0 ],
									"rounded" : 60.0,
									"text" : "1",
									"textcolor" : [ 0.34902, 0.34902, 0.34902, 1.0 ]
								}

							}
, 							{
								"box" : 								{
									"angle" : 270.0,
									"background" : 1,
									"bgcolor" : [ 1.0, 1.0, 1.0, 0.0 ],
									"border" : 1,
									"bordercolor" : [ 0.65098, 0.666667, 0.662745, 1.0 ],
									"id" : "obj-10",
									"maxclass" : "panel",
									"mode" : 0,
									"numinlets" : 1,
									"numoutlets" : 0,
									"patching_rect" : [ 28.0, 374.275023999999974, 1037.940307999999959, 238.724976000000026 ],
									"proportion" : 0.39
								}

							}
, 							{
								"box" : 								{
									"angle" : 270.0,
									"background" : 1,
									"bgcolor" : [ 1.0, 1.0, 1.0, 0.0 ],
									"border" : 1,
									"bordercolor" : [ 0.65098, 0.666667, 0.662745, 1.0 ],
									"id" : "obj-8",
									"maxclass" : "panel",
									"mode" : 0,
									"numinlets" : 1,
									"numoutlets" : 0,
									"patching_rect" : [ 502.960204999999974, 86.274963, 562.980102999999986, 280.724976000000026 ],
									"proportion" : 0.39
								}

							}
, 							{
								"box" : 								{
									"angle" : 270.0,
									"background" : 1,
									"bgcolor" : [ 1.0, 1.0, 1.0, 0.0 ],
									"border" : 1,
									"bordercolor" : [ 0.65098, 0.666667, 0.662745, 1.0 ],
									"id" : "obj-5",
									"maxclass" : "panel",
									"mode" : 0,
									"numinlets" : 1,
									"numoutlets" : 0,
									"patching_rect" : [ 28.0, 86.274963, 465.980102999999986, 280.724976000000026 ],
									"proportion" : 0.39
								}

							}
 ],
						"lines" : [ 							{
								"patchline" : 								{
									"destination" : [ "obj-32", 0 ],
									"hidden" : 1,
									"source" : [ "obj-11", 0 ]
								}

							}
, 							{
								"patchline" : 								{
									"destination" : [ "obj-17", 0 ],
									"source" : [ "obj-12", 0 ]
								}

							}
, 							{
								"patchline" : 								{
									"destination" : [ "obj-24", 0 ],
									"hidden" : 1,
									"midpoints" : [ 646.0, 121.637466000000003, 529.0, 121.637466000000003 ],
									"source" : [ "obj-13", 0 ]
								}

							}
, 							{
								"patchline" : 								{
									"destination" : [ "obj-17", 0 ],
									"hidden" : 1,
									"source" : [ "obj-18", 0 ]
								}

							}
, 							{
								"patchline" : 								{
									"destination" : [ "obj-17", 0 ],
									"hidden" : 1,
									"midpoints" : [ 60.960205000000002, 435.0, 497.960204999999974, 435.0, 497.960204999999974, 178.200011999999987, 50.960205000000002, 178.200011999999987 ],
									"source" : [ "obj-19", 0 ]
								}

							}
, 							{
								"patchline" : 								{
									"destination" : [ "obj-48", 0 ],
									"source" : [ "obj-22", 0 ]
								}

							}
, 							{
								"patchline" : 								{
									"destination" : [ "obj-17", 0 ],
									"hidden" : 1,
									"source" : [ "obj-23", 0 ]
								}

							}
, 							{
								"patchline" : 								{
									"destination" : [ "obj-1", 0 ],
									"source" : [ "obj-24", 0 ]
								}

							}
, 							{
								"patchline" : 								{
									"destination" : [ "obj-1", 0 ],
									"hidden" : 1,
									"midpoints" : [ 843.5, 150.499968999999993, 528.0, 150.499968999999993 ],
									"source" : [ "obj-27", 0 ]
								}

							}
, 							{
								"patchline" : 								{
									"destination" : [ "obj-1", 0 ],
									"hidden" : 1,
									"midpoints" : [ 720.0, 150.499968999999993, 528.0, 150.499968999999993 ],
									"source" : [ "obj-3", 0 ]
								}

							}
, 							{
								"patchline" : 								{
									"destination" : [ "obj-17", 0 ],
									"hidden" : 1,
									"source" : [ "obj-31", 0 ]
								}

							}
, 							{
								"patchline" : 								{
									"destination" : [ "obj-17", 0 ],
									"hidden" : 1,
									"source" : [ "obj-33", 0 ]
								}

							}
, 							{
								"patchline" : 								{
									"destination" : [ "obj-17", 0 ],
									"hidden" : 1,
									"source" : [ "obj-34", 0 ]
								}

							}
, 							{
								"patchline" : 								{
									"destination" : [ "obj-17", 0 ],
									"hidden" : 1,
									"source" : [ "obj-37", 0 ]
								}

							}
, 							{
								"patchline" : 								{
									"destination" : [ "obj-17", 0 ],
									"hidden" : 1,
									"midpoints" : [ 604.5, 520.0, 498.960204999999974, 520.0, 498.960204999999974, 178.200011999999987, 50.960205000000002, 178.200011999999987 ],
									"source" : [ "obj-39", 0 ]
								}

							}
, 							{
								"patchline" : 								{
									"destination" : [ "obj-17", 0 ],
									"hidden" : 1,
									"midpoints" : [ 604.5, 496.0, 498.960204999999974, 496.0, 498.960204999999974, 178.200011999999987, 50.960205000000002, 178.200011999999987 ],
									"source" : [ "obj-40", 0 ]
								}

							}
, 							{
								"patchline" : 								{
									"destination" : [ "obj-17", 0 ],
									"hidden" : 1,
									"midpoints" : [ 604.5, 545.0, 498.960204999999974, 545.0, 498.960204999999974, 178.200011999999987, 50.960205000000002, 178.200011999999987 ],
									"source" : [ "obj-41", 0 ]
								}

							}
, 							{
								"patchline" : 								{
									"destination" : [ "obj-17", 0 ],
									"hidden" : 1,
									"source" : [ "obj-44", 0 ]
								}

							}
, 							{
								"patchline" : 								{
									"destination" : [ "obj-17", 0 ],
									"hidden" : 1,
									"midpoints" : [ 604.5, 571.0, 499.960204999999974, 571.0, 499.960204999999974, 178.200011999999987, 50.960205000000002, 178.200011999999987 ],
									"source" : [ "obj-46", 0 ]
								}

							}
, 							{
								"patchline" : 								{
									"destination" : [ "obj-17", 0 ],
									"hidden" : 1,
									"source" : [ "obj-47", 0 ]
								}

							}
, 							{
								"patchline" : 								{
									"destination" : [ "obj-17", 0 ],
									"midpoints" : [ 322.480102999999986, 180.349997999999999, 50.960205000000002, 180.349997999999999 ],
									"source" : [ "obj-48", 0 ]
								}

							}
, 							{
								"patchline" : 								{
									"destination" : [ "obj-47", 0 ],
									"hidden" : 1,
									"midpoints" : [ 335.980102999999986, 404.749977000000001, 60.960205000000002, 404.749977000000001 ],
									"source" : [ "obj-48", 1 ]
								}

							}
, 							{
								"patchline" : 								{
									"destination" : [ "obj-17", 0 ],
									"hidden" : 1,
									"source" : [ "obj-49", 0 ]
								}

							}
, 							{
								"patchline" : 								{
									"destination" : [ "obj-17", 0 ],
									"hidden" : 1,
									"midpoints" : [ 604.5, 470.0, 498.960204999999974, 470.0, 498.960204999999974, 178.200011999999987, 50.960205000000002, 178.200011999999987 ],
									"source" : [ "obj-64", 0 ]
								}

							}
 ],
						"bgcolor" : [ 0.898, 0.898, 0.898, 1.0 ],
						"editing_bgcolor" : [ 0.898, 0.898, 0.898, 1.0 ]
					}
,
					"patching_rect" : [ 394.0, 185.0, 50.0, 21.0 ],
					"saved_object_attributes" : 					{
						"description" : "",
						"digest" : "",
						"editing_bgcolor" : [ 0.898, 0.898, 0.898, 1.0 ],
						"globalpatchername" : "",
						"locked_bgcolor" : [ 0.898, 0.898, 0.898, 1.0 ],
						"tags" : ""
					}
,
					"text" : "p offline",
					"varname" : "basic_tab"
				}

			}
, 			{
				"box" : 				{
					"id" : "obj-42",
					"maxclass" : "newobj",
					"numinlets" : 0,
					"numoutlets" : 0,
					"patcher" : 					{
						"fileversion" : 1,
						"appversion" : 						{
							"major" : 8,
							"minor" : 1,
							"revision" : 8,
							"architecture" : "x64",
							"modernui" : 1
						}
,
						"classnamespace" : "box",
						"rect" : [ 0.0, 26.0, 1075.0, 619.0 ],
						"bglocked" : 0,
						"openinpresentation" : 0,
						"default_fontsize" : 12.0,
						"default_fontface" : 0,
						"default_fontname" : "Arial",
						"gridonopen" : 1,
						"gridsize" : [ 15.0, 15.0 ],
						"gridsnaponopen" : 1,
						"objectsnaponopen" : 1,
						"statusbarvisible" : 2,
						"toolbarvisible" : 1,
						"lefttoolbarpinned" : 0,
						"toptoolbarpinned" : 0,
						"righttoolbarpinned" : 0,
						"bottomtoolbarpinned" : 0,
						"toolbars_unpinned_last_save" : 0,
						"tallnewobj" : 0,
						"boxanimatetime" : 200,
						"enablehscroll" : 1,
						"enablevscroll" : 1,
						"devicewidth" : 0.0,
						"description" : "",
						"digest" : "",
						"tags" : "",
						"style" : "",
						"subpatcher_template" : "",
						"showontab" : 1,
						"assistshowspatchername" : 0,
						"boxes" : [  ],
						"lines" : [  ]
					}
,
					"patching_rect" : [ 483.0, 253.0, 50.0, 21.0 ],
					"saved_object_attributes" : 					{
						"description" : "",
						"digest" : "",
						"globalpatchername" : "",
						"tags" : ""
					}
,
					"text" : "p ?",
					"varname" : "q_tab"
				}

			}
 ],
		"lines" : [  ],
		"dependency_cache" : [ 			{
				"name" : "helpstarter.js",
				"bootpath" : "C74:/help/resources",
				"type" : "TEXT",
				"implicit" : 1
			}
, 			{
				"name" : "mubu.mxo",
				"type" : "iLaX"
			}
, 			{
				"name" : "mubu.mxo",
				"type" : "iLaX"
			}
, 			{
				"name" : "pipo~.mxo",
				"type" : "iLaX"
			}
, 			{
				"name" : "mubu.mxo",
				"type" : "iLaX"
			}
, 			{
				"name" : "mubu.mxo",
				"type" : "iLaX"
			}
, 			{
				"name" : "mubu.mxo",
				"type" : "iLaX"
			}
 ],
		"autosave" : 0
	}

}
